<svg width="25" height="25" viewBox="0 0 25 25" fill="none" xmlns="http://www.w3.org/2000/svg">
<path fill-rule="evenodd" clip-rule="evenodd" d="M12.5 25C19.5833 25 25 19.5833 25 12.5C25 5.41667 19.5833 0 12.5 0C5.41667 0 0 5.41667 0 12.5C0 19.5833 5.41667 25 12.5 25Z" fill="#5271FF" fill-opacity="0.2"/>
<path fill-rule="evenodd" clip-rule="evenodd" d="M12.5 22.0832C17.9167 22.0832 22.0833 17.9165 22.0833 12.4998C22.0833 7.08317 17.9167 2.9165 12.5 2.9165C7.08332 2.9165 2.91666 7.08317 2.91666 12.4998C2.91666 17.9165 7.08332 22.0832 12.5 22.0832Z" fill="#5271FF" fill-opacity="0.2"/>
<path fill-rule="evenodd" clip-rule="evenodd" d="M12.5 17.9168C15.4167 17.9168 17.9167 15.4168 17.9167 12.5002C17.9167 9.5835 15.4167 7.0835 12.5 7.0835C9.58334 7.0835 7.08334 9.5835 7.08334 12.5002C7.08334 15.4168 9.58334 17.9168 12.5 17.9168Z" fill="#5271FF"/>
</svg>
