<svg width="15" height="8" viewBox="0 0 15 8" fill="none" xmlns="http://www.w3.org/2000/svg">
<path d="M14.8281 3.21805C14.828 3.21788 14.8278 3.21767 14.8276 3.2175L11.766 0.170623C11.5366 -0.0576288 11.1656 -0.0567794 10.9373 0.172615C10.709 0.40198 10.7099 0.772966 10.9393 1.00125L12.9949 3.04687H0.585937C0.262324 3.04687 0 3.3092 0 3.63281C0 3.95642 0.262324 4.21875 0.585937 4.21875H12.9948L10.9393 6.26437C10.7099 6.49265 10.7091 6.86364 10.9373 7.093C11.1656 7.32243 11.5367 7.32322 11.766 7.09499L14.8276 4.04812C14.8278 4.04794 14.828 4.04774 14.8282 4.04756C15.0576 3.81852 15.0569 3.44633 14.8281 3.21805Z" fill="#8B8B8F"/>
</svg>
