<svg width="24" height="24" viewBox="0 0 24 24" fill="none" xmlns="http://www.w3.org/2000/svg">
<path fill-rule="evenodd" clip-rule="evenodd" d="M1.5 8.36L8.36 1.5C10.36 -0.5 13.64 -0.5 15.64 1.5L22.5 8.36C24.5 10.36 24.5 13.64 22.5 15.64L15.64 22.5C13.64 24.5 10.36 24.5 8.36 22.5L1.5 15.64C-0.5 13.64 -0.5 10.36 1.5 8.36Z" fill="#CCCCCC"/>
<path d="M6.7 13C6.15 13 5.7 12.55 5.7 12C5.7 11.45 6.15 11 6.7 11C14.72 11 9.28 11 17.3 11C17.85 11 18.3 11.45 18.3 12C18.3 12.55 17.85 13 17.3 13C9.28 13 14.72 13 6.7 13Z" fill="white"/>
</svg>
