<svg width="45" height="39" viewBox="0 0 45 39" fill="none" xmlns="http://www.w3.org/2000/svg">
<path d="M43.4619 0H1.53809C0.690029 0 0 0.690029 0 1.53809V6.95171C0 7.80398 1.31836 7.80398 1.31836 6.95171V1.53809C1.31836 1.41697 1.41688 1.31836 1.53809 1.31836H43.4619C43.5831 1.31836 43.6816 1.41697 43.6816 1.53809V33.6831C43.6816 33.8042 43.5831 33.9028 43.4619 33.9028H35.0146V32.5312H41.6445C42.0086 32.5312 42.3037 32.2361 42.3037 31.872V24.9692C42.3037 24.1169 40.9853 24.1169 40.9853 24.9692V31.2129H35.0146V28.2881C35.036 28.29 35.0576 28.2918 35.0779 28.2937C35.6251 28.3417 36.3058 28.4016 36.7773 27.9292C37.2483 27.4573 37.1887 26.776 37.1408 26.2285C37.0892 25.6409 37.1448 25.4801 37.5964 25.1047C38.7591 24.1379 38.7807 23.1028 37.5964 22.1182C37.1448 21.7426 37.0895 21.5819 37.1408 20.9943C37.2698 19.5197 36.5811 18.7971 35.0779 18.9292C34.4913 18.9807 34.3321 18.925 33.958 18.4733C32.9927 17.3079 31.9569 17.2863 30.9736 18.4733C30.5996 18.9249 30.4405 18.9809 29.8538 18.9292C28.3782 18.7995 27.6592 19.4921 27.7908 20.9943C27.8422 21.582 27.7869 21.7426 27.3353 22.1182C26.1726 23.0849 26.1511 24.1203 27.3353 25.1047C27.7869 25.4804 27.8422 25.641 27.7908 26.2287C27.6524 27.808 28.4067 28.4186 29.9169 28.2882V31.213H4.01476V4.00825H40.9853V21.4536C40.9853 22.3058 42.3037 22.3058 42.3037 21.4536V3.34907C42.3037 2.98503 42.0086 2.68989 41.6445 2.68989H3.35558C2.99145 2.68989 2.6964 2.98503 2.6964 3.34907V31.872C2.6964 32.2361 2.99145 32.5312 3.35558 32.5312H29.9169V33.9028H1.53809C1.41688 33.9028 1.31836 33.8042 1.31836 33.6831V10.2915C1.31836 9.43919 0 9.43919 0 10.2915V33.6831C0 34.5312 0.690029 35.2212 1.53809 35.2212H29.9169V38.2051C30.0108 38.7468 30.3232 38.9461 30.8541 38.8027L32.4657 38.0531L34.0774 38.8027C34.4762 38.9882 35.0146 38.6951 35.0146 38.2051V35.2212H43.4619C44.31 35.2212 45 34.5312 45 33.6831V1.53809C45 0.689941 44.31 0 43.4619 0ZM29.7382 26.9802C29.0784 27.0383 29.0464 27.003 29.104 26.3435C29.1926 25.3312 28.9598 24.7406 28.178 24.0907C27.6431 23.6459 27.6432 23.5766 28.178 23.1318C28.9598 22.4819 29.1927 21.8913 29.104 20.8791C29.0464 20.2195 29.0784 20.1845 29.7382 20.2423C30.7506 20.3315 31.3404 20.0969 31.9888 19.3141C32.4318 18.7793 32.4996 18.7793 32.9426 19.3141C33.5912 20.0969 34.1808 20.3311 35.1932 20.2423C35.8531 20.1842 35.885 20.2195 35.8274 20.879C35.7388 21.8913 35.9716 22.4818 36.7534 23.1317C37.2882 23.5765 37.2885 23.646 36.7533 24.0907C35.9715 24.7407 35.7386 25.331 35.8273 26.3433C35.8852 27.0028 35.853 27.0382 35.1933 26.9802C34.7792 26.9438 34.3095 26.9025 33.8961 27.0743C33.4959 27.2405 33.2146 27.58 32.9425 27.9084C32.8144 28.0631 32.5805 28.3455 32.4656 28.3961C32.3507 28.3455 32.1168 28.0631 31.9887 27.9084C31.7167 27.5801 31.4354 27.2405 31.0351 27.0743C30.6085 26.9442 30.1762 26.9128 29.7382 26.9802ZM32.7437 36.7285C32.5674 36.6465 32.3641 36.6465 32.1877 36.7285L31.2353 37.1716V29.055C31.5481 29.3989 31.934 29.7182 32.4657 29.7182C32.9975 29.7182 33.3834 29.399 33.6962 29.0551V37.1716L32.7437 36.7285Z" fill="#262626"/>
<path d="M8.54845 9.526H31.2723C32.1246 9.526 32.1246 8.20764 31.2723 8.20764H8.54845C7.69609 8.20764 7.69609 9.526 8.54845 9.526Z" fill="#262626"/>
<path d="M37.1106 12.8765C37.1106 12.5124 36.8155 12.2173 36.4514 12.2173H8.54839C7.69611 12.2173 7.69611 13.5356 8.54839 13.5356H36.4515C36.8155 13.5356 37.1106 13.2405 37.1106 12.8765Z" fill="#262626"/>
<path d="M25.0608 16.8855C25.0608 16.5215 24.7657 16.2263 24.4016 16.2263H8.54839C7.69611 16.2263 7.69611 17.5447 8.54839 17.5447H24.4016C24.7656 17.5447 25.0608 17.2495 25.0608 16.8855Z" fill="#262626"/>
<path d="M16.4047 26.074C16.0453 26.0746 15.6859 26.075 15.3265 26.0753C14.635 26.0758 14.2544 25.8915 14.1131 25.1583C13.9842 24.489 13.0188 24.5743 12.8419 25.1583C12.7636 25.417 12.3681 26.1575 12.0226 26.0969C11.8395 26.0648 11.7595 25.7824 11.6918 25.6362C11.5601 25.3515 11.4641 25.0498 11.3819 24.7474C11.035 23.47 10.9657 22.1363 10.7486 20.8348C10.6227 20.0801 9.47235 20.2935 9.4538 21.0101C9.39474 23.2927 9.02155 25.544 8.20892 27.6835C7.90737 28.4774 9.18134 28.8207 9.48017 28.034C9.7935 27.2091 10.0422 26.3644 10.2352 25.5071C10.3388 25.8194 10.4623 26.1258 10.613 26.4239C10.998 27.1847 11.7831 27.6347 12.6231 27.2964C12.9229 27.1756 13.1964 26.9645 13.4293 26.7076C14.0529 27.4268 14.9808 27.3942 15.8464 27.3931C17.1514 27.3915 18.4563 27.3884 19.7613 27.3848C20.6095 27.3824 20.6111 26.064 19.7613 26.0664C18.6424 26.0696 17.5236 26.0721 16.4047 26.074Z" fill="#262626"/>
<path d="M32.4658 26.186C33.8855 26.186 35.0405 25.031 35.0405 23.6113C35.0405 22.1916 33.8855 21.0366 32.4658 21.0366C31.0462 21.0366 29.8911 22.1917 29.8911 23.6113C29.8911 25.0309 31.0461 26.186 32.4658 26.186ZM32.4658 22.355C33.1585 22.355 33.7222 22.9186 33.7222 23.6113C33.7222 24.304 33.1585 24.8676 32.4658 24.8676C31.773 24.8676 31.2095 24.304 31.2095 23.6113C31.2095 22.9185 31.773 22.355 32.4658 22.355Z" fill="#262626"/>
</svg>
