<svg width="45" height="39" viewBox="0 0 45 39" fill="none" xmlns="http://www.w3.org/2000/svg">
<path d="M42.9547 21.4774C42.341 21.4774 41.932 21.8865 41.932 22.5001V35.7956C41.932 36.4092 41.5229 36.8183 40.9093 36.8183H4.09103C3.47738 36.8183 3.06834 36.4092 3.06834 35.7956V22.5001C3.06834 21.8865 2.65921 21.4774 2.04564 21.4774C1.43208 21.4774 1.02295 21.8865 1.02295 22.5001V35.7956C1.02295 37.5342 2.35247 38.8638 4.09112 38.8638H40.9093C42.6479 38.8638 43.9775 37.5342 43.9775 35.7956V22.5001C43.9775 21.8865 43.5683 21.4774 42.9547 21.4774Z" fill="#8C52FF"/>
<path d="M41.9318 7.15918H3.06817C1.32952 7.15918 0 8.4887 0 10.2274V16.7728C0 18.2046 1.0227 19.4319 2.3523 19.7387L18.4091 23.3182V26.5909C18.4091 27.2046 18.8183 27.6136 19.4318 27.6136H25.5682C26.1818 27.6136 26.5909 27.2045 26.5909 26.5909V23.3182L42.6477 19.7387C43.9773 19.4319 45 18.2046 45 16.7727V10.2273C45 8.4887 43.6705 7.15918 41.9318 7.15918ZM24.5455 25.5682H20.4546V21.4773H24.5455V25.5682ZM42.9545 16.7727C42.9545 17.2841 42.6477 17.6932 42.1363 17.7954L26.5909 21.2727V20.4546C26.5909 19.8409 26.1817 19.4319 25.5682 19.4319H19.4318C18.8182 19.4319 18.4091 19.841 18.4091 20.4546V21.2727L2.86365 17.7955C2.3523 17.6932 2.04548 17.2842 2.04548 16.7728V10.2274C2.04548 9.6137 2.45461 9.20466 3.06817 9.20466H41.9318C42.5455 9.20466 42.9545 9.61379 42.9545 10.2274V16.7727Z" fill="#8C52FF"/>
<path d="M27.6138 0H17.3865C15.6479 0 14.3184 1.32952 14.3184 3.06817V4.09087C14.3184 4.70452 14.7275 5.11356 15.3411 5.11356C15.9546 5.11356 16.3638 4.70443 16.3638 4.09087V3.06817C16.3638 2.45452 16.7729 2.04548 17.3864 2.04548H27.6138C28.2274 2.04548 28.6364 2.45461 28.6364 3.06817V4.09087C28.6364 4.70452 29.0456 5.11356 29.6591 5.11356C30.2728 5.11356 30.6818 4.70443 30.6818 4.09087V3.06817C30.682 1.32952 29.3525 0 27.6138 0Z" fill="#8C52FF"/>
</svg>
