<svg width="25" height="25" viewBox="0 0 25 25" fill="none" xmlns="http://www.w3.org/2000/svg">
<path fill-rule="evenodd" clip-rule="evenodd" d="M12.6147 25C19.4954 25 25 19.4954 25 12.6147C25 5.50459 19.4954 0 12.6147 0C5.50459 0 0 5.50459 0 12.6147C0 19.4954 5.50459 25 12.6147 25Z" fill="#CB6CE6" fill-opacity="0.2"/>
<path fill-rule="evenodd" clip-rule="evenodd" d="M12.6163 22.2479C17.8915 22.2479 22.2493 17.8901 22.2493 12.6148C22.2493 7.11024 17.8915 2.75244 12.6163 2.75244C7.1117 2.75244 2.75391 7.11024 2.75391 12.6148C2.75391 17.8901 7.1117 22.2479 12.6163 22.2479Z" fill="#CB6CE6" fill-opacity="0.2"/>
<path fill-rule="evenodd" clip-rule="evenodd" d="M12.6147 17.8897C15.5963 17.8897 17.8899 15.5961 17.8899 12.6145C17.8899 9.40344 15.5963 7.10986 12.6147 7.10986C9.40369 7.10986 7.11011 9.40344 7.11011 12.6145C7.11011 15.5961 9.40369 17.8897 12.6147 17.8897Z" fill="#CB6CE6"/>
</svg>
