<svg width="40" height="40" viewBox="0 0 40 40" fill="none" xmlns="http://www.w3.org/2000/svg">
<rect width="40" height="40" rx="20" fill="#22222B"/>
<path fill-rule="evenodd" clip-rule="evenodd" d="M16.4651 12H23.5349C25.9907 12 28 14.0093 28 16.4651V23.5349C28 25.9907 25.9907 28 23.5349 28H20.7814H20.9302C20.9302 28 20.9302 23.014 20.9302 22.5674C20.9302 22.4186 21.0047 22.3442 21.1535 22.3442H22.6419H22.8651H23.014C23.1628 22.3442 23.2372 22.1953 23.2372 22.0465V21.6744V20.5581V20.4093C23.2372 20.2605 23.1628 20.186 23.014 20.186H22.6419H21.1535C21.0047 20.186 20.9302 20.0372 20.9302 19.8884V18.6233C20.9302 17.8047 21.3023 17.507 22.1209 17.507H22.7163H23.0884C23.2372 17.507 23.3116 17.3581 23.3116 17.2093V17.1349V16.8372V16.093V15.8698V15.7209C23.3116 15.5721 23.2372 15.4977 23.0884 15.4977H22.7163H21.6C19.7395 15.4977 18.6233 16.6884 18.6233 18.4V19.8884C18.6233 20.0372 18.4744 20.186 18.3256 20.186H17.2093H16.986H16.8372C16.6884 20.186 16.5395 20.2605 16.5395 20.4093V20.5581V21.8977V22.0465C16.5395 22.1953 16.6884 22.3442 16.8372 22.3442H16.986H18.3256C18.4744 22.3442 18.6233 22.4186 18.6233 22.5674C18.6233 23.014 18.6233 28 18.6233 28H18.8465H16.4651C14.0093 28 12 25.9907 12 23.5349V16.4651C12 14.0093 14.0093 12 16.4651 12V12Z" fill="#262626"/>
</svg>
