<svg width="24" height="24" viewBox="0 0 24 24" fill="none" xmlns="http://www.w3.org/2000/svg">
<path fill-rule="evenodd" clip-rule="evenodd" d="M1.5 8.36L8.36 1.5C10.36 -0.5 13.64 -0.5 15.64 1.5L22.5 8.36C24.5 10.36 24.5 13.64 22.5 15.64L15.64 22.5C13.64 24.5 10.36 24.5 8.36 22.5L1.5 15.64C-0.5 13.64 -0.5 10.36 1.5 8.36Z" fill="#5271FF"/>
<path d="M7.10012 13.2299C6.71012 12.8399 6.71012 12.2099 7.10012 11.8199C7.48012 11.4299 8.12012 11.4299 8.51012 11.8099L10.7301 14.0399L16.1601 8.60988C16.5501 8.21988 17.1801 8.21988 17.5701 8.60988C17.9601 8.99988 17.9601 9.63988 17.5701 10.0299L11.4401 16.1599C11.0501 16.5399 10.4201 16.5399 10.0301 16.1599L7.10012 13.2299Z" fill="white"/>
</svg>
