<svg width="24" height="24" viewBox="0 0 24 24" fill="none" xmlns="http://www.w3.org/2000/svg">
<path fill-rule="evenodd" clip-rule="evenodd" d="M1.5 8.36L8.36 1.5C10.36 -0.5 13.64 -0.5 15.64 1.5L22.5 8.36C24.5 10.36 24.5 13.64 22.5 15.64L15.64 22.5C13.64 24.5 10.36 24.5 8.36 22.5L1.5 15.64C-0.5 13.64 -0.5 10.36 1.5 8.36Z" fill="#CB6CE6"/>
<path d="M7.10109 13.2299C6.71109 12.8399 6.71109 12.2099 7.10109 11.8199C7.48109 11.4299 8.12109 11.4299 8.51109 11.8099L10.7311 14.0399L16.1611 8.60988C16.5511 8.21988 17.1811 8.21988 17.5711 8.60988C17.9611 8.99988 17.9611 9.63988 17.5711 10.0299L11.4411 16.1599C11.0511 16.5399 10.4211 16.5399 10.0311 16.1599L7.10109 13.2299Z" fill="white"/>
</svg>
