<svg width="40" height="40" viewBox="0 0 40 40" fill="none" xmlns="http://www.w3.org/2000/svg">
<rect width="40" height="40" rx="20" fill="#22222B"/>
<path fill-rule="evenodd" clip-rule="evenodd" d="M16.4841 12H23.5159C25.9618 12 28 14.0382 28 16.4841V23.5159C28 25.9618 25.9618 28 23.5159 28H16.4841C14.0382 28 12 25.9618 12 23.5159V16.4841C12 14.0382 14.0382 12 16.4841 12V12ZM16.8917 13.9363C15.2611 13.9363 13.9363 15.2611 13.9363 16.8917V23.1083C13.9363 24.7389 15.2611 25.9618 16.8917 25.9618H23.1083C24.7389 25.9618 25.9618 24.7389 25.9618 23.1083V16.8917C25.9618 15.2611 24.7389 13.9363 23.1083 13.9363H16.8917ZM22.5987 16.586C22.5987 16.0764 23.0064 15.7707 23.414 15.7707C23.8217 15.7707 24.2293 16.0764 24.2293 16.586C24.2293 16.9936 23.8217 17.2994 23.414 17.2994C23.0064 17.2994 22.5987 16.9936 22.5987 16.586ZM17.0955 19.949C17.0955 18.4204 18.4204 17.0955 19.949 17.0955C21.5796 17.0955 22.8025 18.4204 22.8025 19.949C22.8025 21.5796 21.5796 22.8025 19.949 22.8025C18.4204 22.8025 17.0955 21.5796 17.0955 19.949Z" fill="#262626"/>
</svg>
