<svg width="30" height="30" viewBox="0 0 30 30" fill="none" xmlns="http://www.w3.org/2000/svg">
<path fill-rule="evenodd" clip-rule="evenodd" d="M30 23.4288V6.57119C30 2.94237 27.078 0 23.4729 0H6.52712C2.92203 0 0 2.94237 0 6.57119V23.4288C0 27.0576 2.92203 30 6.52712 30H23.4729C27.078 30 30 27.0576 30 23.4288Z" fill="url(#paint0_radial)"/>
<path d="M19.5152 26.2983H10.3948C6.90502 26.2983 4.05078 23.4373 4.05078 19.9407V10.2017C4.05078 6.70509 6.90502 3.84407 10.3948 3.84407H19.5152C23.005 3.84407 25.861 6.70509 25.861 10.2017V19.9407C25.861 23.4373 23.005 26.2983 19.5152 26.2983ZM19.5152 24.6187C20.7559 24.6187 21.9254 24.1288 22.8101 23.2424C23.6965 22.3559 24.183 21.1831 24.183 19.9407V10.2017C24.183 8.95933 23.6965 7.78644 22.8101 6.9C21.9254 6.01187 20.7559 5.52373 19.5152 5.52373H10.3948C9.15587 5.52373 7.98468 6.01187 7.09993 6.9C6.21349 7.78644 5.72705 8.95933 5.72705 10.2017V19.9407C5.72705 21.1831 6.21349 22.3559 7.09993 23.2424C7.98468 24.1288 9.15587 24.6187 10.3948 24.6187H19.5152Z" fill="#FEFEFE"/>
<path d="M20.9948 14.9848C20.9948 18.3085 18.3049 21.0017 14.9897 21.0017C11.671 21.0017 8.98291 18.3085 8.98291 14.9848C8.98291 11.661 11.671 8.9661 14.9897 8.9661C18.3049 8.9661 20.9948 11.661 20.9948 14.9848ZM14.9592 11.0475C12.788 11.0475 11.027 12.8119 11.027 14.9898C11.027 17.1661 12.788 18.9305 14.9592 18.9305C17.1321 18.9305 18.8931 17.1661 18.8931 14.9898C18.8931 12.8119 17.1321 11.0475 14.9592 11.0475Z" fill="#FEFEFE"/>
<path d="M22.5135 8.87288C22.5135 9.65932 21.8762 10.2966 21.0915 10.2966C20.305 10.2966 19.6694 9.65932 19.6694 8.87288C19.6694 8.08474 20.305 7.44746 21.0915 7.44746C21.8762 7.44746 22.5135 8.08474 22.5135 8.87288Z" fill="#FEFEFE"/>
<defs>
<radialGradient id="paint0_radial" cx="0" cy="0" r="1" gradientUnits="userSpaceOnUse" gradientTransform="translate(9.30819 30.8411) rotate(-77.7963) scale(38.7998)">
<stop stop-color="#ECCE73"/>
<stop offset="0.219608" stop-color="#EF832F"/>
<stop offset="0.411765" stop-color="#F33355"/>
<stop offset="0.568627" stop-color="#ED3188"/>
<stop offset="0.74902" stop-color="#9939DF"/>
<stop offset="1" stop-color="#2A4FF2"/>
</radialGradient>
</defs>
</svg>
