<svg width="50" height="36" viewBox="0 0 50 36" fill="none" xmlns="http://www.w3.org/2000/svg">
<path d="M49.0352 7.87036L38.4804 4.30326C38.0973 4.17434 37.6815 4.37943 37.5519 4.76266C37.4224 5.14588 37.6281 5.56163 38.0113 5.69113L48.4653 9.22425L43.5444 11.6233C43.3401 11.4855 43.1108 11.3797 42.8622 11.3148L28.102 7.45725C27.6329 5.04354 24.661 4.03049 22.8356 5.74826C22.2038 6.34283 21.8415 7.18126 21.8415 8.04859V8.06461C21.8467 9.08586 22.6919 9.91667 23.7259 9.91667H26.2743C26.9323 9.91667 27.5905 9.5733 27.9318 8.92687L41.6966 12.5243C37.3473 14.6448 27.5836 19.4049 26.339 20.0118C25.4605 20.44 24.4816 20.4119 23.661 20.0118L1.53455 9.22425L24.0216 1.62439C24.6524 1.41109 25.3475 1.41109 25.9783 1.62439L34.7578 4.59165C35.1411 4.72105 35.5567 4.51567 35.6863 4.13225C35.8158 3.74902 35.6101 3.33328 35.2269 3.20378L26.4473 0.236513C25.5139 -0.0788377 24.486 -0.0788377 23.5525 0.236513L0.96469 7.87036C-0.235381 8.27625 -0.343688 9.93836 0.796907 10.4943L12.3892 16.146C11.7515 19.178 10.7778 22.4421 9.7195 25.3394C9.28627 26.5242 9.65954 27.8422 10.6481 28.6192C13.9935 31.2486 17.9463 33.2798 21.9976 34.5854C23.9014 35.1988 26.0243 35.2225 28.0019 34.5854C32.0545 33.2792 36.0077 31.2472 39.3513 28.6192C40.3435 27.8392 40.7117 26.5206 40.2799 25.3394C39.244 22.5064 38.257 19.2209 37.6103 16.1463L43.0632 13.4879V24.512C42.1312 24.5834 41.3942 25.3628 41.3942 26.3128V28.4473C41.3942 28.7644 41.5319 29.0492 41.7497 29.2477L41.4776 33.3614C41.4245 34.1651 42.0635 34.8481 42.8692 34.8481H44.7222C45.5276 34.8481 46.1669 34.1654 46.1137 33.3614L45.8418 29.2477C46.0595 29.0492 46.1972 28.7645 46.1972 28.4473V26.3127C46.1972 25.3627 45.4602 24.5833 44.5282 24.5119V13.472C44.5282 13.2469 44.4927 13.0288 44.4295 12.8217L49.203 10.4944C50.3421 9.93904 50.2372 8.27683 49.0352 7.87036ZM26.2743 8.45174H23.7259C23.4996 8.45174 23.3075 8.27107 23.3064 8.0609V8.04859C23.3064 7.57669 23.4957 7.13868 23.8396 6.81503C24.8944 5.82229 26.623 6.53688 26.6915 7.9647C26.7078 8.30662 26.4877 8.45174 26.2743 8.45174ZM38.0794 23.4564C34.1219 26.5537 28.5058 28.7694 26.5713 29.1381C26.1739 29.2139 25.9132 29.5975 25.989 29.9948C26.0648 30.3923 26.4495 30.653 26.8457 30.5771C28.8692 30.1912 34.4131 28.0367 38.575 24.9221C38.6774 25.2141 38.7959 25.5464 38.904 25.8422C39.1189 26.4302 38.9348 27.0831 38.4461 27.4674C34.5015 30.5675 30.3449 32.291 27.5526 33.1908C25.8847 33.7284 24.0732 33.7152 22.4469 33.1908C19.6546 32.2909 15.498 30.5675 11.5534 27.4674C11.0648 27.0833 10.8804 26.4304 11.0956 25.8421C11.0999 25.8304 11.1041 25.8185 11.1084 25.8068C11.2148 25.5152 11.3328 25.1842 11.4245 24.922C15.488 27.962 21.0168 30.1698 23.1531 30.5774C23.551 30.653 23.9341 30.3925 24.0099 29.9952C24.0857 29.5978 23.825 29.2142 23.4277 29.1384C21.6015 28.7903 15.9661 26.6215 11.9201 23.4563C12.515 21.6372 13.2043 19.2994 13.7461 16.8076L23.0189 21.3284C24.2536 21.9304 25.6982 21.9539 26.9811 21.3284L36.2533 16.8078C36.7951 19.2995 37.4844 21.6373 38.0794 23.4564ZM42.9442 33.3831L43.199 29.5314H44.3923L44.647 33.3831H42.9442ZM44.7322 26.3126V28.0664H42.8592V26.3126C42.8592 26.1267 43.0161 25.9697 43.202 25.9697H44.3892C44.5751 25.9698 44.7322 26.1267 44.7322 26.3126Z" fill="#262626"/>
</svg>
