<svg width="29" height="39" viewBox="0 0 29 39" fill="none" xmlns="http://www.w3.org/2000/svg">
<path d="M14.5003 38.12C14.3303 38.12 14.1503 38.09 13.9903 38.01C6.63027 34.42 0.530273 30.55 0.530273 19.5V6.70001C0.530273 6.21001 0.840272 5.77001 1.30027 5.61001L14.1003 0.950007C14.3603 0.860007 14.6403 0.860007 14.9003 0.950007L27.7003 5.61001C28.1603 5.77001 28.4703 6.21001 28.4703 6.70001V19.5C28.4703 30.55 22.3703 34.42 15.0103 38.01C14.8503 38.09 14.6703 38.12 14.5003 38.12ZM2.86027 7.51001V19.5C2.86027 28.18 6.78027 31.83 14.5003 35.66C22.2203 31.83 26.1403 28.18 26.1403 19.5V7.51001L14.5003 3.28001L2.86027 7.51001Z" fill="white"/>
</svg>
