<svg width="29" height="39" viewBox="0 0 29 39" fill="none" xmlns="http://www.w3.org/2000/svg">
<path d="M14.5 38.12C14.33 38.12 14.15 38.09 13.99 38.01C6.63003 34.42 0.530029 30.55 0.530029 19.5V6.70001C0.530029 6.21001 0.840028 5.77001 1.30003 5.61001L14.1 0.950007C14.36 0.860007 14.64 0.860007 14.9 0.950007L27.7 5.61001C28.16 5.77001 28.47 6.21001 28.47 6.70001V19.5C28.47 30.55 22.37 34.42 15.01 38.01C14.85 38.09 14.67 38.12 14.5 38.12ZM2.86003 7.51001V19.5C2.86003 28.18 6.78003 31.83 14.5 35.66C22.22 31.83 26.14 28.18 26.14 19.5V7.51001L14.5 3.28001L2.86003 7.51001Z" fill="white"/>
<path d="M13.68 24.16L8.20001 18.68L9.84001 17.03L13.68 20.87L21 13.54L22.65 15.19L13.68 24.16Z" fill="white"/>
</svg>
