<svg width="40" height="40" viewBox="0 0 40 40" fill="none" xmlns="http://www.w3.org/2000/svg">
<path d="M5.82 23.99H1.09C0.850002 23.99 0.630001 24.09 0.480001 24.24C0.320001 24.4 0.220001 24.62 0.220001 24.86V29.51C0.220001 29.75 0.320001 29.97 0.480001 30.13C0.630001 30.28 0.850002 30.38 1.09 30.38H5.82C5.89 30.38 5.96 30.37 6.02 30.36C6.09 30.34 6.15 30.32 6.21 30.29L10.68 28.05H12.87L12.93 28.26C13.9 31.2 15.65 34.4 17.94 36.68C19.79 38.52 22 39.76 24.42 39.76C27.6 39.76 30.48 37.63 32.67 34.67C35.3 31.11 36.95 26.38 36.99 22.68C37 22.25 37.68 19.88 37.83 19.29C39.2 13.84 39.32 13.39 39.32 11.89C39.32 10.61 39.1 9.36003 38.68 8.17003C38.27 6.99003 37.65 5.87003 36.86 4.88003L36.82 4.83003L36.81 4.77003C36.49 3.58003 35.78 2.54003 34.83 1.81003C33.9 1.09003 32.74 0.660034 31.47 0.660034H20.82C17.73 0.660034 14.92 1.92004 12.89 3.95004C10.86 5.98003 9.6 8.79003 9.6 11.89C9.6 13.39 9.71 13.84 11.07 19.26C11.22 19.84 11.92 22.29 11.92 22.68C11.93 23.19 11.97 23.73 12.03 24.27C12.09 24.82 12.19 25.39 12.31 25.96L12.38 26.32H10.68L6.21 24.08C6.15 24.05 6.09 24.03 6.02 24.01C5.96 24 5.89 23.99 5.82 23.99ZM22.27 21.94C21.97 21.64 21.48 21.64 21.18 21.94C20.37 22.75 19.05 22.75 18.24 21.94C17.94 21.64 17.44 21.64 17.14 21.94C16.84 22.25 16.84 22.74 17.14 23.04C17.85 23.75 18.78 24.1 19.71 24.1C20.64 24.1 21.57 23.75 22.27 23.04C22.58 22.74 22.58 22.25 22.27 21.94ZM29.1 24.1C30.03 24.1 30.95 23.75 31.66 23.04C31.96 22.74 31.96 22.25 31.66 21.94C31.36 21.64 30.87 21.64 30.57 21.94C29.75 22.75 28.44 22.75 27.63 21.94C27.32 21.64 26.83 21.64 26.53 21.94C26.23 22.25 26.23 22.74 26.53 23.04C27.24 23.75 28.17 24.1 29.1 24.1ZM26.82 30.74L26.19 30.27C25.66 29.87 24.99 29.76 24.37 29.95C23.76 29.76 23.09 29.87 22.55 30.27L21.92 30.74C21.73 30.89 21.6 31.11 21.58 31.36C21.56 31.6 21.64 31.84 21.81 32.02L22.05 32.28C22.64 32.93 23.49 33.3 24.37 33.3C25.26 33.3 26.1 32.93 26.7 32.28L26.94 32.02C27.11 31.84 27.19 31.6 27.17 31.36C27.14 31.11 27.02 30.89 26.82 30.74ZM20.82 2.41003H31.47C32.51 2.41003 33.46 2.83003 34.14 3.51003C34.82 4.20003 35.25 5.14003 35.25 6.19003C35.25 7.22003 34.82 8.17003 34.14 8.85003C33.46 9.54003 32.51 9.96003 31.47 9.96003H24.42C21.9 9.96003 19.55 10.71 17.59 12.01C15.57 13.34 13.95 15.25 12.97 17.51L12.63 18.29L12.42 17.46C11.92 15.46 11.65 14.36 11.51 13.62C11.36 12.85 11.34 12.47 11.34 11.89C11.34 9.27003 12.41 6.90003 14.12 5.19003C15.84 3.47003 18.21 2.41003 20.82 2.41003ZM34.52 10.79C35.34 10.24 36.02 9.47003 36.45 8.57003L36.75 7.95004L36.98 8.59003C37.18 9.12003 37.32 9.66004 37.42 10.22C37.52 10.77 37.57 11.33 37.57 11.89C37.57 12.47 37.56 12.86 37.41 13.62C37.26 14.37 36.99 15.47 36.49 17.48L36.29 18.3L35.94 17.53C35.58 16.71 35.13 15.92 34.6 15.19C34.08 14.47 33.47 13.79 32.79 13.19C32.61 13.02 32.41 12.85 32.2 12.69C32 12.53 31.8 12.38 31.58 12.23L30.89 11.74L31.73 11.7C32.76 11.65 33.71 11.32 34.52 10.79ZM31.56 33.23C29.64 35.99 27.13 38.02 24.42 38.02C22.46 38.02 20.66 36.95 19.13 35.41C17.2 33.47 15.69 30.75 14.84 28.45L14.69 28.05H17.04C17.28 28.05 17.5 27.96 17.65 27.8C17.81 27.65 17.9 27.43 17.9 27.19C17.9 26.94 17.81 26.72 17.65 26.57C17.49 26.41 17.28 26.32 17.04 26.32H14.17L14.12 26.09C13.97 25.47 13.86 24.85 13.78 24.26C13.71 23.66 13.67 23.08 13.67 22.54C13.67 19.55 14.87 16.84 16.82 14.88C18.77 12.92 21.46 11.71 24.42 11.71C27.12 11.71 29.65 12.76 31.59 14.48C33.52 16.2 34.86 18.59 35.17 21.27L35.23 21.91L35.25 22.54C35.25 25.72 33.8 29.99 31.56 33.23ZM5.55 28.64H1.96V25.73H5.61L8.52 27.19L5.62 28.64H5.55Z" fill="white"/>
</svg>
