<svg width="30" height="39" viewBox="0 0 30 39" fill="none" xmlns="http://www.w3.org/2000/svg">
<path d="M2.31 21.9L1.46 18.52C0.109999 13.15 0 12.7 0 11.2C0 8.11001 1.25 5.32001 3.28 3.29001C5.3 1.27001 8.1 0.0100098 11.18 0.0100098H21.8C23.06 0.0100098 24.22 0.440009 25.15 1.15001C26.1 1.88001 26.81 2.92001 27.12 4.11001L27.14 4.17001L27.18 4.22001C27.97 5.20001 28.58 6.32001 28.99 7.50001C29.41 8.68001 29.62 9.93001 29.62 11.2C29.62 12.7 29.51 13.15 28.15 18.55C28.01 19.14 27.3 21.56 27.3 21.97C27.26 25.65 25.62 30.37 23 33.91C20.81 36.86 17.95 38.99 14.77 38.99C11.56 38.99 8.73 36.88 6.58 33.96C3.96 30.4 2.35 25.63 2.31 21.97V21.9ZM19.47 20.78C18.54 20.78 17.61 21.13 16.91 21.84C16.61 22.14 16.61 22.63 16.91 22.93C17.21 23.23 17.7 23.23 18 22.93C18.81 22.12 20.13 22.12 20.93 22.93C21.23 23.23 21.72 23.23 22.03 22.93C22.33 22.63 22.33 22.14 22.03 21.84C21.32 21.13 20.39 20.78 19.47 20.78ZM10.11 20.78C9.18 20.78 8.25 21.13 7.55 21.84C7.25 22.14 7.25 22.63 7.55 22.93C7.85 23.23 8.34 23.23 8.64 22.93C9.45 22.12 10.77 22.12 11.57 22.93C11.87 23.23 12.36 23.23 12.67 22.93C12.97 22.63 12.97 22.14 12.67 21.84C11.96 21.13 11.03 20.78 10.11 20.78ZM12.37 30L13 29.53C13.53 29.13 14.2 29.02 14.82 29.21C15.43 29.02 16.1 29.13 16.63 29.53L17.26 30C17.45 30.14 17.58 30.37 17.6 30.61C17.62 30.85 17.54 31.09 17.38 31.27L17.14 31.53C16.54 32.18 15.69 32.55 14.82 32.55C13.94 32.55 13.09 32.18 12.49 31.53L12.26 31.27C12.09 31.09 12.01 30.85 12.03 30.61C12.05 30.37 12.18 30.14 12.37 30ZM21.8 1.75001H11.18C8.58 1.75001 6.22 2.81001 4.51 4.52001C2.8 6.23001 1.73 8.60001 1.73 11.2C1.73 11.78 1.75 12.17 1.9 12.93C2.04 13.67 2.31 14.76 2.81 16.76L3.02 17.58L3.36 16.8C4.33 14.56 5.95 12.65 7.97 11.32C9.92 10.03 12.26 9.28001 14.77 9.28001H21.8C22.84 9.28001 23.78 8.86001 24.46 8.18001C25.14 7.50001 25.57 6.55001 25.57 5.52001C25.57 4.48001 25.14 3.54001 24.46 2.85001C23.78 2.17001 22.84 1.75001 21.8 1.75001ZM26.77 7.90001C26.33 8.79001 25.66 9.56001 24.84 10.11C24.03 10.64 23.08 10.97 22.06 11.01L21.22 11.06L21.91 11.54C22.12 11.69 22.33 11.84 22.53 12C22.72 12.15 22.92 12.32 23.12 12.5C23.8 13.1 24.4 13.78 24.93 14.5C25.45 15.23 25.9 16.01 26.26 16.82L26.6 17.6L26.81 16.78C27.31 14.77 27.58 13.67 27.72 12.93C27.87 12.17 27.89 11.78 27.89 11.2C27.89 10.64 27.83 10.08 27.74 9.54001C27.64 8.98001 27.49 8.44001 27.3 7.92001L27.06 7.28001L26.77 7.90001ZM14.77 37.25C17.47 37.25 19.98 35.23 21.89 32.48C24.12 29.25 25.57 24.99 25.57 21.82L25.55 21.19L25.49 20.56C25.18 17.88 23.85 15.5 21.92 13.78C19.99 12.07 17.46 11.02 14.77 11.02C11.82 11.02 9.14 12.23 7.2 14.19C5.25 16.14 4.05 18.84 4.05 21.82C4.05 24.83 5.47 29.25 7.76 32.57C9.61 35.26 12.04 37.25 14.77 37.25Z" fill="white"/>
</svg>
