<svg width="20" height="20" viewBox="0 0 20 20" fill="none" xmlns="http://www.w3.org/2000/svg">
<path d="M10 0C4.48591 0 0 4.48591 0 10C0 15.5141 4.48591 20 10 20C15.5141 20 20 15.5141 20 10C20 4.48591 15.5141 0 10 0ZM10 17.8142C5.69113 17.8142 2.18579 14.3089 2.18579 10C2.18579 5.69135 5.69113 2.18579 10 2.18579C14.3089 2.18579 17.8142 5.69135 17.8142 10C17.8142 14.3089 14.3089 17.8142 10 17.8142Z" fill="#262626"/>
<path d="M10.8656 10.0111V5.81986C10.8656 5.35188 10.4864 4.97266 10.0186 4.97266C9.55065 4.97266 9.17139 5.35188 9.17139 5.81986V10.2817C9.17139 10.2951 9.17467 10.3076 9.17531 10.3209C9.16417 10.5512 9.24353 10.7851 9.41947 10.9611L12.5747 14.1161C12.9056 14.447 13.442 14.447 13.7727 14.1161C14.1034 13.7851 14.1036 13.2488 13.7727 12.918L10.8656 10.0111Z" fill="#262626"/>
</svg>
