<svg width="45" height="45" viewBox="0 0 45 45" fill="none" xmlns="http://www.w3.org/2000/svg">
<path d="M9.19321 35.3799C7.64414 35.3799 6.38379 36.6401 6.38379 38.1893C6.38379 39.7385 7.64405 40.9987 9.19321 40.9987C10.7424 40.9987 12.0026 39.7385 12.0026 38.1893C12.0026 36.6401 10.7424 35.3799 9.19321 35.3799ZM9.19321 39.2408C8.61331 39.2408 8.1416 38.7691 8.1416 38.1892C8.1416 37.6093 8.61331 37.1376 9.19321 37.1376C9.77311 37.1376 10.2448 37.6093 10.2448 38.1892C10.2448 38.7691 9.77311 39.2408 9.19321 39.2408Z" fill="#262626"/>
<path d="M36.2323 35.3799C34.6832 35.3799 33.4229 36.6401 33.4229 38.1893C33.4229 39.7385 34.6831 40.9987 36.2323 40.9987C37.7814 40.9987 39.0417 39.7385 39.0417 38.1893C39.0417 36.6401 37.7813 35.3799 36.2323 35.3799ZM36.2323 39.2408C35.6524 39.2408 35.1807 38.7691 35.1807 38.1892C35.1807 37.6093 35.6524 37.1376 36.2323 37.1376C36.8122 37.1376 37.2839 37.6093 37.2839 38.1892C37.2839 38.7691 36.8121 39.2408 36.2323 39.2408Z" fill="#262626"/>
<path d="M23.5879 36.4822C23.4038 36.0402 22.8824 35.8247 22.4401 36.0076C21.9973 36.1907 21.7818 36.7119 21.9646 37.1546C22.1472 37.5968 22.6703 37.8141 23.1124 37.6301C23.5556 37.4456 23.7698 36.9259 23.5879 36.4822Z" fill="#262626"/>
<path d="M44.9999 24.9736C44.9999 24.4882 44.6064 24.0947 44.121 24.0947H33.4818C32.9964 24.0947 32.6029 24.4882 32.6029 24.9736C32.6029 25.459 32.9964 25.8525 33.4818 25.8525H43.2421V29.9921C41.8978 29.9346 40.5569 30.236 39.3627 30.8711C37.4066 31.9015 35.2618 32.1641 33.2794 31.0117C31.0028 29.6668 28.0885 29.6531 25.7856 30.9428C23.945 31.9736 21.6792 32.0832 19.8294 31.0084C17.4923 29.6506 14.5039 29.6524 12.2235 31.0085C10.4709 32.0272 8.21351 32.0319 6.44736 31.0438C5.01193 30.2345 3.40609 29.8431 1.75807 30.027V25.8741C2.93491 25.9709 4.08179 26.3904 5.10343 27.1019C7.64407 28.8711 11.117 28.871 13.6577 27.1019C14.7644 26.3312 16.3397 25.8525 17.7686 25.8525H25.6549C26.1403 25.8525 26.5338 25.459 26.5338 24.9736C26.5338 24.4882 26.1403 24.0947 25.6549 24.0947H17.7686C15.9724 24.0947 14.0601 24.6796 12.6532 25.6593C10.7099 27.0125 8.05109 27.0125 6.10784 25.6593C4.63787 24.6358 2.95135 24.0947 1.23064 24.0947H0.879077C0.39366 24.0947 0.00017578 24.4882 0.00017578 24.9736V31.0789C0.00017578 31.0803 0 31.0816 0 31.083V42.5272C0 43.0899 0.556344 43.5211 1.10267 43.3771C2.6004 42.9827 4.16221 43.1941 5.50104 43.9728C7.84824 45.3353 10.7626 45.3352 13.1141 43.9683C14.8634 42.9284 17.1525 42.9302 18.946 43.9726C21.2917 45.336 24.2062 45.336 26.5523 43.9725C28.3399 42.9327 30.6294 42.9316 32.3905 43.9726C34.7158 45.3245 37.6714 45.3251 39.9966 43.9727C41.141 43.3076 42.6605 43.0425 43.9625 43.281C44.4922 43.378 44.9998 42.9524 44.9998 42.4165V30.9752C44.9998 30.9741 45 30.9732 45 30.9721V24.9736H44.9999ZM39.113 42.4529C37.3127 43.5002 35.0753 43.5001 33.2795 42.4561C30.977 41.095 27.9757 41.111 25.6687 42.4529C23.895 43.4837 21.603 43.4837 19.8293 42.4529C17.493 41.0949 14.5046 41.0967 12.2232 42.4529C10.4509 43.4832 8.15866 43.4831 6.38407 42.4529C4.96729 41.629 3.35819 41.2924 1.75771 41.4714V31.8008C3.10437 31.6054 4.40558 31.914 5.58208 32.5737C7.89227 33.8779 10.8159 33.8771 13.1065 32.5284C14.859 31.5098 17.1525 31.5109 18.9503 32.531C21.2829 33.8856 24.1981 33.8531 26.5415 32.5344C28.3336 31.5258 30.604 31.4776 32.3903 32.5284C34.7286 33.8879 37.6599 33.8678 39.9991 32.527C40.9375 31.9827 42.127 31.7074 43.2418 31.757V41.4407C41.8128 41.3905 40.3283 41.7467 39.113 42.4529Z" fill="#262626"/>
<path d="M9.85504 24.8722C10.0799 24.8722 10.3049 24.7863 10.4765 24.6148L17.8842 17.207L19.6483 18.9711C19.987 19.3098 20.5525 19.3098 20.8912 18.9711L24.1171 15.7452C24.6811 16.1915 25.3648 16.4154 26.0489 16.4154C26.847 16.4154 27.6451 16.1116 28.2527 15.504L42.1057 1.6511C42.4626 1.29418 42.4484 0.706632 42.063 0.368079C41.7112 0.0591456 41.1725 0.0984325 40.8414 0.429427L27.0098 14.2611C26.4801 14.791 25.618 14.7911 25.088 14.2611L19.5873 8.76044C19.0566 8.22976 19.0566 7.36932 19.5873 6.83864L24.8382 1.58782C25.1814 1.24461 25.1814 0.688087 24.8382 0.344876C24.495 0.00157766 23.9385 0.00157766 23.5952 0.344876L18.3443 5.59569C17.2419 6.69819 17.1327 8.50828 18.103 9.73154L14.8773 12.9573C14.5341 13.3005 14.5341 13.857 14.8773 14.2002L16.6413 15.9642L9.25264 23.3528C8.92323 23.6822 8.88482 24.2173 9.19059 24.5688C9.36654 24.771 9.61088 24.8722 9.85504 24.8722ZM19.3306 10.9897L22.8586 14.5178L20.2698 17.1067L18.5064 15.3433C18.5062 15.3431 18.5061 15.3429 18.5058 15.3426C18.5055 15.3424 18.5054 15.3423 18.5051 15.342L16.7417 13.5787L19.3306 10.9897Z" fill="#262626"/>
<path d="M25.1972 9.07212C25.5129 9.49215 26.1511 9.54225 26.5243 9.16924L34.1891 1.50432C34.5324 1.1611 34.5324 0.604583 34.1891 0.261282C33.8459 -0.0819298 33.2894 -0.0818419 32.9461 0.261282L31.6127 1.59467L30.5739 0.555803C30.2429 0.224808 29.7041 0.185521 29.3524 0.494456C28.967 0.83301 28.9527 1.42056 29.3096 1.77757L30.3697 2.8377L28.3196 4.88792L27.2808 3.84906C26.9498 3.51806 26.411 3.47886 26.0593 3.78771C25.6739 4.12627 25.6595 4.71373 26.0166 5.07074L27.0767 6.13096L25.2991 7.90854C24.9873 8.22029 24.9322 8.71977 25.1972 9.07212Z" fill="#262626"/>
<path d="M30.3644 24.4871C30.1016 24.0857 29.5421 23.9803 29.1454 24.2437C28.7462 24.5087 28.6389 25.0651 28.9028 25.4627C29.168 25.8622 29.7239 25.9697 30.1219 25.7053C30.5206 25.4405 30.6294 24.8845 30.3644 24.4871Z" fill="#262626"/>
</svg>
