<svg width="80" height="80" viewBox="0 0 80 80" fill="none" xmlns="http://www.w3.org/2000/svg">
<path fill-rule="evenodd" clip-rule="evenodd" d="M40 0C62.09 0 80 17.91 80 40C80 62.09 62.09 80 40 80C17.91 80 0 62.09 0 40C0 17.91 17.91 0 40 0Z" fill="#8C52FF" fill-opacity="0.2"/>
<path d="M40 74.5594C59.087 74.5594 74.56 59.0864 74.56 39.9995C74.56 20.9125 59.087 5.43945 40 5.43945C20.913 5.43945 5.44 20.9125 5.44 39.9995C5.44 59.0864 20.913 74.5594 40 74.5594Z" fill="#8C52FF"/>
<path d="M53.3 48.0599C53.33 47.5999 53.73 47.2599 54.18 47.2899C54.64 47.3199 54.99 47.7199 54.96 48.1699C54.78 50.7499 54.09 53.1599 53.09 55.2999C51.96 57.6999 50.43 59.7499 48.8 61.2499C47.58 62.3799 45.98 63.4299 44.39 64.1899C42.79 64.9599 41.19 65.4399 39.97 65.4399C38.75 65.4399 37.15 64.9599 35.55 64.1899C33.97 63.4299 32.36 62.3799 31.14 61.2599C29.51 59.7599 27.98 57.7099 26.85 55.2999C25.85 53.1599 25.16 50.7399 24.99 48.1699C24.96 47.7199 25.3 47.3199 25.76 47.2899C26.22 47.2599 26.61 47.5999 26.64 48.0599C26.8 50.4199 27.44 52.6399 28.35 54.5999C29.39 56.7999 30.79 58.6699 32.26 60.0399C33.36 61.0499 34.82 61.9999 36.27 62.6999C37.65 63.3599 39 63.7799 39.97 63.7799C40.95 63.7799 42.3 63.3599 43.68 62.6999C45.12 61.9999 46.58 61.0499 47.68 60.0399C49.16 58.6699 50.55 56.7999 51.59 54.5899C52.51 52.6399 53.14 50.4199 53.3 48.0599Z" fill="white"/>
<path d="M23.4 45.7797C23.5 46.2797 23.8 46.7397 24.22 47.0297C24.45 47.1797 24.72 47.2897 25.02 47.3297C25.54 39.9897 31.76 36.8397 37.3 34.0397C38.1 33.6297 38.89 33.2297 39.58 32.8597C44.33 30.3197 46.72 27.8697 47.62 25.5997C48.48 23.4397 47.97 21.3897 46.91 19.5697C46.77 19.3397 46.63 19.1197 46.47 18.9197C45.35 17.4897 43.54 16.5197 41.35 16.2797C39.1 16.0297 36.46 16.5497 33.76 18.1197C33.08 18.5197 32.4 18.9797 31.74 19.4997C28.12 22.3197 25.44 26.1297 23.98 30.6897C22.58 35.0697 22.3 40.1597 23.39 45.7497L23.4 45.7797ZM23.29 48.3997C22.5 47.8597 21.96 47.0297 21.77 46.1097L21.76 46.0697C20.62 40.1997 20.92 34.8297 22.4 30.1897C23.96 25.2997 26.84 21.2197 30.72 18.1897C31.47 17.6097 32.2 17.1097 32.93 16.6897C35.96 14.9197 38.95 14.3397 41.53 14.6297C44.17 14.9197 46.38 16.1197 47.77 17.8997C47.98 18.1697 48.18 18.4497 48.34 18.7397C49.64 20.9597 50.24 23.4897 49.16 26.2097C48.12 28.8197 45.5 31.5697 40.36 34.3197C39.58 34.7397 38.82 35.1297 38.05 35.5197C32.74 38.1997 26.77 41.2297 26.65 48.0797C26.66 48.4897 26.38 48.8497 25.97 48.9297C24.94 49.1297 24.01 48.8897 23.29 48.3997Z" fill="white"/>
<path d="M42.82 32.4195C42.41 32.2295 42.22 31.7395 42.41 31.3195C42.6 30.8995 43.09 30.7195 43.51 30.9095C47.38 32.6895 50.34 34.9795 52.29 37.8295C54.25 40.6995 55.17 44.1295 54.96 48.1595C54.93 48.6195 54.54 48.9695 54.09 48.9395C53.63 48.9195 53.28 48.5295 53.3 48.0695C53.5 44.4195 52.67 41.3295 50.92 38.7595C49.15 36.1695 46.41 34.0695 42.82 32.4195Z" fill="white"/>
<path d="M54.11 46.6002C53.65 46.6002 53.28 46.2202 53.29 45.7602C53.29 45.3102 53.67 44.9402 54.13 44.9502C54.65 44.9502 55.13 44.7102 55.54 44.3402C56.08 43.8402 56.48 43.1302 56.68 42.4602C57.29 40.3802 57.49 38.4202 57.01 36.7802C56.55 35.2002 55.43 33.8802 53.41 32.9902C52.99 32.8102 52.8 32.3202 52.98 31.9002C53.16 31.4802 53.65 31.2902 54.07 31.4702C56.6 32.5702 58.01 34.2702 58.6 36.3102C59.18 38.3002 58.96 40.5702 58.27 42.9302C58 43.8502 57.43 44.8502 56.66 45.5602C55.96 46.1902 55.1 46.6202 54.11 46.6002Z" fill="white"/>
<path d="M56.84 33.8603C56.74 34.3003 56.3 34.5903 55.85 34.4903C55.4 34.3903 55.12 33.9503 55.22 33.5003C55.26 33.3403 55.29 33.1403 55.31 32.9303L55.32 32.9103C55.54 31.0203 54.92 28.9303 53.79 27.2103C52.66 25.5003 51.04 24.1603 49.26 23.7703C49.11 23.7403 48.95 23.7103 48.77 23.6903C48.31 23.6303 47.99 23.2203 48.04 22.7603C48.1 22.3103 48.51 21.9803 48.97 22.0403C49.16 22.0603 49.38 22.1003 49.61 22.1503C51.84 22.6403 53.82 24.2503 55.17 26.3003C56.51 28.3303 57.23 30.8203 56.97 33.1003V33.1303C56.94 33.3503 56.9 33.5903 56.84 33.8603Z" fill="white"/>
<path d="M54.52 45.0898C54.52 44.0298 53.09 44.1698 53.09 44.9998C53.03 45.9698 52.86 46.7698 52.69 47.7198C52.52 48.7498 53.95 48.8698 54.09 48.0398C54.28 47.0098 54.46 46.1498 54.52 45.0898ZM26.87 45.1698C26.71 44.2198 25.44 44.3298 25.44 45.2898C25.5 46.1998 25.66 47.3498 25.9 48.2298C26.03 49.0398 27.47 48.9498 27.29 47.8998C27.08 47.0798 26.93 46.0198 26.87 45.1698ZM28.69 51.7798C28.13 50.8498 26.99 51.7298 27.41 52.4198C27.83 53.2898 28.35 54.1998 28.91 54.9798C29.5 55.7298 30.58 54.9898 30.09 54.1598C29.57 53.4098 29.09 52.5998 28.69 51.7798ZM32.81 57.2298C32.04 56.6098 31.19 57.7598 31.89 58.3298C32.58 58.8798 33.55 59.6498 34.33 60.0398C34.66 60.2298 35.15 60.1198 35.31 59.7898C35.53 59.4298 35.39 58.9998 35.06 58.7998C34.34 58.4398 33.45 57.7398 32.81 57.2298ZM38.81 60.3998C37.76 60.2198 37.67 61.6498 38.48 61.7898C38.98 61.8998 39.46 61.9798 39.97 61.9798C40.52 61.9798 41.14 61.8798 41.67 61.7398C42.66 61.4098 42.09 60.0898 41.29 60.3598C40.88 60.4698 40.4 60.5498 39.97 60.5498C39.55 60.5498 39.22 60.4698 38.81 60.3998ZM45.03 58.7098C44.29 59.1598 44.86 60.3998 45.77 59.9398C46.68 59.3798 47.39 58.8598 48.21 58.1898C48.89 57.6498 48.05 56.4798 47.26 57.1198C46.73 57.6498 45.69 58.3098 45.03 58.7098ZM49.96 54.0198C49.42 54.9098 50.71 55.5498 51.15 54.8198C51.71 54.0098 52.18 53.1298 52.62 52.2398C53.03 51.4298 51.76 50.7498 51.33 51.6198C50.92 52.4498 50.49 53.2598 49.96 54.0198Z" fill="white"/>
<path d="M25.9 44.2597C25.2 44.8197 26.04 45.9797 26.83 45.3497C27.53 44.7497 28.27 44.2097 29.05 43.7197C29.35 43.5397 29.49 43.0897 29.3 42.7597C29.09 42.4097 28.67 42.2797 28.29 42.4997C27.45 43.0297 26.64 43.6197 25.9 44.2597ZM53.68 45.3697C54.41 45.9497 55.31 44.8397 54.57 44.2397C54.21 43.9597 53.85 43.6897 53.47 43.4297C52.65 42.9297 51.91 44.0097 52.65 44.5997C53 44.8497 53.34 45.0997 53.68 45.3697ZM49.03 42.5697C50.09 42.9197 50.35 41.4997 49.61 41.2497C48.68 40.8497 47.8 40.5297 46.84 40.2297C45.99 39.9497 45.48 41.2897 46.42 41.5997C47.33 41.8897 48.16 42.1897 49.03 42.5697ZM42.34 40.7897C43.17 40.9197 43.53 39.5297 42.49 39.3597C41.51 39.2697 40.52 39.1997 39.54 39.2297C38.64 39.2297 38.58 40.6697 39.57 40.6697C40.45 40.6197 41.47 40.6997 42.34 40.7897ZM35.44 41.1497C36.28 40.9997 36.16 39.5697 35.13 39.7397C34.22 39.9497 33.15 40.2197 32.29 40.5597C31.44 40.8397 31.83 42.2197 32.78 41.9097C33.65 41.5897 34.54 41.3397 35.44 41.1497Z" fill="white"/>
</svg>
