<svg width="80" height="80" viewBox="0 0 80 80" fill="none" xmlns="http://www.w3.org/2000/svg">
<path fill-rule="evenodd" clip-rule="evenodd" d="M40 0C62.09 0 80 17.8449 80 39.8545C80 61.8642 62.09 79.7091 40 79.7091C17.91 79.7091 0 61.8642 0 39.8545C0 17.8449 17.91 0 40 0Z" fill="#8C52FF" fill-opacity="0.2"/>
<path fill-rule="evenodd" clip-rule="evenodd" d="M40 5.41992C59.09 5.41992 74.56 20.8337 74.56 39.8543C74.56 58.8748 59.09 74.2886 40 74.2886C20.91 74.2886 5.44 58.8748 5.44 39.8543C5.44 20.8337 20.91 5.41992 40 5.41992Z" fill="#8C52FF"/>
<path d="M23.4 45.6134C23.5 46.1116 23.8 46.5699 24.22 46.8589C24.45 47.0083 24.72 47.1179 25.02 47.1578C25.54 39.8445 31.76 36.7059 37.3 33.9161C38.1 33.5076 38.89 33.109 39.58 32.7404C40.75 32.1127 41.77 31.5049 42.67 30.8872L42.68 30.8772L42.7 30.8672L42.71 30.8573H42.72C45.43 28.9941 46.94 27.2006 47.62 25.5068C48.48 23.3546 47.97 21.3221 46.91 19.4987L46.89 19.4788C46.76 19.2596 46.62 19.0504 46.47 18.8511C45.35 17.4263 43.54 16.4598 41.35 16.2207C39.1 15.9716 36.46 16.4897 33.76 18.054C33.09 18.4426 32.41 18.9009 31.74 19.429C28.12 22.2387 25.44 26.0349 23.98 30.5783C22.58 34.9424 22.3 40.0138 23.39 45.5835L23.4 45.6134ZM55.36 32.023C55.36 30.3591 54.77 28.5955 53.79 27.1109C52.75 25.5466 51.31 24.3012 49.7 23.803C49.65 24.5503 49.48 25.3274 49.16 26.1146C48.48 27.8283 47.1 29.6118 44.77 31.4053C48.03 33.0792 50.56 35.1616 52.29 37.6923C53.68 39.7149 54.55 42.0265 54.86 44.627C55.1 44.5174 55.33 44.358 55.54 44.1687L55.58 44.1388C56.1 43.6406 56.49 42.9531 56.68 42.3055C57.29 40.233 57.49 38.2802 57.01 36.6461C56.55 35.0719 55.43 33.7467 53.41 32.8699C52.99 32.6906 52.8 32.2024 52.98 31.7839C53.16 31.3654 53.65 31.1661 54.07 31.3554C54.54 31.5547 54.97 31.7839 55.36 32.023ZM49.62 22.0693C51.84 22.5675 53.82 24.1617 55.17 26.2042C56.51 28.2368 57.24 30.7277 56.97 32.9994L56.93 33.2685C57.74 34.1253 58.29 35.1018 58.6 36.1778C59.18 38.1606 58.96 40.4224 58.27 42.7738C58.01 43.6705 57.46 44.637 56.71 45.3444L56.66 45.3942C56.18 45.8326 55.61 46.1714 54.98 46.3308C54.99 46.8589 54.99 47.3969 54.96 47.9549V47.9947C54.78 50.5554 54.09 52.9666 53.09 55.0888C51.96 57.4901 50.43 59.5326 48.8 61.0272C47.58 62.153 45.98 63.1992 44.39 63.9565C42.79 64.7237 41.19 65.2019 39.97 65.2019C38.75 65.2019 37.15 64.7237 35.55 63.9565C33.97 63.1992 32.36 62.153 31.14 61.0272C29.51 59.5326 27.98 57.4901 26.85 55.0888C25.96 53.1957 25.31 51.0735 25.06 48.8217C24.39 48.7818 23.79 48.5626 23.29 48.2239C22.5 47.6858 21.96 46.8489 21.77 45.9422L21.76 45.9024C20.62 40.0537 20.92 34.7032 22.4 30.0801C23.96 25.2079 26.84 21.1427 30.72 18.1237C31.46 17.5458 32.2 17.0477 32.93 16.6292C35.96 14.8656 38.95 14.2877 41.53 14.5767C44.17 14.8656 46.38 16.0613 47.77 17.8348C47.97 18.0938 48.16 18.3629 48.32 18.6319L48.34 18.6717C48.97 19.7378 49.43 20.8737 49.62 22.0693ZM53.3 47.8652C53.49 44.2384 52.67 41.1796 50.92 38.6189C49.22 36.138 46.63 34.1054 43.24 32.4913C42.38 33.0592 41.42 33.6272 40.36 34.1951C39.57 34.6136 38.82 35.0021 38.04 35.3907C32.75 38.061 26.78 41.08 26.65 47.905C26.8 50.2465 27.44 52.4485 28.35 54.3914C29.39 56.5933 30.79 58.4565 32.26 59.8216C33.36 60.8279 34.82 61.7744 36.27 62.4719C37.65 63.1295 39 63.548 39.97 63.548C40.95 63.548 42.29 63.1295 43.67 62.4719C45.12 61.7744 46.58 60.8279 47.68 59.8216C49.16 58.4565 50.55 56.5933 51.59 54.3914C52.51 52.4485 53.14 50.2365 53.3 47.8851V47.8652Z" fill="white"/>
<path d="M46.21 56.2943C46.85 57.0216 47.96 57.0913 48.7 56.4537L49.34 55.8857C50.52 56.6529 52.07 56.5533 53.13 55.6267L64.87 45.3542L65.17 45.6929C65.7 46.3007 66.63 46.3605 67.24 45.8324L68.04 45.125C68.65 44.587 68.71 43.6703 68.17 43.0625L66.33 40.9702L68.83 38.7782L69.94 40.0436C70.61 40.7908 71.76 40.8705 72.52 40.2129L72.78 39.9738C73.54 39.3162 73.62 38.1604 72.95 37.4132L68.28 32.1025C67.96 31.7439 67.51 31.5247 67.02 31.4948C66.54 31.4649 66.06 31.6243 65.7 31.9431L65.44 32.1723C64.68 32.8399 64.6 33.9857 65.27 34.7429L66.38 35.9983L63.88 38.1903L62.03 36.098C61.5 35.4902 60.57 35.4304 59.96 35.9684L59.16 36.6659C58.55 37.2039 58.49 38.1206 59.03 38.7284L59.32 39.0671L47.59 49.3396C46.53 50.2663 46.23 51.7807 46.84 53.0461L46.19 53.614C45.46 54.2517 45.39 55.3676 46.03 56.095C46.39 56.5035 45.85 55.8857 46.21 56.2943ZM50.29 53.9628C50.3 53.9727 50.31 53.9927 50.32 54.0026L50.36 54.0325C50.74 54.4012 51.35 54.4111 51.75 54.0624L61.38 45.6332C61.64 45.404 61.67 44.9955 61.44 44.7364L59.5 42.5345C59.27 42.2754 58.86 42.2455 58.6 42.4747L48.97 50.9039C48.56 51.2626 48.5 51.8804 48.83 52.3088L50.29 53.9628ZM58.96 43.8596L60.05 45.0951L51.09 52.9465L49.99 51.701L58.96 43.8596ZM66.28 33.1288L66.54 32.8996C66.77 32.7103 67.11 32.7303 67.32 32.9495L71.99 38.2501C72.19 38.4793 72.17 38.818 71.94 39.0173L71.68 39.2465C71.45 39.4457 71.1 39.4258 70.9 39.1967L66.23 33.896C66.03 33.6668 66.05 33.3281 66.28 33.1288ZM67.23 36.9548L67.99 37.8217L65.48 40.0137L64.72 39.1468L67.23 36.9548ZM60 37.6224L60.81 36.9249C60.89 36.8552 61 36.8552 61.07 36.9349L67.21 43.8995C67.28 43.9792 67.28 44.0988 67.2 44.1685L66.39 44.8759C66.31 44.9357 66.2 44.9357 66.13 44.856L65.41 44.039L60.71 38.7084L59.99 37.8914C59.92 37.8117 59.93 37.6921 60 37.6224ZM47.17 55.4573L46.99 55.258C46.81 55.0588 46.83 54.7499 47.04 54.5705L47.6 54.0823L48.42 55.0089L47.85 55.4972C47.65 55.6665 47.35 55.6466 47.17 55.4573ZM48.43 50.2961L60.17 40.0236L64.03 44.3977L52.29 54.6702C51.56 55.3079 50.47 55.278 49.77 54.6104C49.74 54.5705 49.7 54.5407 49.67 54.5008L48.26 52.8967C48.23 52.8668 48.2 52.8269 48.17 52.7871C47.59 52.0199 47.71 50.9338 48.43 50.2961Z" fill="#EBECEC"/>
<path d="M47.43 55.0184L49.97 57.8879H49.96L49.82 58.0075L49.67 58.1271L49.51 58.2267L49.36 58.3164L49.2 58.4061L49.03 58.4858L48.86 58.5555L48.68 58.6253L48.52 58.6651L48.35 58.7149L48.17 58.7448L48.01 58.7747L47.83 58.7946L47.64 58.8046H47.46L47.3 58.7946L47.12 58.7847L46.94 58.7548L46.77 58.7249L46.6 58.685L46.43 58.6352L46.26 58.5754L46.1 58.5157L45.93 58.4359L45.77 58.3562L45.6 58.2566L45.46 58.1669L45.31 58.0573L45.17 57.9477L45.03 57.8282L44.89 57.6887L44.77 57.5591L47.65 55.0284H47.64V55.0184L47.63 55.0085H47.62L47.61 54.9985L47.6 54.9885H47.58L47.57 54.9786H47.56H47.55H47.54H47.53H47.51H47.5H47.51H47.5H47.49H47.5L47.49 54.9885H47.47L47.46 54.9985H47.45V55.0085H47.44L47.43 55.0184ZM49.97 57.8879H49.96L50.09 57.7783L49.97 57.8879ZM50.61 57.32L49.97 57.8879L47.43 55.0184L48.07 54.4505L50.39 54.2811L50.61 57.32ZM48.07 54.4505L49.17 53.484L50.39 54.2811L48.07 54.4505ZM51.87 54.1914L54.4 57.061L54.39 57.0709L54.23 57.2005L54.07 57.33L53.89 57.4495L53.72 57.5691L53.54 57.6687L53.36 57.7684L53.18 57.8481L52.99 57.9378L52.8 58.0075L52.6 58.0773L52.41 58.1271L52.22 58.1769L52.01 58.2267L51.81 58.2566L51.61 58.2865L51.42 58.2965L51.22 58.3064H51H50.81L50.61 58.2865L50.4 58.2666L50.21 58.2367L50 58.1968L49.8 58.147L49.61 58.0972L49.42 58.0374L49.22 57.9677L49.03 57.8879L48.84 57.7983L48.65 57.7086L48.47 57.599L48.29 57.4894L50.39 54.2811L50.44 54.311L50.48 54.3409L50.53 54.3608L50.58 54.3807L50.62 54.4007L50.66 54.4206L50.72 54.4306L50.77 54.4505L50.81 54.4605L50.86 54.4704L50.91 54.4804H50.95H51.01L51.06 54.4903L51.09 54.4804H51.15H51.2L51.25 54.4704L51.3 54.4605H51.34L51.39 54.4405L51.44 54.4306L51.48 54.4106L51.53 54.3907L51.57 54.3708L51.62 54.3509L51.67 54.3309L51.71 54.301L51.75 54.2711L51.79 54.2512L51.83 54.2213L51.87 54.1815V54.1914ZM54.4 57.061L54.39 57.0709L54.29 57.1606L54.4 57.061ZM66.14 46.7885L54.4 57.061L51.87 54.1914L63.6 43.9189L66.31 44.0983L66.14 46.7885ZM63.6 43.9189L65.05 42.6535L66.31 44.0983L63.6 43.9189ZM63.72 46.9578L63.43 46.6191L66.31 44.0983L66.61 44.4271L63.73 46.9578H63.72ZM63.73 46.9578H63.72L63.65 46.8682L63.73 46.9578ZM65.97 44.3872L68.5 47.2667L68.37 47.3763L68.24 47.4759L68.09 47.5756L67.94 47.6653L67.79 47.745L67.65 47.8047L67.5 47.8745L67.33 47.9343L67.19 47.9741L67.01 48.0239L66.85 48.0538L66.71 48.0738L66.55 48.0937L66.36 48.1037H66.21L66.05 48.0937L65.88 48.0837L65.75 48.0638L65.58 48.0339L65.4 47.9941L65.25 47.9442L65.11 47.8944L64.95 47.8346L64.79 47.7649L64.65 47.6852L64.51 47.6154L64.37 47.5258L64.22 47.4162L64.09 47.3165L63.98 47.2169L63.85 47.0874L63.73 46.9578L66.61 44.4271L66.59 44.4071L66.57 44.3872L66.55 44.3773L66.52 44.3573L66.5 44.3374H66.49L66.47 44.3274L66.44 44.3075L66.42 44.2975H66.41H66.4L66.35 44.2876L66.32 44.2776H66.33H66.3H66.28H66.27H66.23H66.2L66.18 44.2876L66.14 44.2975H66.13L66.1 44.3075L66.08 44.3175L66.07 44.3274L66.05 44.3374L66.03 44.3474L66 44.3673L65.99 44.3773L65.97 44.3872ZM69.31 46.5593L68.5 47.2667L65.97 44.3872L66.77 43.6898L69.31 46.5593ZM66.73 44.3274L69.62 41.7967V41.8066L69.73 41.9362L69.83 42.0757L69.93 42.2151L70.01 42.3546L70.09 42.5041L70.16 42.6535L70.23 42.813L70.28 42.9624L70.33 43.1119L70.38 43.2912L70.41 43.4506L70.43 43.6001L70.45 43.7495L70.46 43.9189V44.0783L70.45 44.2477L70.43 44.4171L70.41 44.5666L70.39 44.716L70.35 44.8854L70.3 45.0448L70.25 45.1843L70.19 45.3437L70.12 45.5031L70.04 45.6526L69.96 45.7921L69.87 45.9216L69.77 46.0611L69.66 46.2006L69.56 46.3202L69.44 46.4397L69.31 46.5593L66.77 43.6898L66.75 43.7097L66.74 43.7197L66.73 43.7296L66.71 43.7595L66.69 43.7794V43.7894L66.68 43.7994L66.66 43.8293L66.65 43.8492L66.64 43.8791V43.889L66.63 43.9189L66.62 43.9488V43.9588V43.9687V43.9887V44.0186V44.0485V44.0684V44.0783V44.0883L66.63 44.1182L66.64 44.1581V44.168L66.65 44.1879L66.66 44.2079L66.67 44.2278L66.68 44.2477L66.69 44.2677L66.7 44.2876L66.71 44.3075L66.73 44.3274ZM69.62 41.7967V41.8066L69.71 41.9162L69.62 41.7967ZM67.77 39.7043L69.62 41.7967L66.73 44.3274L64.88 42.2351L65.06 39.5349L67.77 39.7043ZM64.88 42.2351L63.62 40.7903L65.06 39.5349L64.88 42.2351ZM70.1 40.2125L67.59 42.4045L65.06 39.5349L67.57 37.3429L70.28 37.5123L70.1 40.2125ZM67.57 37.3429L69.01 36.0775L70.28 37.5123L67.57 37.3429ZM68.5 41.2985L67.39 40.0431L70.28 37.5123L71.39 38.7777L68.5 41.3085V41.2985ZM68.5 41.3085V41.2985L68.37 41.159L68.5 41.3085ZM71.25 38.7777L73.79 41.6373V41.6472L73.64 41.7668L73.49 41.8863L73.33 41.986L73.17 42.0856L73.01 42.1753L72.84 42.255L72.66 42.3247L72.49 42.3845L72.32 42.4343L72.14 42.4842L71.97 42.5141L71.79 42.5439L71.61 42.5639L71.42 42.5738H71.25L71.08 42.5639L70.89 42.5439L70.71 42.524L70.55 42.4941L70.36 42.4543L70.19 42.4045L70.03 42.3447L69.86 42.2749L69.68 42.1952L69.51 42.1155L69.36 42.0258L69.21 41.9262L69.06 41.8166L68.91 41.697L68.77 41.5775L68.63 41.4479L68.5 41.3085L71.39 38.7777H71.38V38.7677H71.37V38.7578H71.36L71.35 38.7478H71.34H71.33H71.34H71.33H71.31H71.32H71.31H71.3H71.29L71.28 38.7578H71.27L71.26 38.7677L71.25 38.7777ZM73.79 41.6373V41.6472L73.7 41.7269L73.79 41.6373ZM74.05 41.4081L73.79 41.6373L71.25 38.7777L71.51 38.5386H71.52L74.05 41.4081ZM71.51 38.5386H71.52L71.6 38.4688L71.51 38.5386ZM71.51 38.6681L74.39 36.1473L74.52 36.2967L74.63 36.4462L74.73 36.5957L74.84 36.765L74.92 36.9245L75 37.0938L75.07 37.2533L75.13 37.4326L75.19 37.6119L75.23 37.7813L75.27 37.9607L75.3 38.15L75.31 38.3293L75.32 38.4887V38.6681V38.8574L75.3 39.0367L75.28 39.1962L75.25 39.3755L75.2 39.5648L75.15 39.7342L75.1 39.8936L75.03 40.063L74.95 40.2423L74.87 40.4018L74.78 40.5512L74.68 40.7106L74.56 40.8701L74.45 41.0095L74.32 41.149L74.19 41.2786L74.05 41.4081L71.52 38.5386H71.51V38.5485L71.5 38.5585V38.5685V38.5585L71.49 38.5784V38.5884V38.5784L71.48 38.5983V38.6083V38.5983V38.6183V38.6083L71.49 38.6282V38.6482L71.5 38.6581V38.6681H71.51H71.5H71.51ZM69.72 30.8466L74.39 36.1473L71.51 38.6681L66.83 33.3674L69.72 30.8466ZM66.9 33.3973L67.15 29.5813H67.14L67.24 29.5912L67.34 29.6012L67.41 29.6111L67.51 29.6211L67.6 29.641L67.69 29.661L67.79 29.6809L67.86 29.7008L67.97 29.7307L68.07 29.7606L68.12 29.7805L68.22 29.8104L68.32 29.8503L68.39 29.8802L68.47 29.9101L68.55 29.9499L68.64 29.9997L68.73 30.0495L68.8 30.0894L68.88 30.1392L68.97 30.189L69.03 30.2389L69.1 30.2887L69.18 30.3385L69.25 30.3983L69.32 30.4581L69.4 30.5178L69.46 30.5776L69.53 30.6474L69.58 30.6972L69.65 30.7669L69.72 30.8466L66.83 33.3674L66.84 33.3774L66.85 33.3874L66.84 33.3774L66.85 33.3874V33.3774H66.84L66.85 33.3874H66.86H66.85H66.86L66.87 33.3973H66.86L66.85 33.3874L66.88 33.3973H66.89L66.86 33.3874L66.87 33.3973H66.89H66.87H66.89H66.9L66.91 33.4073L66.89 33.3973H66.9ZM66.9 33.3973H66.77H66.9ZM66.97 33.3774L64.43 30.5079L64.51 30.4381L64.57 30.3883L64.65 30.3285L64.73 30.2687L64.8 30.2189L64.88 30.1691L64.94 30.1293L65.02 30.0794L65.12 30.0197L65.19 29.9898L65.27 29.9499L65.35 29.9101L65.45 29.8702L65.53 29.8403L65.61 29.8005L65.7 29.7706L65.77 29.7506L65.86 29.7207L65.96 29.6909L66.06 29.6709L66.15 29.651L66.22 29.641L66.31 29.6211L66.43 29.6012H66.5L66.58 29.5912L66.7 29.5813H66.79L66.86 29.5713H66.96L67.05 29.5813H67.15L66.9 33.3973H66.91H66.89H66.9H66.93H66.91L66.89 33.4073L66.92 33.3973H66.93H66.91H66.92H66.93H66.94H66.93H66.94L66.95 33.3874L66.94 33.3973L66.96 33.3774H66.97L66.95 33.3874H66.96H66.95L66.96 33.3774H66.97L66.96 33.3874L66.97 33.3774ZM64.17 30.737L64.43 30.5079L66.97 33.3774L66.7 33.6066L64.17 30.737ZM64.17 30.737L63.78 31.0758L64.17 30.737ZM66.71 33.477L63.83 35.9978H63.82L63.7 35.8484L63.59 35.6989L63.48 35.5495L63.39 35.3901L63.29 35.2107L63.21 35.0413L63.15 34.8919L63.09 34.7225L63.03 34.5332L62.99 34.3638L62.95 34.1845L62.92 34.0051L62.91 33.8258L62.9 33.6564V33.477V33.2877L62.92 33.1084L62.95 32.939L62.98 32.7597L63.02 32.6002L63.06 32.4309L63.13 32.2415L63.2 32.0722L63.27 31.9227L63.35 31.7533L63.45 31.5939L63.54 31.4445L63.65 31.285L63.77 31.1356L63.9 30.9961L64.03 30.8666L64.17 30.737L66.71 33.6066V33.5966H66.72V33.5866L66.73 33.5667V33.5767L66.74 33.5567H66.73H66.74V33.5468V33.5368V33.5269V33.5368L66.73 33.5269V33.5169V33.5069V33.497V33.5069L66.72 33.487L66.71 33.477ZM63.83 35.9978H63.82L63.75 35.9181L63.83 35.9978ZM64.94 37.2632L63.83 35.9978L66.71 33.477L67.82 34.7424L67.65 37.4426L64.94 37.2632ZM67.82 34.7424L69.09 36.1772L67.65 37.4426L67.82 34.7424ZM62.61 36.7551L65.12 34.5631L67.65 37.4426L65.14 39.6246L62.44 39.4552L62.61 36.7551ZM65.14 39.6246L63.7 40.89L62.44 39.4552L65.14 39.6246ZM63.47 34.8321L65.32 36.9245L62.44 39.4552L60.59 37.3629L63.47 34.8321ZM61.23 37.4027L58.7 34.5232L58.83 34.4136L58.96 34.314L59.11 34.2143L59.26 34.1247L59.41 34.0549L59.55 33.9852L59.7 33.9154L59.87 33.8557L60.01 33.8158L60.19 33.766L60.35 33.7361L60.49 33.7162L60.65 33.6962L60.84 33.6863H60.99L61.16 33.6962L61.32 33.7162L61.45 33.7261L61.62 33.756L61.8 33.7959L61.95 33.8457L62.1 33.8955L62.25 33.9553L62.41 34.025L62.55 34.0948L62.69 34.1745L62.84 34.2741L62.97 34.3738L63.1 34.4734L63.23 34.583L63.36 34.7125L63.47 34.8321L60.59 37.3629L60.6 37.3728L60.63 37.3927L60.64 37.4127L60.65 37.4226L60.67 37.4326L60.7 37.4525L60.72 37.4625H60.73L60.76 37.4824L60.78 37.4924H60.79H60.81L60.85 37.5023L60.88 37.5123H60.87H60.9H60.92H60.93H60.98H61L61.02 37.5023L61.06 37.4924H61.07L61.1 37.4824L61.12 37.4725L61.13 37.4625L61.15 37.4525L61.17 37.4426L61.2 37.4226L61.21 37.4127L61.23 37.4027ZM57.89 35.2306L58.7 34.5232L61.23 37.4027L60.43 38.1002L57.89 35.2306ZM60.47 37.4625L57.59 39.9933L57.58 39.9833L57.47 39.8538L57.37 39.7143L57.27 39.5748L57.19 39.4353L57.11 39.2858L57.03 39.1264L56.97 38.977L56.92 38.8275L56.87 38.6681L56.83 38.5186L56.79 38.3493L56.77 38.1898L56.75 38.0205L56.74 37.871V37.7116L56.75 37.5422L56.76 37.3927L56.79 37.2234L56.82 37.0639L56.85 36.9145L56.9 36.7451L56.95 36.5957L57.01 36.4462L57.08 36.3067L57.16 36.1473L57.24 35.9978L57.33 35.8683L57.43 35.7288L57.54 35.5993L57.64 35.4698L57.76 35.3502L57.89 35.2306L60.43 38.1002L60.45 38.0802L60.46 38.0703L60.47 38.0603L60.49 38.0404L60.51 38.0105L60.52 37.9806L60.54 37.9507L60.55 37.9407V37.9208L60.56 37.9009L60.57 37.871V37.861L60.58 37.8311V37.8112V37.8013V37.7714V37.7415V37.7315V37.7116L60.57 37.6817V37.6618V37.6518L60.56 37.6219L60.55 37.602V37.592L60.53 37.5621L60.52 37.5422L60.51 37.5223L60.5 37.5023L60.48 37.4824L60.47 37.4725V37.4625ZM57.59 39.9933L57.58 39.9833L57.64 40.053L57.59 39.9933ZM57.88 40.332L57.59 39.9933L60.47 37.4625L60.76 37.8013L60.59 40.5014L57.88 40.332ZM60.76 37.8013L62.04 39.236L60.59 40.5014L60.76 37.8013ZM46.32 47.8944L58.06 37.6319L60.59 40.5014L48.85 50.7739L46.31 47.9044L46.32 47.8944ZM46.31 47.9044L46.32 47.8944L46.27 47.9343L46.31 47.9044ZM48.11 54.4804L45.57 51.6109L45.11 53.8826L45.02 53.6833L44.95 53.494L44.87 53.2947L44.81 53.0954L44.76 52.9061L44.71 52.7069L44.67 52.4976L44.64 52.2983L44.62 52.0891L44.61 51.8898V51.7005V51.4813L44.62 51.2821L44.64 51.0828L44.67 50.8935L44.7 50.6942L44.75 50.4949L44.8 50.3056L44.86 50.0964L44.93 49.9071L45 49.7377L45.08 49.5484L45.17 49.369L45.27 49.1897L45.38 49.0103L45.49 48.841L45.61 48.6716L45.73 48.5022L45.87 48.3527L46.01 48.1933L46.16 48.0439L46.31 47.9044L48.86 50.7639L48.82 50.8038L48.79 50.8337L48.75 50.8735L48.72 50.9134L48.69 50.9533L48.66 50.9931L48.63 51.033L48.61 51.0728L48.59 51.1226L48.56 51.1625L48.55 51.2023L48.52 51.2621L48.51 51.302L48.5 51.3418L48.48 51.3917L48.47 51.4315L48.46 51.4813V51.5411L48.45 51.5909V51.6407V51.6806V51.7304V51.7902L48.46 51.8301V51.8799L48.47 51.9297L48.48 51.9695L48.5 52.0293L48.51 52.0692L48.53 52.109L48.55 52.1688L48.57 52.2186L48.11 54.4804ZM48.57 52.2186L49.21 53.5239L48.11 54.4804L48.57 52.2186ZM44.93 52.1788L45.57 51.6109L48.11 54.4804L47.46 55.0483L44.93 52.1788ZM47.47 54.8291L44.59 57.3599L44.47 57.2104L44.35 57.061L44.25 56.9115L44.16 56.7621L44.06 56.5827L43.99 56.4333L43.92 56.2639L43.86 56.0845L43.81 55.9251L43.76 55.7458L43.73 55.5764L43.7 55.417L43.68 55.2177L43.67 55.0383V54.8789L43.68 54.6996L43.69 54.5202L43.72 54.3509L43.75 54.1715L43.8 53.9922L43.84 53.8327L43.9 53.6634L43.97 53.494L44.04 53.3346L44.12 53.1751L44.21 53.0257L44.31 52.8663L44.42 52.7168L44.53 52.5773L44.66 52.4279L44.79 52.2983L44.93 52.1788L47.46 55.0483H47.47H47.46L47.48 55.0284L47.49 55.0184V55.0085L47.5 54.9985V54.9885L47.51 54.9786V54.9686V54.9586V54.9487V54.9387V54.9287V54.9387V54.9287V54.9088V54.8989L47.5 54.8789V54.869L47.49 54.849L47.48 54.8391L47.47 54.8291ZM44.59 57.3599L44.61 57.3798L44.59 57.3599ZM47.65 55.0284L44.77 57.5591L44.73 57.5193L44.71 57.4994L44.7 57.4794L44.66 57.4396L44.64 57.4197V57.4097L44.65 57.4197L44.72 57.4994L47.43 54.7992H47.44L47.53 54.8889L47.56 54.9287L47.55 54.9188V54.9287L47.52 54.8889L47.53 54.8989L47.63 55.0085L47.6 54.9786L47.57 54.9387L47.6 54.9786L47.66 55.0383L47.52 54.8889L44.62 57.3898L44.72 57.5093L44.75 57.5392L44.67 57.4495L44.68 57.4595L44.67 57.4495L44.62 57.3898L44.59 57.3599L47.47 54.8291L47.51 54.869L47.54 54.9088L47.58 54.9586L47.53 54.8989L47.55 54.9287L47.59 54.9686L47.7 55.0882L44.8 57.589L44.66 57.4296L44.71 57.4894L44.73 57.5193L44.69 57.4695L44.65 57.4197L44.73 57.5093L44.72 57.4994L44.67 57.4396L44.65 57.4296L44.64 57.4097L44.61 57.3798L44.64 57.4097L44.72 57.4994L47.44 54.7992L47.52 54.8789L47.54 54.9088L47.55 54.9188L47.56 54.9287L47.58 54.9586L47.62 54.9985L47.65 55.0284ZM51.63 52.5973L49.02 55.397L48.97 55.3572L48.96 55.3472L48.6 54.849L48.96 55.3472L49.45 55.7059L48.95 55.3373L48.94 55.3273L48.58 54.8291L48.94 55.3273V55.3173L48.57 54.8191L48.93 55.3173L48.8 55.1778L51.77 52.7567L51.65 52.6172L52.01 53.1154L51.65 52.6172L51.66 52.6271L52.02 53.1253L51.66 52.6271V52.6371H51.67L51.17 52.2784L51.67 52.6371L52.03 53.1353L51.67 52.6371V52.6471H51.68L51.63 52.5973ZM49.02 55.397L49 55.3871L48.97 55.3572L49.02 55.397ZM49.05 55.4369L49.02 55.397L51.63 52.5973L51.66 52.6271L51.68 52.6471L49.05 55.4369ZM51.66 52.6271L51.67 52.6371L51.68 52.6471L51.66 52.6271ZM50.48 52.6172L53.02 55.4967L52.92 55.5863L52.8 55.676L52.68 55.7557L52.57 55.8255L52.45 55.8853L52.32 55.955L52.2 56.0048L52.08 56.0546L51.95 56.0945L51.8 56.1343L51.67 56.1642L51.55 56.1941L51.41 56.2141L51.26 56.224H51.14H51.02H50.88L50.74 56.2141L50.62 56.1941L50.47 56.1642L50.33 56.1343L50.22 56.1045L50.08 56.0646L49.95 56.0048L49.85 55.965L49.72 55.9052L49.57 55.8255L49.46 55.7557L49.35 55.676L49.26 55.6063L49.14 55.5166L49.03 55.417L51.68 52.6471L51.64 52.6172L51.61 52.5773L51.59 52.5674L51.56 52.5474L51.53 52.5275L51.47 52.4976L51.43 52.4777L51.41 52.4677L51.37 52.4578L51.32 52.4378H51.3L51.25 52.4179L51.2 52.4079H51.17H51.12H51.07H51.05H51.02H50.97L50.92 52.4179H50.9L50.85 52.4279L50.8 52.4478L50.75 52.4578L50.73 52.4677L50.7 52.4877L50.65 52.5076L50.61 52.5275L50.58 52.5474L50.55 52.5674L50.51 52.5973L50.48 52.6271V52.6172ZM50.48 52.6271V52.6172L50.3 52.7866L50.48 52.6271ZM62.65 47.0674L53.02 55.4967L50.48 52.6172L60.11 44.1979L62.65 47.0674ZM59.99 46.0013L62.88 43.4706L62.96 43.5702L63.04 43.6798L63.1 43.7695L63.19 43.909L63.24 44.0086L63.29 44.1082L63.35 44.2477L63.38 44.3374L63.42 44.4669L63.46 44.6064L63.48 44.716L63.49 44.8157L63.51 44.9551V45.1046V45.2042V45.3138L63.5 45.4135L63.49 45.553L63.46 45.6925L63.43 45.8021L63.4 45.9316L63.36 46.0412L63.32 46.1408L63.26 46.2604L63.21 46.36L63.13 46.4995L63.05 46.6191L63.01 46.6789L62.93 46.7885L62.82 46.908L62.74 46.9778L62.65 47.0674L60.11 44.1979L60.06 44.2378L60.03 44.2677L59.97 44.3474L59.93 44.3972L59.92 44.4171L59.87 44.4769L59.82 44.5666L59.8 44.6064L59.77 44.6662L59.75 44.716L59.74 44.7658L59.72 44.8356L59.71 44.8854L59.69 44.9651L59.68 45.0349V45.0847V45.1345V45.1743V45.2541L59.69 45.3338V45.3736L59.7 45.4135L59.72 45.5031L59.75 45.5729L59.76 45.6028L59.79 45.6825L59.81 45.7223L59.83 45.7622L59.89 45.8618L59.91 45.8917L59.95 45.9415L59.99 45.9914V46.0013ZM62.88 43.4706L62.97 43.5702L62.88 43.4706ZM60.94 41.2786L62.88 43.4706L59.99 46.0013L58.06 43.7994L60.94 41.2786ZM58.06 43.7994L57.97 43.6997L58.06 43.7994ZM59.87 43.9189L57.33 41.0394L57.43 40.9597L57.54 40.88L57.63 40.8202L57.77 40.7306L57.87 40.6807L57.96 40.6409L58.09 40.5811L58.2 40.5413L58.34 40.5014L58.47 40.4615L58.57 40.4416L58.68 40.4317L58.82 40.4117H58.96H59.07H59.17L59.32 40.4217L59.41 40.4416L59.52 40.4615L59.7 40.5014L59.8 40.5313L59.9 40.5612L60.04 40.621L60.13 40.6608L60.23 40.7106L60.34 40.7704L60.46 40.8501L60.57 40.9298L60.68 41.0195L60.78 41.0992L60.85 41.1789L60.94 41.2786L58.06 43.7994L58.1 43.8492L58.13 43.8791L58.18 43.9289L58.24 43.9687L58.3 44.0086L58.37 44.0584L58.42 44.0883L58.47 44.1082L58.5 44.1282L58.58 44.1581L58.63 44.168L58.66 44.1879L58.78 44.2079L58.83 44.2178L58.87 44.2278H58.95L58.99 44.2378H59.04L59.12 44.2278L59.2 44.2178H59.24L59.28 44.2079L59.36 44.1879L59.44 44.168L59.48 44.1481L59.56 44.1182L59.59 44.0983L59.63 44.0783L59.73 44.0186L59.76 43.9986L59.81 43.9588L59.87 43.9189ZM47.7 49.4687L57.33 41.0394L59.87 43.9189L50.24 52.3382L47.7 49.4786V49.4687ZM47.7 49.4786V49.4687L47.66 49.5085L47.7 49.4786ZM50.28 51.0529L47.39 53.5737L47.31 53.4641L47.21 53.3346L47.15 53.2449L47.08 53.1154L47.01 52.9858L46.95 52.8563L46.89 52.7268L46.85 52.6072L46.81 52.4677L46.77 52.3282L46.75 52.1987L46.73 52.0791L46.71 51.9397L46.7 51.7902V51.6706V51.5311L46.72 51.3917L46.73 51.2721L46.75 51.1326L46.78 50.9931L46.82 50.8636L46.86 50.7341L46.91 50.6045L46.96 50.485L47.01 50.3654L47.08 50.2458L47.15 50.1163L47.24 49.9868L47.31 49.8871L47.4 49.7775L47.5 49.6679L47.59 49.5783L47.7 49.4786L50.25 52.3382L50.28 52.2983L50.3 52.2784L50.33 52.2485L50.36 52.2087L50.37 52.1987L50.4 52.1489L50.43 52.0991L50.45 52.0592L50.47 52.0393L50.48 52.0094L50.49 51.9596L50.51 51.9197L50.52 51.8898L50.53 51.84V51.7902L50.54 51.7703V51.7205V51.6706V51.6507V51.6009L50.53 51.561V51.5311L50.52 51.4913L50.51 51.4415L50.49 51.4016V51.3717L50.47 51.3319L50.45 51.292L50.43 51.2422L50.41 51.2123L50.4 51.1924L50.36 51.1525L50.28 51.0529ZM47.39 53.5737L47.35 53.5239L47.31 53.4641L47.39 53.5737ZM48.84 55.2277L47.39 53.5737L50.28 51.0529L51.73 52.7069L51.77 52.7567L48.84 55.2277ZM51.73 52.7069L51.74 52.7168L51.77 52.7567L51.73 52.7069ZM58.61 46.36L57.52 45.1146L60.4 42.5938L61.5 43.8392L61.32 46.5294L58.61 46.36ZM61.5 43.8392L62.76 45.274L61.32 46.5294L61.5 43.8392ZM49.82 51.5112L58.79 43.6599L61.32 46.5294L52.36 54.3807L49.65 54.2114L49.82 51.5112ZM52.36 54.3807L50.91 55.6461L49.65 54.2114L52.36 54.3807ZM51.44 50.4451L52.53 51.6806L49.65 54.2114L48.55 52.9659L48.73 50.2658L51.44 50.4451ZM48.55 52.9659L47.28 51.5311L48.73 50.2658L48.55 52.9659ZM60.23 45.2939L51.26 53.1353L48.73 50.2658L57.69 42.4144L60.4 42.5938L60.23 45.2939ZM57.69 42.4144L59.14 41.159L60.4 42.5938L57.69 42.4144ZM67.81 34.3339L67.55 34.5631L65.01 31.6935L65.28 31.4644L65.31 31.4345L67.81 34.3339ZM65.28 31.4644L65.3 31.4345H65.31L65.28 31.4644ZM68.76 31.6836L65.87 34.2044L65.9 34.2442L65.96 34.304L66 34.3439L66.03 34.3638L66.1 34.4236L66.18 34.4734L66.21 34.4933L66.25 34.5133L66.33 34.5531L66.4 34.583L66.45 34.6029L66.5 34.6229L66.57 34.6328L66.62 34.6527L66.68 34.6627L66.75 34.6727H66.81L66.87 34.6826H66.93L66.99 34.6727L67.09 34.6627L67.15 34.6527H67.18L67.23 34.6428L67.33 34.6129L67.39 34.593L67.44 34.573L67.5 34.5431L67.56 34.5133L67.65 34.4634L67.67 34.4435L67.7 34.4236L67.77 34.3638L65.31 31.4345L65.43 31.3349L65.5 31.285L65.57 31.2352L65.71 31.1555L65.82 31.1057L65.93 31.0559L66.02 31.016L66.14 30.9762L66.28 30.9363L66.39 30.9064L66.46 30.8965L66.57 30.8765L66.73 30.8566H66.84H66.96H67.07L67.18 30.8666L67.3 30.8865L67.41 30.9064L67.52 30.9263L67.64 30.9662L67.74 30.9961L67.84 31.0359L67.95 31.0858L68.08 31.1455L68.16 31.1954L68.25 31.2452L68.37 31.3249L68.48 31.4146L68.55 31.4743L68.63 31.5541L68.73 31.6537L68.76 31.6836ZM68.73 31.6537L68.74 31.6637L68.76 31.6836L68.73 31.6537ZM70.55 39.515L65.87 34.2044L68.76 31.6836L73.43 36.9842L70.55 39.515ZM70.55 39.515L70.48 39.4353L70.55 39.515ZM73.21 40.4516L70.67 37.5821L70.68 37.5721L70.62 37.6219L70.58 37.6717L70.54 37.7116L70.49 37.7813L70.45 37.8411L70.41 37.8909L70.38 37.9507L70.34 38.0304L70.33 38.0503L70.3 38.1201L70.26 38.2197L70.25 38.2695L70.24 38.3293L70.22 38.3991V38.4589L70.21 38.5186V38.5784V38.6382V38.698L70.22 38.7976L70.23 38.8574L70.24 38.9172L70.26 38.967L70.27 39.0268L70.31 39.1264L70.32 39.1563L70.34 39.2061L70.38 39.2759L70.44 39.3755L70.48 39.4253L70.5 39.4552L70.55 39.515L73.43 36.9842L73.52 37.0938L73.57 37.1636L73.64 37.2533L73.73 37.4027L73.8 37.5223L73.84 37.6219L73.87 37.6917L73.93 37.8411L73.96 37.9607L73.99 38.0703L74.01 38.1699L74.03 38.2795L74.04 38.4389L74.05 38.5485V38.6581L74.04 38.7677L74.03 38.8873L74.02 38.9969L73.99 39.1165L73.97 39.2261L73.94 39.3257L73.89 39.4851L73.84 39.5947L73.81 39.6645L73.74 39.794L73.68 39.8936L73.62 39.9933L73.55 40.0929L73.46 40.2025L73.38 40.2922L73.3 40.3719L73.2 40.4615L73.21 40.4516ZM70.67 37.5821L70.68 37.5721H70.69L70.67 37.5821ZM70.41 37.8212L70.67 37.5821L73.21 40.4516L72.95 40.6807L72.94 40.6907L70.41 37.8212ZM72.95 40.6807L72.94 40.6907L72.93 40.7007L72.95 40.6807ZM69.46 40.4615L72.35 37.9407L72.3 37.8909L72.24 37.8311L72.19 37.7913L72.17 37.7614L72.09 37.7116L72.01 37.6618L72 37.6518L71.92 37.6119L71.82 37.5721L71.81 37.5621L71.76 37.5422L71.65 37.5123L71.59 37.5023L71.53 37.4924L71.47 37.4824L71.41 37.4725H71.35H71.25L71.19 37.4824H71.17L71.07 37.4924L71.01 37.5023L70.95 37.5223L70.88 37.5422L70.83 37.5621L70.75 37.592L70.69 37.6219L70.63 37.6518L70.59 37.6817L70.54 37.7116L70.47 37.7614L70.42 37.8112L72.94 40.6907L72.84 40.7704L72.73 40.8601L72.63 40.9199L72.54 40.9697L72.44 41.0295L72.33 41.0793L72.2 41.1391L72.1 41.169L71.98 41.2088L71.86 41.2387L71.76 41.2586L71.6 41.2786L71.53 41.2885L71.42 41.2985H71.26H71.15L71.04 41.2786L70.93 41.2686L70.82 41.2487L70.7 41.2188L70.54 41.1789L70.44 41.1391L70.38 41.1191L70.24 41.0494L70.11 40.9896L70.06 40.9498L69.92 40.8701L69.81 40.7903L69.74 40.7306L69.65 40.6509L69.55 40.5512L69.46 40.4615ZM72.35 37.9407L72.43 38.0404L72.35 37.9407ZM67.67 32.6301L72.35 37.9407L69.46 40.4615L64.79 35.1609H64.78L67.67 32.6301ZM64.79 35.1609H64.78L64.7 35.0613L64.79 35.1609ZM65.01 31.6935L67.55 34.5631H67.54L67.6 34.5232L67.66 34.4535L67.7 34.4136L67.72 34.3837L67.77 34.314L67.81 34.2542L67.83 34.2143L67.89 34.1047L67.9 34.0749L67.92 34.035L67.95 33.9354L67.97 33.8756L67.99 33.8058L68 33.7461V33.6962L68.01 33.6365V33.5667V33.5069V33.4571L68 33.3475L67.99 33.2877L67.98 33.2379L67.96 33.1682L67.94 33.1084L67.91 33.0187L67.9 33.0087L67.88 32.949L67.83 32.8493L67.79 32.7895L67.75 32.7397L67.72 32.6999L67.67 32.6401L64.78 35.1609L64.7 35.0613L64.63 34.9716L64.57 34.8719L64.5 34.7623L64.43 34.6229L64.38 34.5133L64.35 34.4535L64.3 34.314L64.26 34.1944L64.23 34.0848L64.21 33.9752L64.19 33.8656L64.18 33.7062L64.17 33.5966V33.487L64.18 33.3674L64.19 33.2578L64.2 33.1482L64.22 33.0386L64.25 32.929L64.28 32.8095L64.33 32.67L64.37 32.5703L64.41 32.4906L64.49 32.3312L64.54 32.2515L64.6 32.1519L64.69 32.0323L64.75 31.9626L64.82 31.8729L64.92 31.7733L65.01 31.6836V31.6935ZM67.55 34.5631H67.54L67.46 34.6428L67.55 34.5631ZM66.55 39.0866L65.78 38.2197L68.67 35.6989L69.43 36.5558L69.26 39.2559L66.55 39.0866ZM69.43 36.5558L70.7 38.0005L69.26 39.2559L69.43 36.5558ZM64.22 38.5784L66.72 36.3864L69.26 39.2559L66.75 41.4479L64.04 41.2786L64.22 38.5784ZM66.75 41.4479L65.31 42.7133L64.04 41.2786L66.75 41.4479ZM66.17 37.8909L66.93 38.7478L64.04 41.2786L63.28 40.4117L63.46 37.7116L66.17 37.8909ZM63.28 40.4117L62.01 38.977L63.46 37.7116L63.28 40.4117ZM68.49 38.3891L65.99 40.5811L63.46 37.7116L65.96 35.5196L68.67 35.6989L68.49 38.3891ZM65.96 35.5196L67.4 34.2542L68.67 35.6989L65.96 35.5196ZM62.07 38.3592L61.27 39.0567L58.74 36.1871L59.54 35.4797L62.07 38.3592ZM62.52 35.679L59.63 38.1998L59.65 38.2197L59.7 38.2795L59.88 38.4389L59.87 38.429L59.95 38.4788L60.02 38.5286L60.11 38.5784L60.16 38.6083L60.29 38.6681L60.39 38.698L60.34 38.688L60.48 38.7279L60.59 38.7578L60.71 38.7677H60.7L60.82 38.7777L60.93 38.7877L61.04 38.7777H61.15V38.7677L61.27 38.7578L61.49 38.698L61.52 38.688L61.47 38.698L61.67 38.6183L61.7 38.6083L61.92 38.4788L61.99 38.429H61.98L62.07 38.3592L59.54 35.4797L59.64 35.4L59.65 35.3901L59.74 35.3303L59.98 35.1908L59.99 35.1808L60.04 35.1509L60.26 35.0712L60.23 35.0812L60.27 35.0613L60.51 35.0015L60.64 34.9815L60.67 34.9716L60.79 34.9616H60.93H61.07L61.21 34.9815H61.22L61.35 35.0015L61.47 35.0314L61.63 35.0812L61.6 35.0712L61.72 35.1111L61.87 35.1808L61.93 35.2107L62.04 35.2705L62.13 35.3303L62.22 35.3901V35.4L62.42 35.5694L62.48 35.6391L62.52 35.679ZM65.77 45.1644L59.63 38.1998L62.52 35.679L68.66 42.6436L65.77 45.1644ZM68.46 45.6028L65.93 42.7333L65.85 42.813L65.8 42.8628L65.74 42.9226L65.75 42.9126L65.65 43.0421L65.57 43.1717L65.52 43.2514L65.48 43.351L65.43 43.4905L65.4 43.5901V43.5802V43.5702L65.38 43.6798L65.34 43.9189V43.909H65.35V44.1481L65.36 44.2677L65.35 44.2378V44.2477L65.37 44.3573L65.4 44.4669L65.44 44.6064L65.47 44.6662L65.46 44.6562L65.52 44.7957L65.57 44.8854L65.65 45.0149L65.7 45.0847V45.0747L65.77 45.1644L68.66 42.6436L68.74 42.7432L68.75 42.7532L68.81 42.8329L68.9 42.9823L68.96 43.082L69.03 43.2414V43.2514L69.06 43.3211L69.11 43.4805L69.14 43.6101L69.16 43.7396V43.7695V43.7595L69.18 43.889V44.1481V44.168V44.178L69.14 44.437L69.11 44.5566V44.5666V44.5765L69.07 44.6961L69.01 44.8555L68.96 44.9651L68.9 45.0647V45.0747L68.81 45.2242L68.7 45.3637L68.69 45.3736L68.63 45.4434L68.56 45.5131L68.46 45.6028ZM65.13 43.4307L65.93 42.7333L68.46 45.6028L67.66 46.3102L67.64 46.3301L65.13 43.4307ZM67.66 46.3102L67.64 46.3301L67.66 46.3102ZM64.68 46.1109L67.57 43.5901L67.56 43.5802L67.49 43.5104L67.44 43.4606L67.38 43.4008L67.39 43.4108L67.26 43.3111L67.12 43.2314L67.04 43.1816L66.94 43.1418H66.95L66.96 43.1517L66.82 43.0919L66.72 43.0621L66.61 43.0421L66.49 43.0222H66.5L66.38 43.0122L66.27 43.0023L66.15 43.0122H66.16H66.17L65.93 43.0421L65.82 43.0621L65.72 43.0919L65.58 43.1418H65.59L65.5 43.1816L65.41 43.2314H65.42L65.34 43.2713L65.22 43.361L65.15 43.4108L67.64 46.3301L67.56 46.3899L67.42 46.4895L67.32 46.5493L67.21 46.6091L67.1 46.6589H67.09L66.94 46.7187L66.81 46.7586L66.68 46.7885L66.42 46.8283H66.4H66.27H66.14L65.99 46.8084L65.85 46.7885L65.73 46.7586L65.61 46.7287L65.45 46.6589H65.44H65.43L65.32 46.6091L65.22 46.5493L65.07 46.4597L64.93 46.3501L64.92 46.3401L64.84 46.2803L64.78 46.2106L64.7 46.1309L64.68 46.1109ZM64.7 46.1309L64.68 46.1109L64.67 46.101L64.7 46.1309ZM66.85 42.7731L67.57 43.5901L64.68 46.1109L63.97 45.3039L66.85 42.7731ZM62.15 37.4426L66.85 42.7731L63.97 45.3039L59.26 39.9634L62.15 37.4426ZM61.43 36.6255L62.15 37.4426L59.26 39.9634L58.54 39.1463L61.43 36.6255ZM58.74 36.1871L61.27 39.0567L61.28 39.0467L61.35 38.977L61.4 38.9271L61.46 38.8674L61.45 38.8773L61.55 38.7478L61.63 38.6183L61.68 38.5286V38.5386L61.72 38.4389L61.77 38.2994V38.3094L61.8 38.2098L61.83 38.1002L61.85 37.9906L61.84 38.0005L61.86 37.881V37.7614V37.7714V37.6518L61.85 37.5522V37.5422L61.83 37.4326L61.77 37.2134L61.76 37.1835L61.77 37.2234L61.7 37.0341L61.68 36.9942V37.0042L61.55 36.775L61.5 36.7053V36.7152L61.43 36.6255L58.54 39.1463L58.46 39.0467L58.45 39.0367L58.39 38.957L58.25 38.7179L58.24 38.7079L58.22 38.6482L58.13 38.4389L58.14 38.4688L58.12 38.419L58.06 38.1799L58.04 38.0503V38.0304L58.02 37.9009V37.7714V37.7614V37.6219L58.04 37.4924V37.4824L58.06 37.3529L58.09 37.2234L58.13 37.1038V37.0938L58.19 36.9344L58.24 36.8248L58.25 36.8149L58.3 36.7152L58.39 36.5658L58.5 36.4263L58.51 36.4163L58.57 36.3466L58.64 36.2768L58.72 36.1971L58.74 36.1871ZM58.72 36.1971L58.74 36.1871L58.81 36.1174L58.72 36.1971ZM48.44 53.9922L48.61 54.1914L45.72 56.7122L45.55 56.513L48.44 53.9922ZM48.44 53.9922L48.51 54.0719L48.44 53.9922ZM45.77 53.1253L48.3 56.0048H48.31L48.37 55.9351L48.43 55.8853V55.8753L48.5 55.7956L48.54 55.7358L48.59 55.6661L48.63 55.5963L48.66 55.5365L48.67 55.5066L48.7 55.4269L48.72 55.3671L48.74 55.2974L48.76 55.2177L48.77 55.1978L48.78 55.0782L48.79 54.9985V54.9786V54.8989V54.8291L48.78 54.7494L48.77 54.6896L48.75 54.6099L48.73 54.5302L48.71 54.4704L48.69 54.4106L48.68 54.3907L48.65 54.321L48.58 54.1914L48.55 54.1416V54.1317L48.48 54.0519L48.44 53.9922L45.55 56.513L45.47 56.4233L45.38 56.2938L45.34 56.2439L45.29 56.1642L45.2 55.9949L45.14 55.8753L45.12 55.8155L45.08 55.7059L45.04 55.5963L45.01 55.4767L44.99 55.3472L44.97 55.2376L44.96 55.1181L44.95 54.9985V54.8789V54.8092L44.96 54.6797L44.99 54.5202L45 54.4505L45.03 54.321L45.06 54.2114L45.1 54.1018L45.15 53.9822L45.18 53.9025L45.23 53.8128L45.3 53.6933L45.37 53.5837L45.44 53.484L45.54 53.3645L45.58 53.3246L45.66 53.2349L45.77 53.1353V53.1253ZM45.77 53.1353V53.1253L45.7 53.1951L45.77 53.1353ZM48.86 55.5166L48.3 56.0048L45.77 53.1253L46.33 52.6371L49.04 52.8165L48.86 55.5166ZM46.33 52.6371L47.78 51.3817L49.04 52.8165L46.33 52.6371ZM46.97 56.2738L46.16 55.3373L49.04 52.8165L49.86 53.7431L49.68 56.4432L46.97 56.2738ZM49.86 53.7431L51.13 55.1778L49.68 56.4432L49.86 53.7431ZM46.59 54.0619L47.15 53.5637L49.68 56.4432L49.12 56.9314L49.08 56.9713L46.59 54.0619ZM49.12 56.9314L49.11 56.9414L49.08 56.9713L49.12 56.9314ZM45.72 56.7122L48.61 54.1914L48.57 54.1516L48.52 54.0918L48.46 54.042L48.43 54.0121L48.37 53.9722L48.3 53.9224L48.27 53.9025L48.2 53.8626L48.14 53.8327L48.06 53.8029L48 53.773L47.96 53.763L47.89 53.7431L47.78 53.7231L47.75 53.7132H47.72L47.65 53.7032H47.57H47.5H47.42L47.35 53.7132L47.28 53.7231H47.25L47.19 53.7431L47.11 53.763L47.04 53.7829L46.97 53.8128L46.89 53.8527L46.84 53.8826L46.81 53.9025L46.74 53.9423L46.7 53.9722L46.63 54.0221L49.08 56.9713L48.97 57.051L48.89 57.1108L48.78 57.1805L48.71 57.2204L48.61 57.2702L48.49 57.33L48.37 57.3798L48.26 57.4097L48.14 57.4495L48.03 57.4695L47.96 57.4894L47.84 57.5093L47.72 57.5193L47.6 57.5293H47.47L47.35 57.5193L47.24 57.5093L47.16 57.4994L47.08 57.4794L46.93 57.4495L46.81 57.4097L46.73 57.3898L46.62 57.3499L46.5 57.3001L46.4 57.2503L46.29 57.1805L46.22 57.1407L46.11 57.061L46.01 56.9912L45.94 56.9314L45.85 56.8418L45.76 56.7621L45.72 56.7122ZM45.76 56.7621L45.73 56.7222L45.72 56.7122L45.76 56.7621ZM47.17 55.4568L45.72 56.7122L47.17 55.4568ZM45.76 56.7621L45.73 56.7222L45.72 56.7122L45.76 56.7621ZM61.43 41.4579L49.7 51.7304L47.16 48.8509L58.9 38.5884L61.61 38.7578L61.43 41.4579ZM58.9 38.5884L60.34 37.323L61.61 38.7578L58.9 38.5884ZM62.58 45.6626L58.72 41.2885L61.61 38.7578L65.47 43.1318L65.29 45.8319L62.58 45.6626ZM65.47 43.1318L66.74 44.5765L65.29 45.8319L65.47 43.1318ZM51.02 53.2349L62.76 42.9624L65.29 45.8319L53.56 56.1045L53.55 56.1144L51.02 53.2349ZM53.56 56.1045L53.55 56.1144L53.59 56.0845L53.56 56.1045ZM48.46 56.0048L51.08 53.205L51.11 53.2349V53.225H51.1L51.09 53.215L51.1 53.225L51.09 53.215H51.08H51.09H51.06H51.07H51.06H51.07H51.06H51.07H51.05H51.04H51.05L51.04 53.225H51.03H51.04H51.03L53.55 56.1144L53.41 56.234L53.26 56.3436L53.11 56.4432L52.97 56.5329L52.81 56.6126L52.65 56.6923L52.49 56.7621L52.32 56.8318L52.16 56.8816L52 56.9215L51.82 56.9613L51.65 56.9912L51.49 57.0211L51.31 57.0311L51.14 57.041H50.97L50.8 57.0311L50.64 57.0211L50.44 56.9912L50.28 56.9613L50.12 56.9215L49.95 56.8717L49.79 56.8119L49.63 56.7521L49.46 56.6823L49.31 56.6126L49.16 56.5229L49 56.4233L48.85 56.3237L48.71 56.2141L48.57 56.1045L48.44 55.9749L48.46 56.0048ZM51.08 53.205L51.11 53.2349L51.09 53.215L51.08 53.205ZM48.23 55.7657L51.12 53.2349V53.2449L51.15 53.2847H51.16L51.04 53.1652H51.05L51.17 53.2947L51.05 53.1751L51.17 53.3047H51.18L50.93 53.0655L51.06 53.1851L51.18 53.3146L51.07 53.1951H51.08V53.205L51.2 53.3346L51.09 53.205L50.96 53.0954L51.21 53.3445L51.09 53.215L50.97 53.1054L51.1 53.225H51.11V53.2349L50.99 53.1154V53.1253L51.24 53.3744L51.12 53.2449L51 53.1353L51.08 53.205L48.46 56.0048L48.54 56.0746L48.41 55.955L48.29 55.8255L48.53 56.0646L48.4 55.9351H48.39V55.9251L48.51 56.0447L48.38 55.9251L48.26 55.7956L48.5 56.0347L48.37 55.9151L48.25 55.7856L48.37 55.9052H48.36V55.8952L48.23 55.7657L48.35 55.8853L48.47 56.0048L48.22 55.7557L48.34 55.8753L48.22 55.7458L48.33 55.8653L48.21 55.7358H48.2V55.7258L48.22 55.7557L48.23 55.7657ZM51.12 53.2349V53.2449L51.06 53.1751L51.12 53.2349ZM49.7 51.6407L51.12 53.2349L48.23 55.7657L46.82 54.1615L49.69 51.6208L49.7 51.6407ZM49.69 51.6208L49.7 51.6407L49.77 51.7105L49.69 51.6208ZM46.63 53.9324L49.71 51.6507L49.67 51.5909L49.65 51.571L49.78 51.7404L49.66 51.581L49.69 51.6208L49.67 51.5909V51.6009L49.8 51.7603L49.68 51.6009V51.6109L49.81 51.7703V51.7802L49.69 51.6208L49.82 51.7902L49.7 51.6308L49.73 51.6607L49.59 51.5112L49.71 51.6407L49.83 51.8101L49.71 51.6507H49.72V51.6607L49.61 51.5411L49.75 51.7005L49.73 51.6706L49.69 51.6208L46.83 54.1815L46.78 54.1217L46.76 54.0918L46.9 54.2413L46.77 54.1117V54.1018H46.76L46.64 53.9324L46.76 54.0918L46.87 54.2114L46.73 54.0519L46.75 54.0818L46.62 53.9125L46.74 54.0719L46.61 53.9025V53.8925L46.73 54.0519L46.6 53.8826L46.72 54.042L46.69 54.0121L46.71 54.032L46.58 53.8626L46.7 54.0221L46.68 53.9922L46.63 53.9324ZM46.68 53.9922L46.64 53.9523L46.63 53.9324L46.68 53.9922ZM47.16 48.8509L49.7 51.7304V51.7205H49.71L49.72 51.7105H49.71H49.72V51.7005V51.6906V51.7005V51.6906V51.6806V51.6906V51.6706V51.6806V51.6706V51.6607V51.6507V51.6607V51.6507H49.71L46.63 53.9324L46.53 53.7829L46.43 53.6335L46.34 53.4741L46.26 53.3246L46.19 53.1652L46.12 52.9958L46.06 52.8264L46.01 52.667L45.97 52.4877L45.94 52.3183L45.91 52.1489L45.9 51.9895L45.88 51.8002V51.6308L45.89 51.4714L45.9 51.292L45.92 51.1226L45.96 50.9533L45.99 50.7938L46.03 50.6344L46.09 50.4551L46.15 50.2957L46.21 50.1462L46.29 49.9768L46.37 49.8274L46.46 49.6779L46.56 49.5285L46.66 49.389L46.78 49.2395L46.9 49.11L47.03 48.9805L47.16 48.8609V48.8509ZM47.16 48.8609V48.8509L47.1 48.9107L47.16 48.8609ZM48.43 50.2957L47.16 48.8509L48.43 50.2957ZM47.16 48.8609V48.8509L47.1 48.9107L47.16 48.8609Z" fill="#8C52FF"/>
<path d="M45.77 55.6572L41.61 59.294C41.34 59.5231 41.31 59.9316 41.54 60.2006C41.78 60.4697 42.19 60.4896 42.45 60.2505L46.62 56.6137L45.77 55.6572Z" fill="#EBECEC"/>
<path d="M40.34 57.8591L44.51 54.2124L47.04 57.0919L42.88 60.7386L42.85 60.7586L40.34 57.8591ZM42.88 60.7386L42.85 60.7586L42.88 60.7386ZM42.99 58.9452L40.1 61.466L40.02 61.3663L39.94 61.2567L39.86 61.1471L39.8 61.0475L39.74 60.9379L39.69 60.8183L39.64 60.6988L39.59 60.5892L39.55 60.4497L39.52 60.3102L39.5 60.2106L39.49 60.1109L39.47 59.9714L39.46 59.8319V59.7323L39.47 59.5928L39.48 59.4533L39.5 59.3437L39.52 59.2441L39.55 59.1046L39.59 59.005L39.62 58.8954L39.69 58.726L39.73 58.6463L39.79 58.5466L39.87 58.4071L39.93 58.3175L39.99 58.2278L40.08 58.1182L40.19 58.0086L40.28 57.9189L40.37 57.8392L42.85 60.7586L42.89 60.7187L42.94 60.6788L43 60.6091L43.04 60.5593L43.07 60.5194L43.09 60.4796L43.14 60.3999L43.17 60.35L43.18 60.3202L43.23 60.2106L43.24 60.1707L43.26 60.1209L43.28 60.0511V60.0113L43.29 59.9515L43.3 59.8818V59.802V59.7622V59.6825L43.29 59.6028V59.5629L43.28 59.5231L43.26 59.4533L43.24 59.3736L43.22 59.3138L43.19 59.254L43.16 59.1943L43.13 59.1444L43.11 59.1046L43.07 59.0448L43.02 58.985L42.98 58.9352L42.99 58.9452ZM42.98 58.9352L42.99 58.9452L42.84 58.7658L42.98 58.9352ZM41.19 58.8156L43.72 61.6852L43.74 61.6752L43.64 61.7549L43.54 61.8346L43.45 61.8944L43.33 61.9741L43.21 62.0439L43.08 62.1037L42.97 62.1435L42.88 62.1834L42.74 62.2332L42.6 62.2631L42.47 62.293L42.37 62.3029L42.26 62.3228H42.16L42.02 62.3328L41.88 62.3228L41.74 62.3129L41.63 62.3029L41.53 62.283L41.39 62.2531L41.25 62.2132L41.15 62.1834L41.05 62.1435L40.92 62.0837L40.82 62.0339L40.69 61.9642L40.58 61.8844L40.47 61.8047L40.38 61.745L40.3 61.6652L40.19 61.5656L40.1 61.466L42.99 58.9452L42.94 58.8954L42.88 58.8256L42.84 58.7957L42.81 58.7758L42.75 58.7359L42.69 58.6961L42.62 58.6562L42.58 58.6263L42.5 58.5964L42.46 58.5765L42.42 58.5666L42.34 58.5466L42.26 58.5267L42.22 58.5167H42.17L42.1 58.5068H42.02H41.94H41.89L41.85 58.5167H41.81L41.74 58.5367L41.66 58.5566L41.58 58.5865L41.55 58.5964L41.5 58.6164L41.43 58.6463L41.36 58.6861L41.3 58.726L41.27 58.7559L41.22 58.7858L41.16 58.8356L41.19 58.8156ZM41.16 58.8356L41.19 58.8156L41.13 58.8555L41.16 58.8356ZM47.88 58.0484L43.72 61.6852L41.19 58.8156L45.35 55.169L48.06 55.3483L47.88 58.0484ZM48.06 55.3483L49.33 56.7831L47.88 58.0484L48.06 55.3483ZM47.21 54.3918L48.06 55.3483L45.17 57.8691L44.33 56.9126L44.51 54.2124L47.21 54.3918ZM44.51 54.2124L45.95 52.957L47.21 54.3918L44.51 54.2124Z" fill="#8C52FF"/>
<path d="M46.21 56.2943C46.85 57.0216 47.96 57.0913 48.7 56.4537L49.34 55.8857C50.52 56.6529 52.07 56.5533 53.13 55.6267L64.87 45.3542L65.17 45.6929C65.7 46.3007 66.63 46.3605 67.24 45.8324L68.04 45.125C68.65 44.587 68.71 43.6703 68.17 43.0625L66.33 40.9702L68.83 38.7782L69.94 40.0436C70.61 40.7908 71.76 40.8705 72.52 40.2129L72.78 39.9738C73.54 39.3162 73.62 38.1604 72.95 37.4132L68.28 32.1025C67.96 31.7439 67.51 31.5247 67.02 31.4948C66.54 31.4649 66.06 31.6243 65.7 31.9431L65.44 32.1723C64.68 32.8399 64.6 33.9857 65.27 34.7429L66.38 35.9983L63.88 38.1903L62.03 36.098C61.5 35.4902 60.57 35.4304 59.96 35.9684L59.16 36.6659C58.55 37.2039 58.49 38.1206 59.03 38.7284L59.32 39.0671L47.59 49.3396C46.53 50.2663 46.23 51.7807 46.84 53.0461L46.19 53.614C45.46 54.2517 45.39 55.3676 46.03 56.095C46.39 56.5035 45.85 55.8857 46.21 56.2943ZM50.29 53.9628C50.3 53.9727 50.31 53.9927 50.32 54.0026L50.36 54.0325C50.74 54.4012 51.35 54.4111 51.75 54.0624L61.38 45.6332C61.64 45.404 61.67 44.9955 61.44 44.7364L59.5 42.5345C59.27 42.2754 58.86 42.2455 58.6 42.4747L48.97 50.9039C48.56 51.2626 48.5 51.8804 48.83 52.3088L50.29 53.9628ZM58.96 43.8596L60.05 45.0951L51.09 52.9465L49.99 51.701L58.96 43.8596ZM66.28 33.1288L66.54 32.8996C66.77 32.7103 67.11 32.7303 67.32 32.9495L71.99 38.2501C72.19 38.4793 72.17 38.818 71.94 39.0173L71.68 39.2465C71.45 39.4457 71.1 39.4258 70.9 39.1967L66.23 33.896C66.03 33.6668 66.05 33.3281 66.28 33.1288ZM67.23 36.9548L67.99 37.8217L65.48 40.0137L64.72 39.1468L67.23 36.9548ZM60 37.6224L60.81 36.9249C60.89 36.8552 61 36.8552 61.07 36.9349L67.21 43.8995C67.28 43.9792 67.28 44.0988 67.2 44.1685L66.39 44.8759C66.31 44.9357 66.2 44.9357 66.13 44.856L65.41 44.039L60.71 38.7084L59.99 37.8914C59.92 37.8117 59.93 37.6921 60 37.6224ZM47.17 55.4573L46.99 55.258C46.81 55.0588 46.83 54.7499 47.04 54.5705L47.6 54.0823L48.42 55.0089L47.85 55.4972C47.65 55.6665 47.35 55.6466 47.17 55.4573ZM48.43 50.2961L60.17 40.0236L64.03 44.3977L52.29 54.6702C51.56 55.3079 50.47 55.278 49.77 54.6104C49.74 54.5705 49.7 54.5407 49.67 54.5008L48.26 52.8967C48.23 52.8668 48.2 52.8269 48.17 52.7871C47.59 52.0199 47.71 50.9338 48.43 50.2961Z" fill="white"/>
<path d="M45.77 55.6562L41.61 59.293C41.34 59.5221 41.31 59.9306 41.54 60.1997C41.78 60.4687 42.19 60.4886 42.45 60.2495L46.62 56.6128L45.77 55.6562Z" fill="white"/>
</svg>
