<svg width="40" height="40" viewBox="0 0 40 40" fill="none" xmlns="http://www.w3.org/2000/svg">
<rect width="40" height="40" rx="20" fill="#22222B"/>
<path fill-rule="evenodd" clip-rule="evenodd" d="M16.5161 12H23.4839C26.0645 12 28 14.0645 28 16.5161V23.4839C28 26.0645 26.0645 28 23.4839 28H16.5161C14.0645 28 12 26.0645 12 23.4839V16.5161C12 14.0645 14.0645 12 16.5161 12ZM23.6129 20.7742C23.3548 20.5161 23.4839 20.3871 23.6129 20.129C23.6129 20.129 25.0323 18.0645 25.1613 17.2903C25.2903 17.0323 25.1613 16.9032 24.7742 16.9032H23.6129C23.3548 16.9032 23.2258 17.0323 23.0968 17.2903C23.0968 17.2903 22.5806 18.7097 21.6774 19.7419C21.4194 20 21.2903 20.129 21.1613 20.129C21.0323 20.129 20.9032 20 20.9032 19.7419V17.2903C20.9032 17.0323 20.9032 16.9032 20.6452 16.9032H18.7097C18.5806 16.9032 18.4516 17.0323 18.4516 17.1613C18.4516 17.4194 18.8387 17.5484 18.9677 18.3226V20.129C18.9677 20.6452 18.8387 20.6452 18.7097 20.6452C18.3226 20.6452 17.2903 19.0968 16.7742 17.4194C16.6452 17.0323 16.5161 16.9032 16.2581 16.9032H14.9677C14.7097 16.9032 14.5806 17.0323 14.5806 17.2903C14.5806 17.5484 14.9677 19.2258 16.5161 21.2903C17.4194 22.8387 18.8387 23.6129 20.129 23.6129C20.7742 23.6129 20.9032 23.3548 20.9032 23.0968C20.9032 21.6774 20.9032 21.5484 21.2903 21.5484C21.4194 21.5484 21.6774 21.6774 22.4516 22.3226C23.2258 23.2258 23.3548 23.6129 23.7419 23.6129H25.0323C25.2903 23.6129 25.5484 23.3548 25.4194 23.0968C25.1613 22.3226 23.6129 20.7742 23.6129 20.7742Z" fill="#262626"/>
</svg>
