<svg width="24" height="24" viewBox="0 0 24 24" fill="none" xmlns="http://www.w3.org/2000/svg">
<path fill-rule="evenodd" clip-rule="evenodd" d="M1.5 8.36L8.36 1.5C10.36 -0.5 13.64 -0.5 15.64 1.5L22.5 8.36C24.5 10.36 24.5 13.64 22.5 15.64L15.64 22.5C13.64 24.5 10.36 24.5 8.36 22.5L1.5 15.64C-0.5 13.64 -0.5 10.36 1.5 8.36Z" fill="#8C52FF"/>
<path d="M8.96 16.4596C8.57 16.8496 7.93 16.8496 7.54 16.4596C7.15 16.0696 7.15 15.4296 7.54 15.0396L10.59 11.9996L7.54 8.95957C7.15 8.56957 7.15 7.92957 7.54 7.53957C7.93 7.14957 8.57 7.14957 8.96 7.53957L12 10.5896L15.04 7.53957C15.43 7.14957 16.07 7.14957 16.46 7.53957C16.85 7.92957 16.85 8.56957 16.46 8.95957L13.41 11.9996L16.46 15.0396C16.85 15.4296 16.85 16.0696 16.46 16.4596C16.07 16.8496 15.43 16.8496 15.04 16.4596L12 13.4196L8.96 16.4596Z" fill="white"/>
</svg>
