<svg width="20" height="24" viewBox="0 0 20 24" fill="none" xmlns="http://www.w3.org/2000/svg">
<path d="M17.0712 2.92881C15.1831 1.04068 12.6712 0 10 0C7.32881 0 4.81695 1.04068 2.92881 2.92881C1.04068 4.81695 0 7.32881 0 10C0 12.3356 0.823729 14.6068 2.31525 16.4C2.69831 16.8542 3.12203 17.2814 3.57627 17.661L9.50508 23.5932C9.64407 23.7288 9.82034 23.7966 10 23.7966C10.1797 23.7966 10.3559 23.7288 10.4949 23.5932L16.4237 17.661C16.878 17.2814 17.3017 16.8542 17.6814 16.4C19.1763 14.6068 20 12.3356 20 10C20 7.32881 18.9593 4.81695 17.0712 2.92881ZM10 16.2305C6.68814 16.2305 4.00678 13.5458 4.00678 10.2339C4.00678 6.92542 6.68814 4.24068 10 4.24068C13.3119 4.24068 15.9932 6.92542 15.9932 10.2339C15.9932 13.5458 13.3119 16.2305 10 16.2305Z" fill="#262626"/>
</svg>
