<svg width="130" height="45" viewBox="0 0 130 45" fill="none" xmlns="http://www.w3.org/2000/svg">
<path d="M15.4937 19.0523L111.499 6.66319L113.635 23.2225L17.6294 35.6217L15.4937 19.0523Z" fill="#FFC0BF"/>
<path d="M9.50143 39.0024C9.54192 38.9518 9.54192 38.9518 9.5318 38.8607L10.6756 38.1117C12.538 36.9275 14.2992 35.5812 16.0705 33.9921C17.1434 32.9799 18.0746 31.8969 18.9856 30.7127C19.5929 30.0244 20.1496 29.245 20.6557 28.4656C21.4148 27.4838 21.9412 26.4412 22.508 25.3886C22.761 24.8217 23.0242 24.346 23.2975 23.8197C23.8339 22.5443 24.1578 21.2487 24.6133 19.9835C24.8967 18.8195 25.2409 17.7061 25.2611 16.5725C25.3421 15.1655 25.251 13.8193 24.5627 12.8982C23.9858 12.048 23.1963 11.4508 22.174 11.1067C20.7265 10.6208 19.1779 10.5601 17.5584 10.5905C15.8478 10.6714 14.0664 10.9042 12.2343 11.5014C11.2323 11.9164 10.1695 12.0682 9.16741 12.4428L7.71999 12.8679C7.11268 13.1007 6.35354 13.6371 5.71587 13.5663C5.53367 13.5865 5.32112 13.7383 5.26039 14.0218C5.1288 14.4368 4.94661 14.8619 4.90612 15.3578C4.896 16.1372 4.8049 17.0482 5.01746 17.7871L5.10856 18.6879C5.17941 19.3054 5.4527 19.8216 5.99928 19.8621C6.32318 19.9127 6.58634 19.8924 6.85963 19.8621C7.51755 19.7001 8.20584 19.4066 8.98522 19.0118C9.15729 18.9916 9.28887 18.9308 9.51155 18.86C9.37997 19.4167 9.24839 19.8418 9.2079 20.3378C8.93461 21.6334 8.62083 22.929 8.34754 24.265C8.17547 25.2367 7.97303 26.34 7.71999 27.3522L6.44464 33.0002L6.02964 34.7108C5.90818 35.2169 5.86769 35.2675 5.38185 35.4497C4.44052 35.9153 5.9183 35.3484 4.88588 35.814C4.09638 36.1278 3.31699 36.391 2.53761 36.7857C2.06189 36.9173 1.59628 37.2412 1.09019 37.6056C0.827025 37.6765 0.584101 37.9801 0.482883 38.2534C0.361421 38.8101 0.18935 39.3769 0.0274009 39.9741C-0.0130864 40.0652 -0.03333 40.298 0.148863 40.2778C0.310812 40.5814 0.351299 40.9357 0.341178 41.3001C0.422152 41.6037 0.482883 41.7758 0.756172 41.8467C1.27239 42.0187 1.74811 42.2819 2.487 41.9378C2.52749 41.8871 2.65908 41.877 2.80078 41.9479C3.4587 41.7454 4.12674 41.6341 4.82515 41.4722C6.15111 41.1483 4.99722 41.3608 6.30293 40.8648C6.60659 40.794 6.95073 40.6219 7.19365 40.7333C7.47707 40.8345 7.59853 40.6928 7.79084 40.4397C8.20584 39.63 8.38803 39.6603 8.91437 39.468C9.36985 39.5186 10.0986 39.1239 10.544 38.6279L9.50143 39.0024ZM13.955 30.9556C10.4529 34.6197 7.81109 35.2978 9.72411 29.7713C9.90631 28.9413 9.92655 28.2126 10.0278 27.4838C10.3112 26.2793 10.6047 25.1153 10.8375 23.9209C11.1614 22.6253 11.4752 21.3297 11.6979 19.9936C11.7991 19.6191 11.9813 19.1535 12.1736 18.8195C12.1129 18.7284 12.2343 18.5361 12.3254 18.5361C12.5279 18.3741 12.791 18.3033 12.9631 18.2426C15.4126 17.4024 17.5989 17.1798 19.7346 17.3215C20.3723 17.3923 21.0201 17.5037 21.6173 17.6251C21.7995 17.6454 21.9614 17.8984 21.9007 18.1818C21.9007 19.5382 21.4553 20.8945 20.8379 22.352C20.018 24.0626 18.9147 25.6214 17.7204 27.1396C16.5968 28.5668 15.3316 29.8219 13.955 30.9556Z" fill="#1A1A1A"/>
<path d="M38.0247 28.3543C38.0247 28.3543 38.0753 28.3442 38.0652 28.3037C38.3283 28.6782 38.6421 29.0527 38.7332 29.498C38.8142 29.8017 38.9761 30.1054 39.0976 30.409C39.5126 30.905 39.796 31.4617 40.0794 32.0184C40.3831 32.403 40.6766 32.6358 40.5551 33.233C40.5248 33.3747 40.6159 33.3646 40.626 33.4152C40.7879 33.6682 40.9398 33.8707 41.1422 34.0326C41.4459 34.4071 41.7596 34.8322 42.0329 35.2574C42.1848 35.4598 42.2556 35.6825 42.4176 35.895L43.6322 37.1704C43.8751 37.4133 44.1383 37.3425 44.5533 36.9376L45.2719 36.0469C45.6363 35.6521 45.6667 35.5104 45.5047 35.2169C45.282 34.4274 45.11 33.6277 44.948 32.8281C44.8974 32.7876 44.9379 32.7876 44.9379 32.7472C44.9379 32.3322 45.029 31.8767 44.6849 31.6439C44.6849 31.5933 44.7152 31.4516 44.7456 31.3605C44.7051 30.5102 44.7051 29.6499 44.7152 28.7895C44.6848 28.5668 44.6545 28.3037 44.5938 28.081C44.5533 27.6761 44.3913 27.4231 44.2597 27.0789C44.1788 26.6842 44.0067 26.34 43.9257 25.9858C43.7536 25.6416 43.6322 25.2874 43.5006 24.9432C43.369 24.5485 43.2374 24.1537 43.1565 23.759C42.7516 22.0383 42.3062 22.1294 43.8245 21.0261C45.4035 19.69 46.6991 18.2021 47.934 16.6332C48.4805 15.8133 48.9866 15.034 49.3105 14.2343C49.9988 12.5845 50.2923 11.0662 50.0697 9.68962C49.8571 8.53574 49.432 7.49319 48.7336 6.79478C47.8935 6.06601 46.7699 5.73199 45.4642 5.7826C44.9177 5.74211 44.2901 5.76236 43.703 5.7826C42.3872 5.73199 40.7879 5.94455 39.3304 6.22796C37.2554 6.71381 35.1298 7.14905 33.0447 7.95879L29.907 9.09244C29.6134 9.25439 29.2288 9.42646 29.077 9.76048L28.2065 11.3901C28.085 11.5318 28.0952 11.6229 28.0648 11.7646C27.9231 12.1796 27.7409 12.5642 27.6498 12.9792C27.498 13.7586 27.6599 14.4671 27.7308 15.1352C27.7915 15.2668 27.8522 15.3983 27.9535 15.5198C28.0547 15.6919 28.1761 15.9044 28.3179 16.0259C28.581 16.4004 29.0871 16.4915 29.7349 16.1474C31.0001 15.2971 33.1156 15.2161 31.8504 17.4733C30.9394 19.9532 30.1904 22.3824 29.5831 24.8319L29.1883 26.2287C29.0365 26.5222 28.915 26.6639 28.6114 26.7854L27.4474 27.3117C27.2753 27.4231 27.1032 27.4838 26.9716 27.5445C27.0324 27.6761 27.164 27.7065 27.2652 27.7368C27.3158 27.8178 27.498 27.8482 27.5081 27.9393C27.5385 28.2531 27.6802 28.2834 27.913 28.3037C28.5 28.334 28.5 28.334 28.2976 28.9818C28.2976 29.0729 28.2268 29.2652 28.1964 29.3563C27.8522 30.4293 27.5587 31.5427 27.3158 32.6054C27.164 32.9901 27.1538 33.3038 27.2348 33.6075C27.2955 33.7391 27.2652 33.9213 27.1943 34.1136C27.0121 35.0347 26.8299 35.8647 26.6073 36.7453C26.4453 37.3931 26.3643 37.9396 26.4656 38.4761C26.4453 38.6583 26.4554 38.8405 26.3846 39.0227C26.2631 39.5389 26.3643 39.7008 26.7692 39.6604C26.9514 39.6401 27.083 39.5895 27.2146 39.6199C27.4373 39.5996 27.6194 39.5794 27.8118 39.2352C27.8522 39.1948 28.0648 39.1239 28.1053 39.0733C28.328 39.053 28.6316 38.8405 28.8341 38.6887C29.4009 38.4053 29.8766 38.2129 30.2815 37.7676C30.322 37.7676 30.322 37.7676 30.3625 37.717L31.5265 37.1906C32.1338 36.8971 32.3362 36.6542 32.488 36.0064C32.6601 35.4497 32.7411 34.9436 32.9132 34.3869C33.2472 33.2634 33.5407 32.15 33.9152 30.986C34.2391 30.1357 34.5124 29.2551 34.6541 28.4656C34.8566 27.7672 34.9679 27.1295 35.1703 26.4716C35.1906 26.2489 35.312 26.0971 35.5651 25.9352C36.2432 25.4594 36.5165 25.5303 36.7493 25.9959C37.0935 26.7753 37.4073 27.5547 37.7109 28.334C37.7818 28.5972 37.9437 28.8502 38.136 28.9717C38.1765 28.9717 38.1765 28.9211 38.217 28.9211C38.1563 28.6984 38.136 28.5162 38.0247 28.3543ZM42.8832 18.9612C40.4337 20.5605 36.0914 25.7935 35.2817 20.9147C35.2715 20.4593 35.14 20.024 34.9274 19.6799C34.7756 19.5179 34.6541 19.2548 34.5833 19.0422L34.3606 18.111C34.0671 15.2971 34.1581 15.2465 38.6725 13.4752C39.9984 13.2019 41.2738 12.9387 42.4985 12.8982C42.9034 12.9084 43.2982 12.8173 43.703 12.7768C44.6747 12.6351 45.4237 12.8679 46.1323 13.2019C46.7497 13.4549 46.7295 14.1331 46.1323 14.9631C45.3934 16.0765 44.614 17.2911 43.6727 18.2426L42.8832 18.9612Z" fill="#1A1A1A"/>
<path d="M85.0003 22.7569C85.0611 22.8885 85.0307 23.0201 85.0914 23.1517C85.2433 24.7205 85.638 26.2591 86.3972 27.5344C87.2778 29.1134 88.4721 30.2167 90.1017 31.0366C90.7192 31.3807 91.4581 31.573 92.2273 31.5427C92.5411 31.5123 92.8549 31.5629 93.1788 31.5831C93.5938 31.6742 94.0391 31.6236 94.5047 31.3099C94.7679 31.1884 95.0209 31.1175 95.2841 30.9556C96.4178 30.571 97.3287 29.8422 98.017 29.0122C98.7863 28.1114 99.3733 27.2915 100.051 26.4514C100.163 26.2084 100.406 25.9149 100.426 25.6922C100.871 24.7408 101.458 23.8197 101.58 22.8176C101.772 22.0281 102.096 21.269 102.157 20.4997C102.349 19.3054 102.673 18.0503 102.633 16.8356C102.582 15.8538 102.835 14.791 102.865 13.7485C102.815 13.2525 102.805 12.7565 102.754 12.2707C102.835 12.129 102.754 11.8557 102.835 11.714C103.159 10.8739 103.321 9.8617 103.311 8.91025C103.24 7.70575 103.068 6.50125 102.602 5.46882C102.177 4.37567 101.752 3.34324 101.043 2.60435C100.436 1.98691 99.8491 1.50107 99.2013 0.984854C98.8166 0.660955 98.2093 0.539493 97.5413 0.569859C96.0635 0.762174 94.525 1.18729 93.3002 2.3513C92.8448 2.80678 92.4298 3.16105 91.9743 3.57604C91.8629 3.80884 91.6605 3.97079 91.3265 3.86958C90.79 3.8797 90.2536 3.97079 89.8183 4.51737C89.2616 5.29675 88.7555 6.11662 88.4822 6.95673L87.632 9.2139C87.3992 9.59853 87.2373 10.1957 87.1057 10.6714L85.4255 16.7951C84.9194 18.8398 84.6258 20.8135 85.0003 22.7569ZM88.7151 17.0887C89.626 17.1798 90.3447 17.1494 91.0026 17.4429C91.2961 17.5948 91.6403 17.4733 91.9945 17.4328C92.2172 17.4126 92.4703 17.2506 92.45 16.9773C92.7435 15.9145 93.1383 14.9226 93.4723 13.7991C93.4622 13.6675 93.5027 13.5764 93.6241 13.4752C93.8367 12.8679 93.9986 12.3112 94.1201 11.7039C94.2821 11.0561 94.6363 10.5702 94.8894 10.0034C95.3044 9.19366 95.6283 8.39403 96.0433 7.58429C96.1951 7.29075 96.3975 7.08832 96.5696 7.02759C96.8631 6.77454 97.1668 6.70369 97.4299 6.54174C98.0373 6.29881 98.5433 6.42028 98.9381 6.78466C99.4847 7.23002 99.7175 7.74623 99.7478 8.46488C99.8288 10.1755 99.7985 12.0683 99.6972 13.7586C99.4847 16.4409 98.8976 19.0726 97.8854 21.522C96.9745 23.7387 95.5979 25.6416 94.0493 27.332C93.6039 27.8381 93.0067 28.1215 92.45 28.4454C92.197 28.6579 91.8326 28.5972 91.5492 28.4555C90.8305 28.0709 90.5471 27.4737 90.3244 26.6842C90.0309 25.5404 89.6463 24.4068 89.2009 23.182C89.0794 22.4735 88.7859 21.8257 88.5733 21.0767C88.5329 20.5908 88.6138 20.1252 88.6037 19.5888C88.6037 19.0928 88.5835 18.5057 88.7049 17.9086C88.6847 17.6859 88.6543 17.4126 88.7151 17.0887Z" fill="#1A1A1A"/>
<path d="M106.914 13.9104C106.883 14.042 106.944 14.1736 106.914 14.2647C107.268 13.374 107.44 12.4124 108.017 11.4407C108.007 11.7646 107.956 12.0885 107.896 12.4023L106.57 17.1494C105.689 20.439 105.163 23.6173 105.335 26.6234C105.406 27.747 105.527 28.9008 105.375 30.1357C105.325 30.4596 105.78 30.9556 106.003 30.9758C106.549 31.0163 107.167 30.905 107.835 30.743C108.402 30.5507 108.958 30.2268 109.495 29.8017C109.788 29.5486 110.021 29.2146 110.426 29.1235C110.507 29.1134 110.628 28.9717 110.709 28.83C111.195 28.2834 111.317 27.7267 111.388 27.1295C111.499 26.4008 111.641 25.6113 111.965 24.8116C112.248 24.0626 112.44 23.3136 112.683 22.5747C112.886 21.9168 113.139 21.2589 113.574 20.6718C114.242 19.7507 114.738 18.7993 115.082 17.8073C115.376 17.0988 115.71 16.4409 116.185 15.8032C116.671 15.1655 117.046 14.4975 117.299 13.8396C117.582 13.131 117.967 12.5035 118.503 11.9063C118.827 11.6026 119.06 11.218 119.252 10.884L122.41 5.18541C124.161 4.63883 121.864 9.98315 121.722 12.1189C121.56 13.131 121.388 14.1432 121.175 15.1048L121.266 15.0947C121.418 14.4469 121.58 13.7586 121.692 13.1108C121.783 13.1007 121.823 13.1007 121.864 13.0501C121.621 13.7586 121.894 14.2242 121.611 14.9327C121.317 15.5906 121.509 16.198 121.034 16.8356C121.145 17.0077 121.327 17.0786 121.297 17.2203C121.287 17.534 121.236 17.8984 121.135 18.2324C120.963 18.7385 121.003 19.1839 121.165 19.4471C121.479 19.8621 120.993 21.269 120.963 21.8561C120.943 22.0889 120.922 22.3115 120.943 22.4937C121.155 23.2832 121.378 24.1132 121.631 24.8622C122.096 26.3501 123.767 26.2692 125.184 25.5809C125.821 25.2469 126.459 24.8116 127.097 24.3865C127.431 24.174 127.714 23.8703 127.947 23.4857C128.251 22.9188 128.564 22.433 128.868 21.9067C129.101 21.4714 129.323 21.0463 129.506 20.6212C129.546 20.5301 129.566 20.3479 129.475 20.3074C129.273 20.105 129.192 19.7912 129.151 19.3965C128.332 20.1961 127.937 21.188 126.975 21.9168L126.641 21.3196C126.631 21.2285 126.58 21.1475 126.53 21.0564C126.267 20.773 126.601 19.5685 126.722 19.0118C126.854 18.4956 126.803 18.0502 126.631 17.6251C126.57 17.4935 126.591 17.3114 126.621 17.119C126.672 16.7142 126.813 16.3397 126.813 15.9247C126.914 15.1959 126.975 14.4266 127.167 13.6371C127.259 13.2626 127.137 12.9185 127.279 12.544C127.542 11.9772 127.613 11.4205 127.744 10.9144C128.018 9.61877 129.485 6.30893 129.759 5.06394C130.022 3.63677 130.113 2.27032 129.809 1.08607C129.607 0.428147 129.161 0.0637615 128.433 0.0030305C127.522 -0.0374568 126.52 0.337051 125.558 0.569853C125.376 0.630584 125.123 0.752046 124.941 0.772289C124.576 0.762168 124.242 0.974726 123.959 1.27838L123.503 1.68325C121.833 2.98897 119.445 6.61258 118.402 8.30293C117.552 9.69974 116.843 11.1269 116.084 12.5136C114.029 15.4287 114.657 13.6068 115.102 9.99327C115.193 9.17341 115.112 8.41427 115.517 7.51343C115.639 7.32111 115.568 7.10855 115.507 6.97697C115.325 6.54173 115.153 6.10649 114.89 5.77247C114.303 4.84126 113.149 4.63883 111.934 4.67931C111.216 4.70968 110.436 5.01334 109.748 4.94248C109.343 4.94248 109.171 5.09431 109.039 5.55991C108.847 6.25832 108.645 6.95673 108.493 7.64501L106.914 13.9104Z" fill="#1A1A1A"/>
<path d="M35.6665 40.4802C35.211 40.4802 34.8466 40.632 34.5733 40.9458C34.3101 41.2495 34.1684 41.6746 34.1684 42.2009C34.1684 42.7576 34.3 43.1929 34.5531 43.4864C34.8162 43.7901 35.1907 43.9419 35.6665 43.9419C35.96 43.9419 36.294 43.8913 36.6786 43.7799V44.2051C36.375 44.3164 36.0207 44.3771 35.5956 44.3771C34.968 44.3771 34.4923 44.1848 34.1482 43.8103C33.8142 43.4358 33.6421 42.8993 33.6421 42.2009C33.6421 41.7657 33.7231 41.3912 33.8951 41.0673C34.0571 40.7333 34.2899 40.4802 34.5935 40.3081C34.9073 40.126 35.2616 40.0349 35.6766 40.0349C36.1219 40.0349 36.5066 40.1158 36.8406 40.2778L36.628 40.7029C36.3041 40.5511 35.9904 40.4802 35.6665 40.4802Z" fill="#1A1A1A"/>
<path d="M44.0168 42.2009C44.0168 42.8791 43.8447 43.4155 43.5107 43.8002C43.1666 44.1848 42.6908 44.3771 42.0835 44.3771C41.4661 44.3771 40.9803 44.1848 40.6361 43.8002C40.3021 43.4257 40.1401 42.8892 40.1401 42.2009C40.1401 41.5126 40.3122 40.9762 40.6462 40.6017C40.9904 40.2272 41.4661 40.0349 42.0835 40.0349C42.6908 40.0349 43.1666 40.2272 43.5107 40.6118C43.8447 40.9964 44.0168 41.5228 44.0168 42.2009ZM40.6564 42.2009C40.6564 42.7779 40.7778 43.203 41.0207 43.4965C41.2637 43.7901 41.6179 43.9419 42.0835 43.9419C42.5491 43.9419 42.9034 43.8002 43.1463 43.5066C43.3791 43.2131 43.5006 42.7779 43.5006 42.2009C43.5006 41.6442 43.3791 41.209 43.1463 40.9155C42.9034 40.6219 42.5491 40.4701 42.0835 40.4701C41.6179 40.4701 41.2637 40.6219 41.0207 40.9155C40.7778 41.209 40.6564 41.6442 40.6564 42.2009Z" fill="#1A1A1A"/>
<path d="M50.1099 43.1929C50.1099 43.5674 49.9682 43.8609 49.7051 44.0735C49.4318 44.2759 49.0674 44.3771 48.6018 44.3771C48.1058 44.3771 47.7212 44.3164 47.458 44.1747V43.699C47.62 43.7799 47.8123 43.8407 48.0147 43.8812C48.2171 43.9216 48.4297 43.9419 48.6321 43.9419C48.956 43.9419 49.199 43.8812 49.3609 43.7597C49.5229 43.6382 49.6038 43.4662 49.6038 43.2435C49.6038 43.0916 49.5735 42.9803 49.5229 42.8892C49.4621 42.788 49.3609 42.707 49.2293 42.626C49.0876 42.5451 48.8852 42.454 48.6018 42.3629C48.207 42.2212 47.9337 42.0491 47.7617 41.8568C47.5896 41.6645 47.5086 41.4114 47.5086 41.1078C47.5086 40.7839 47.6301 40.5207 47.873 40.3284C48.1159 40.1361 48.4398 40.0349 48.8447 40.0349C49.2597 40.0349 49.6443 40.1158 49.9986 40.2778L49.8468 40.7029C49.5026 40.5511 49.1585 40.4802 48.8346 40.4802C48.5714 40.4802 48.369 40.5308 48.2171 40.6523C48.0754 40.7535 48.0046 40.9053 48.0046 41.1078C48.0046 41.2596 48.035 41.3811 48.0856 41.4722C48.1362 41.5633 48.2273 41.6543 48.3589 41.7252C48.4904 41.8062 48.6828 41.8872 48.9459 41.9884C49.3812 42.1402 49.6848 42.3123 49.8569 42.4945C50.029 42.6665 50.1099 42.8993 50.1099 43.1929Z" fill="#1A1A1A"/>
<path d="M55.6064 44.3164L54.1691 40.5814H54.159C54.1792 40.875 54.1894 41.2292 54.1894 41.6341V44.3164H53.7339V40.1057H54.4829L55.819 43.5775H55.8291L57.1854 40.1057H57.9142V44.3164H57.4182V41.6037C57.4182 41.29 57.4385 40.9559 57.4688 40.5916H57.4385L56.0012 44.3164H55.6064Z" fill="#1A1A1A"/>
<path d="M64.1793 44.3164H61.8311V40.1057H64.1793V40.541H62.327V41.8872H64.068V42.3224H62.327V43.871H64.1793V44.3164Z" fill="#1A1A1A"/>
<path d="M69.19 44.3164H68.694V40.541H67.3579V40.1057H70.5159V40.541H69.19V44.3164Z" fill="#1A1A1A"/>
<path d="M76.1941 44.3164C76.0321 44.3569 75.85 44.3771 75.6475 44.3771C75.4552 44.3771 75.2629 44.3569 75.0908 44.3164H76.1941Z" fill="#1A1A1A"/>
<path d="M81.2954 44.3164V40.1057H81.7813V43.871H83.6437V44.3164H81.2954Z" fill="#1A1A1A"/>
<path d="M96.347 42.0997H97.7741V44.1544C97.5616 44.2253 97.3288 44.286 97.096 44.3164C96.8733 44.3569 96.6 44.3771 96.2963 44.3771C95.6587 44.3771 95.1627 44.1848 94.8084 43.8002C94.4542 43.4257 94.272 42.8892 94.272 42.2009C94.272 41.7657 94.3631 41.3912 94.5351 41.0572C94.7072 40.7333 94.9603 40.4802 95.2943 40.298C95.6283 40.126 96.0129 40.0349 96.4583 40.0349C96.9138 40.0349 97.3288 40.1158 97.7134 40.2879L97.5312 40.713C97.1466 40.5612 96.7822 40.4802 96.4279 40.4802C95.9117 40.4802 95.517 40.632 95.2234 40.9357C94.94 41.2394 94.7882 41.6645 94.7882 42.2009C94.7882 42.7779 94.9299 43.2131 95.2032 43.5066C95.4866 43.8002 95.8915 43.9419 96.4279 43.9419C96.7316 43.9419 97.015 43.9014 97.2883 43.8407V42.5451H96.347V42.0997Z" fill="#1A1A1A"/>
<path d="M102.632 42.2009L103.756 40.1057H104.292L102.875 42.6868V44.3164H102.389V42.707L100.982 40.1057H101.519L102.632 42.2009Z" fill="#1A1A1A"/>
<path d="M77.5808 42.2009C77.5808 42.8791 77.4188 43.4155 77.0747 43.8002C76.7305 44.1848 76.2548 44.3771 75.6475 44.3771C75.0301 44.3771 74.5442 44.1848 74.2102 43.8002C73.8661 43.4257 73.7041 42.8892 73.7041 42.2009C73.7041 41.5126 73.8762 40.9762 74.2102 40.6017C74.5543 40.2272 75.0301 40.0349 75.6475 40.0349C76.2548 40.0349 76.7305 40.2272 77.0747 40.6118C77.4188 40.9964 77.5808 41.5228 77.5808 42.2009ZM74.2203 42.2009C74.2203 42.7779 74.3418 43.203 74.5847 43.4965C74.8276 43.7901 75.192 43.9419 75.6475 43.9419C76.1131 43.9419 76.4674 43.8002 76.7103 43.5066C76.9431 43.2131 77.0645 42.7779 77.0645 42.2009C77.0645 41.6442 76.9431 41.209 76.7103 40.9155C76.4674 40.6219 76.1131 40.4701 75.6475 40.4701C75.192 40.4701 74.8276 40.6219 74.5847 40.9155C74.3418 41.209 74.2203 41.6442 74.2203 42.2009Z" fill="#222222"/>
<path d="M90.7896 42.2009C90.7896 42.8791 90.6175 43.4155 90.2734 43.8002C89.9394 44.1848 89.4637 44.3771 88.8563 44.3771C88.2288 44.3771 87.7429 44.1848 87.4089 43.8002C87.0749 43.4257 86.9028 42.8892 86.9028 42.2009C86.9028 41.5126 87.0749 40.9762 87.419 40.6017C87.7531 40.2272 88.2389 40.0349 88.8563 40.0349C89.4637 40.0349 89.9394 40.2272 90.2734 40.6118C90.6175 40.9964 90.7896 41.5228 90.7896 42.2009ZM87.4292 42.2009C87.4292 42.7779 87.5405 43.203 87.7936 43.4965C88.0365 43.7901 88.3907 43.9419 88.8563 43.9419C89.3219 43.9419 89.6661 43.8002 89.909 43.5066C90.1519 43.2131 90.2633 42.7779 90.2633 42.2009C90.2633 41.6442 90.1519 41.209 89.909 40.9155C89.6661 40.6219 89.3219 40.4701 88.8563 40.4701C88.3907 40.4701 88.0365 40.6219 87.7936 40.9155C87.5405 41.209 87.4292 41.6442 87.4292 42.2009Z" fill="#222222"/>
<path d="M72.9956 24.8015C72.9956 24.8015 73.0463 24.7914 73.0361 24.7509C73.3094 25.1254 73.6131 25.4999 73.7042 25.9453C73.7851 26.2489 73.9471 26.5526 74.0686 26.8562C74.4836 27.3522 74.767 27.9089 75.0504 28.4656C75.354 28.8502 75.6476 29.083 75.5362 29.6802C75.5059 29.8219 75.5868 29.8118 75.597 29.8624C75.7589 30.1155 75.9107 30.328 76.1132 30.4798C76.4168 30.8544 76.7306 31.2795 77.0039 31.7046C77.1658 31.907 77.2266 32.1297 77.3885 32.3423L78.6031 33.6176C78.8562 33.8605 79.1194 33.7897 79.5242 33.3848L80.253 32.4941C80.6073 32.0993 80.6478 31.9576 80.4757 31.6641C80.2631 30.8746 80.091 30.075 79.919 29.2855C79.8684 29.245 79.9089 29.2349 79.9089 29.1944C79.9089 28.7895 80 28.3239 79.6558 28.0911C79.6558 28.0405 79.6862 27.9089 79.7165 27.8077C79.6761 26.9575 79.6862 26.0971 79.6862 25.2367C79.6659 25.0141 79.6356 24.7509 79.5647 24.5282C79.5242 24.1233 79.3623 23.8703 79.2408 23.5262C79.1497 23.1314 78.9777 22.7873 78.8967 22.433C78.7347 22.0889 78.6031 21.7346 78.4716 21.3904C78.3501 20.9957 78.2185 20.6009 78.1274 20.2062C77.7225 18.4855 77.2873 18.5766 78.7955 17.4733C80.3745 16.1372 81.6701 14.6493 82.9049 13.0804C83.4515 12.2606 83.9576 11.4812 84.2815 10.6816C84.9799 9.0317 85.2734 7.51342 85.0406 6.13685C84.8281 4.98296 84.403 3.94042 83.7045 3.24201C82.8644 2.51324 81.7409 2.17922 80.4352 2.22983C79.8886 2.18934 79.2611 2.20958 78.674 2.22983C77.3683 2.17922 75.7589 2.39178 74.3014 2.67519C72.2264 3.16104 70.1008 3.6064 68.0157 4.40602L64.8881 5.53966C64.5844 5.70161 64.1998 5.87368 64.0479 6.20771L63.1775 7.83732C63.056 7.97902 63.0661 8.07012 63.0358 8.21183C62.9042 8.62682 62.7119 9.01145 62.6208 9.42645C62.4791 10.2058 62.6309 10.9144 62.7017 11.5824C62.7625 11.714 62.8232 11.8456 62.9244 11.967C63.0358 12.1391 63.1471 12.3517 63.2888 12.4731C63.5621 12.8577 64.0682 12.9387 64.7059 12.6047C65.9711 11.7443 68.0866 11.6634 66.8315 13.9205C65.9104 16.4004 65.1614 18.8296 64.5642 21.2791L64.1593 22.6759C64.0075 22.9695 63.886 23.1112 63.5823 23.2326L62.4183 23.759C62.2463 23.8703 62.0742 23.931 61.9426 23.9918C62.0033 24.1233 62.145 24.1537 62.2361 24.1841C62.2868 24.2752 62.4791 24.2954 62.4791 24.3865C62.5196 24.7003 62.6511 24.7307 62.8839 24.7509C63.471 24.7813 63.471 24.7813 63.2686 25.4392C63.2787 25.5202 63.2078 25.7125 63.1674 25.8036C62.8333 26.8765 62.5398 27.9899 62.2868 29.0527C62.145 29.4373 62.1248 29.7511 62.2058 30.0547C62.2665 30.1863 62.2361 30.3685 62.1653 30.5608C61.9932 31.4819 61.811 32.3119 61.5782 33.1925C61.4163 33.8403 61.3454 34.397 61.4466 34.9233C61.4163 35.1055 61.4365 35.2877 61.3657 35.4699C61.2341 35.9861 61.3454 36.1481 61.7402 36.1076C61.9224 36.0975 62.054 36.0367 62.1957 36.0671C62.4183 36.0469 62.5904 36.0266 62.7827 35.6926C62.8232 35.642 63.0459 35.5711 63.0864 35.5205C63.3091 35.5003 63.6026 35.2877 63.805 35.1359C64.3718 34.8525 64.8476 34.6703 65.2524 34.2148C65.2929 34.2148 65.2929 34.2148 65.3334 34.1642L66.4974 33.6379C67.1047 33.3545 67.3072 33.1014 67.4691 32.4536C67.6311 31.8969 67.7121 31.3908 67.8841 30.8341C68.2181 29.7106 68.5117 28.5972 68.8862 27.4332C69.2101 26.5829 69.4834 25.7023 69.6251 24.9128C69.8275 24.2246 69.9389 23.5768 70.1413 22.929C70.1615 22.6962 70.283 22.5443 70.536 22.3824C71.2142 21.9067 71.4875 21.9775 71.7203 22.4431C72.0746 23.2225 72.3782 24.0019 72.6819 24.7813C72.7527 25.0545 72.9147 25.2975 73.107 25.4189C73.1576 25.4189 73.1475 25.3683 73.1981 25.3683C73.1272 25.1456 73.107 24.9736 72.9956 24.8015ZM77.8642 15.4084C75.4046 17.0077 71.0725 22.2407 70.2526 17.362C70.2526 16.9065 70.121 16.4712 69.8984 16.1271C69.7465 15.9651 69.6352 15.702 69.5643 15.4894L69.3315 14.5683C69.0481 11.7443 69.1291 11.6937 73.6434 9.92242C74.9694 9.64913 76.2549 9.38596 77.4695 9.34547C77.8744 9.35559 78.2691 9.2645 78.674 9.22401C79.6558 9.0823 80.3947 9.31511 81.1134 9.65925C81.7207 9.90217 81.7004 10.5905 81.1134 11.4103C80.3643 12.5237 79.585 13.7383 78.6436 14.6898L77.8642 15.4084Z" fill="#1A1A1A"/>
</svg>
