<svg width="130" height="45" viewBox="0 0 130 45" fill="none" xmlns="http://www.w3.org/2000/svg">
<path d="M15.4937 19.0516L111.499 6.66309L113.635 23.2215L17.6294 35.6201L15.4937 19.0516Z" fill="#262626"/>
<path d="M9.50143 39.0024C9.54192 38.9518 9.54192 38.9518 9.5318 38.8607L10.6756 38.1117C12.538 36.9275 14.2992 35.5813 16.0705 33.9921C17.1434 32.98 18.0746 31.8969 18.9856 30.7127C19.5929 30.0244 20.1496 29.245 20.6557 28.4656C21.4148 27.4838 21.9412 26.4413 22.508 25.3886C22.761 24.8218 23.0242 24.346 23.2975 23.8197C23.8339 22.5444 24.1578 21.2488 24.6133 19.9835C24.8967 18.8195 25.2409 17.7061 25.2611 16.5725C25.3421 15.1655 25.251 13.8193 24.5627 12.8983C23.9858 12.048 23.1963 11.4508 22.174 11.1067C20.7265 10.6208 19.1779 10.5601 17.5584 10.5905C15.8478 10.6715 14.0664 10.9043 12.2343 11.5014C11.2323 11.9164 10.1695 12.0683 9.16741 12.4428L7.71999 12.8679C7.11268 13.1007 6.35354 13.6371 5.71587 13.5663C5.53367 13.5865 5.32112 13.7384 5.26039 14.0218C5.1288 14.4368 4.94661 14.8619 4.90612 15.3579C4.896 16.1372 4.8049 17.0482 5.01746 17.7871L5.10856 18.6879C5.17941 19.3054 5.4527 19.8216 5.99928 19.8621C6.32318 19.9127 6.58634 19.8924 6.85963 19.8621C7.51755 19.7001 8.20584 19.4066 8.98522 19.0118C9.15729 18.9916 9.28887 18.9309 9.51155 18.86C9.37997 19.4167 9.24839 19.8418 9.2079 20.3378C8.93461 21.6334 8.62083 22.929 8.34754 24.2651C8.17547 25.2368 7.97303 26.34 7.71999 27.3522L6.44464 33.0002L6.02964 34.7108C5.90818 35.2169 5.86769 35.2675 5.38185 35.4497C4.44052 35.9153 5.9183 35.3485 4.88588 35.8141C4.09638 36.1278 3.31699 36.391 2.53761 36.7858C2.06189 36.9174 1.59628 37.2413 1.09019 37.6056C0.827025 37.6765 0.584101 37.9801 0.482883 38.2534C0.361421 38.8101 0.18935 39.377 0.0274009 39.9741C-0.0130864 40.0652 -0.03333 40.298 0.148863 40.2778C0.310812 40.5815 0.351299 40.9357 0.341178 41.3001C0.422152 41.6038 0.482883 41.7758 0.756172 41.8467C1.27239 42.0188 1.74811 42.2819 2.487 41.9378C2.52749 41.8872 2.65908 41.877 2.80078 41.9479C3.4587 41.7455 4.12674 41.6341 4.82515 41.4722C6.15111 41.1483 4.99722 41.3608 6.30293 40.8649C6.60659 40.794 6.95073 40.6219 7.19365 40.7333C7.47707 40.8345 7.59853 40.6928 7.79084 40.4397C8.20584 39.63 8.38803 39.6604 8.91437 39.4681C9.36985 39.5187 10.0986 39.1239 10.544 38.6279L9.50143 39.0024ZM13.955 30.9556C10.4529 34.6197 7.81109 35.2979 9.72411 29.7713C9.90631 28.9414 9.92655 28.2126 10.0278 27.4838C10.3112 26.2793 10.6047 25.1153 10.8375 23.9209C11.1614 22.6253 11.4752 21.3297 11.6979 19.9937C11.7991 19.6192 11.9813 19.1535 12.1736 18.8195C12.1129 18.7284 12.2343 18.5361 12.3254 18.5361C12.5279 18.3742 12.791 18.3033 12.9631 18.2426C15.4126 17.4025 17.5989 17.1798 19.7346 17.3215C20.3723 17.3923 21.0201 17.5037 21.6173 17.6252C21.7995 17.6454 21.9614 17.8984 21.9007 18.1819C21.9007 19.5382 21.4553 20.8945 20.8379 22.352C20.018 24.0626 18.9147 25.6214 17.7204 27.1397C16.5968 28.5668 15.3316 29.822 13.955 30.9556Z" fill="white"/>
<path d="M38.0247 28.3538C38.0247 28.3538 38.0753 28.3437 38.0652 28.3032C38.3283 28.6777 38.6421 29.0522 38.7332 29.4976C38.8142 29.8013 38.9761 30.1049 39.0976 30.4086C39.5126 30.9045 39.796 31.4612 40.0794 32.0179C40.3831 32.4026 40.6766 32.6354 40.5551 33.2326C40.5248 33.3743 40.6159 33.3641 40.626 33.4148C40.7879 33.6678 40.9398 33.8702 41.1422 34.0322C41.4459 34.4067 41.7596 34.8318 42.0329 35.2569C42.1848 35.4594 42.2556 35.682 42.4176 35.8946L43.6322 37.17C43.8751 37.4129 44.1383 37.342 44.5533 36.9372L45.2719 36.0464C45.6363 35.6517 45.6667 35.51 45.5047 35.2164C45.282 34.4269 45.11 33.6273 44.948 32.8277C44.8974 32.7872 44.9379 32.7872 44.9379 32.7467C44.9379 32.3317 45.029 31.8762 44.6849 31.6434C44.6849 31.5928 44.7152 31.4511 44.7456 31.36C44.7051 30.5098 44.7051 29.6494 44.7152 28.7891C44.6848 28.5664 44.6545 28.3032 44.5938 28.0806C44.5533 27.6757 44.3913 27.4226 44.2597 27.0785C44.1788 26.6837 44.0067 26.3396 43.9257 25.9853C43.7536 25.6412 43.6322 25.2869 43.5006 24.9428C43.369 24.548 43.2374 24.1533 43.1565 23.7585C42.7516 22.0378 42.3062 22.1289 43.8245 21.0256C45.4035 19.6896 46.6991 18.2016 47.934 16.6328C48.4805 15.8129 48.9866 15.0335 49.3105 14.2339C49.9988 12.584 50.2923 11.0658 50.0697 9.68919C49.8571 8.5353 49.432 7.49275 48.7336 6.79435C47.8935 6.06558 46.7699 5.73156 45.4642 5.78216C44.9177 5.74168 44.2901 5.76192 43.703 5.78216C42.3872 5.73156 40.7879 5.94411 39.3304 6.22752C37.2554 6.71337 35.1298 7.14861 33.0447 7.95836L29.907 9.092C29.6134 9.25395 29.2288 9.42602 29.077 9.76004L28.2065 11.3897C28.085 11.5314 28.0952 11.6225 28.0648 11.7642C27.9231 12.1792 27.7409 12.5638 27.6498 12.9788C27.498 13.7582 27.6599 14.4667 27.7308 15.1347C27.7915 15.2663 27.8522 15.3979 27.9535 15.5194C28.0547 15.6914 28.1761 15.904 28.3179 16.0255C28.581 16.4 29.0871 16.4911 29.7349 16.1469C31.0001 15.2967 33.1156 15.2157 31.8504 17.4729C30.9394 19.9527 30.1904 22.382 29.5831 24.8314L29.1883 26.2283C29.0365 26.5218 28.915 26.6635 28.6114 26.785L27.4474 27.3113C27.2753 27.4226 27.1032 27.4834 26.9716 27.5441C27.0324 27.6757 27.164 27.706 27.2652 27.7364C27.3158 27.8174 27.498 27.8477 27.5081 27.9388C27.5385 28.2526 27.6802 28.283 27.913 28.3032C28.5 28.3336 28.5 28.3336 28.2976 28.9814C28.2976 29.0725 28.2268 29.2648 28.1964 29.3559C27.8522 30.4288 27.5587 31.5422 27.3158 32.605C27.164 32.9896 27.1538 33.3034 27.2348 33.6071C27.2955 33.7387 27.2652 33.9208 27.1943 34.1132C27.0121 35.0342 26.8299 35.8642 26.6073 36.7448C26.4453 37.3926 26.3643 37.9392 26.4656 38.4757C26.4453 38.6579 26.4554 38.8401 26.3846 39.0222C26.2631 39.5385 26.3643 39.7004 26.7692 39.6599C26.9514 39.6397 27.083 39.5891 27.2146 39.6194C27.4373 39.5992 27.6194 39.5789 27.8118 39.2348C27.8522 39.1943 28.0648 39.1235 28.1053 39.0729C28.328 39.0526 28.6316 38.8401 28.8341 38.6882C29.4009 38.4048 29.8766 38.2125 30.2815 37.7671C30.322 37.7671 30.322 37.7671 30.3625 37.7165L31.5265 37.1902C32.1338 36.8967 32.3362 36.6537 32.488 36.0059C32.6601 35.4492 32.7411 34.9431 32.9132 34.3864C33.2472 33.2629 33.5407 32.1495 33.9152 30.9855C34.2391 30.1353 34.5124 29.2547 34.6541 28.4652C34.8566 27.7668 34.9679 27.1291 35.1703 26.4712C35.1906 26.2485 35.312 26.0967 35.5651 25.9347C36.2432 25.459 36.5165 25.5299 36.7493 25.9955C37.0935 26.7748 37.4073 27.5542 37.7109 28.3336C37.7818 28.5968 37.9437 28.8498 38.136 28.9713C38.1765 28.9713 38.1765 28.9207 38.217 28.9207C38.1563 28.698 38.136 28.5158 38.0247 28.3538ZM42.8832 18.9608C40.4337 20.56 36.0914 25.793 35.2817 20.9143C35.2715 20.4588 35.14 20.0236 34.9274 19.6794C34.7756 19.5175 34.6541 19.2543 34.5833 19.0418L34.3606 18.1106C34.0671 15.2967 34.1581 15.2461 38.6725 13.4748C39.9984 13.2015 41.2738 12.9383 42.4985 12.8978C42.9034 12.9079 43.2982 12.8168 43.703 12.7763C44.6747 12.6346 45.4237 12.8674 46.1323 13.2015C46.7497 13.4545 46.7295 14.1327 46.1323 14.9627C45.3934 16.0761 44.614 17.2907 43.6727 18.2421L42.8832 18.9608Z" fill="white"/>
<path d="M85.0003 22.757C85.0611 22.8886 85.0307 23.0202 85.0914 23.1517C85.2433 24.7206 85.638 26.2591 86.3972 27.5345C87.2778 29.1135 88.4721 30.2168 90.1017 31.0366C90.7192 31.3808 91.4581 31.5731 92.2273 31.5427C92.5411 31.5124 92.8549 31.563 93.1788 31.5832C93.5938 31.6743 94.0391 31.6237 94.5047 31.3099C94.7679 31.1885 95.0209 31.1176 95.2841 30.9557C96.4178 30.571 97.3287 29.8423 98.017 29.0123C98.7863 28.1114 99.3733 27.2916 100.051 26.4514C100.163 26.2085 100.406 25.915 100.426 25.6923C100.871 24.7409 101.458 23.8198 101.58 22.8177C101.772 22.0282 102.096 21.2691 102.157 20.4998C102.349 19.3054 102.673 18.0503 102.633 16.8357C102.582 15.8539 102.835 14.7911 102.865 13.7486C102.815 13.2526 102.805 12.7566 102.754 12.2708C102.835 12.1291 102.754 11.8558 102.835 11.7141C103.159 10.874 103.321 9.86177 103.311 8.91032C103.24 7.70582 103.068 6.50133 102.602 5.4689C102.177 4.37574 101.752 3.34332 101.043 2.60442C100.436 1.98699 99.8491 1.50114 99.2013 0.98493C98.8166 0.661032 98.2093 0.53957 97.5413 0.569935C96.0635 0.76225 94.525 1.18737 93.3002 2.35138C92.8448 2.80686 92.4298 3.16112 91.9743 3.57612C91.8629 3.80892 91.6605 3.97087 91.3265 3.86965C90.79 3.87977 90.2536 3.97087 89.8183 4.51745C89.2616 5.29683 88.7555 6.1167 88.4822 6.95681L87.632 9.21398C87.3992 9.59861 87.2373 10.1958 87.1057 10.6715L85.4255 16.7952C84.9194 18.8398 84.6258 20.8136 85.0003 22.757ZM88.7151 17.0888C89.626 17.1799 90.3447 17.1495 91.0026 17.443C91.2961 17.5948 91.6403 17.4734 91.9945 17.4329C92.2172 17.4127 92.4703 17.2507 92.45 16.9774C92.7435 15.9146 93.1383 14.9227 93.4723 13.7992C93.4622 13.6676 93.5027 13.5765 93.6241 13.4753C93.8367 12.868 93.9986 12.3113 94.1201 11.7039C94.2821 11.0561 94.6363 10.5703 94.8894 10.0035C95.3044 9.19373 95.6283 8.39411 96.0433 7.58436C96.1951 7.29083 96.3975 7.08839 96.5696 7.02766C96.8631 6.77462 97.1668 6.70376 97.4299 6.54181C98.0373 6.29889 98.5433 6.42035 98.9381 6.78474C99.4847 7.2301 99.7175 7.74631 99.7478 8.46496C99.8288 10.1756 99.7985 12.0683 99.6972 13.7587C99.4847 16.441 98.8976 19.0726 97.8854 21.5221C96.9745 23.7388 95.5979 25.6417 94.0493 27.332C93.6039 27.8381 93.0067 28.1216 92.45 28.4454C92.197 28.658 91.8326 28.5973 91.5492 28.4556C90.8305 28.0709 90.5471 27.4738 90.3244 26.6843C90.0309 25.5405 89.6463 24.4068 89.2009 23.1821C89.0794 22.4736 88.7859 21.8258 88.5733 21.0768C88.5329 20.5909 88.6138 20.1253 88.6037 19.5889C88.6037 19.0929 88.5835 18.5058 88.7049 17.9086C88.6847 17.6859 88.6543 17.4127 88.7151 17.0888Z" fill="white"/>
<path d="M106.914 13.9104C106.883 14.042 106.944 14.1736 106.914 14.2647C107.268 13.374 107.44 12.4124 108.017 11.4407C108.007 11.7646 107.956 12.0885 107.896 12.4023L106.57 17.1494C105.689 20.439 105.163 23.6173 105.335 26.6234C105.406 27.747 105.527 28.9008 105.375 30.1357C105.325 30.4596 105.78 30.9556 106.003 30.9758C106.549 31.0163 107.167 30.905 107.835 30.743C108.402 30.5507 108.958 30.2268 109.495 29.8017C109.788 29.5486 110.021 29.2146 110.426 29.1235C110.507 29.1134 110.628 28.9717 110.709 28.83C111.195 28.2834 111.317 27.7267 111.388 27.1295C111.499 26.4008 111.641 25.6113 111.965 24.8116C112.248 24.0626 112.44 23.3136 112.683 22.5747C112.886 21.9168 113.139 21.2589 113.574 20.6718C114.242 19.7507 114.738 18.7993 115.082 17.8073C115.376 17.0988 115.71 16.4409 116.185 15.8032C116.671 15.1655 117.046 14.4975 117.299 13.8396C117.582 13.131 117.967 12.5035 118.503 11.9063C118.827 11.6026 119.06 11.218 119.252 10.884L122.41 5.18541C124.161 4.63883 121.864 9.98315 121.722 12.1189C121.56 13.131 121.388 14.1432 121.175 15.1048L121.266 15.0947C121.418 14.4469 121.58 13.7586 121.692 13.1108C121.783 13.1007 121.823 13.1007 121.864 13.0501C121.621 13.7586 121.894 14.2242 121.611 14.9327C121.317 15.5906 121.509 16.198 121.034 16.8356C121.145 17.0077 121.327 17.0786 121.297 17.2203C121.287 17.534 121.236 17.8984 121.135 18.2324C120.963 18.7385 121.003 19.1839 121.165 19.4471C121.479 19.8621 120.993 21.269 120.963 21.8561C120.943 22.0889 120.922 22.3115 120.943 22.4937C121.155 23.2832 121.378 24.1132 121.631 24.8622C122.096 26.3501 123.767 26.2692 125.184 25.5809C125.821 25.2469 126.459 24.8116 127.097 24.3865C127.431 24.174 127.714 23.8703 127.947 23.4857C128.251 22.9188 128.564 22.433 128.868 21.9067C129.101 21.4714 129.323 21.0463 129.506 20.6212C129.546 20.5301 129.566 20.3479 129.475 20.3074C129.273 20.105 129.192 19.7912 129.151 19.3965C128.332 20.1961 127.937 21.188 126.975 21.9168L126.641 21.3196C126.631 21.2285 126.58 21.1475 126.53 21.0564C126.267 20.773 126.601 19.5685 126.722 19.0118C126.854 18.4956 126.803 18.0502 126.631 17.6251C126.57 17.4935 126.591 17.3114 126.621 17.119C126.672 16.7142 126.813 16.3397 126.813 15.9247C126.914 15.1959 126.975 14.4266 127.167 13.6371C127.259 13.2626 127.137 12.9185 127.279 12.544C127.542 11.9772 127.613 11.4205 127.744 10.9144C128.018 9.61877 129.485 6.30893 129.759 5.06394C130.022 3.63677 130.113 2.27032 129.809 1.08607C129.607 0.428147 129.161 0.0637615 128.433 0.0030305C127.522 -0.0374568 126.52 0.337051 125.558 0.569853C125.376 0.630584 125.123 0.752046 124.941 0.772289C124.576 0.762168 124.242 0.974726 123.959 1.27838L123.503 1.68325C121.833 2.98897 119.445 6.61258 118.402 8.30293C117.552 9.69974 116.843 11.1269 116.084 12.5136C114.029 15.4287 114.657 13.6068 115.102 9.99327C115.193 9.17341 115.112 8.41427 115.517 7.51343C115.639 7.32111 115.568 7.10855 115.507 6.97697C115.325 6.54173 115.153 6.10649 114.89 5.77247C114.303 4.84126 113.149 4.63883 111.934 4.67931C111.216 4.70968 110.436 5.01334 109.748 4.94248C109.343 4.94248 109.171 5.09431 109.039 5.55991C108.847 6.25832 108.645 6.95673 108.493 7.64501L106.914 13.9104Z" fill="white"/>
<path d="M72.9956 24.8011C72.9956 24.8011 73.0463 24.791 73.0361 24.7505C73.3094 25.125 73.6131 25.4995 73.7042 25.9449C73.7851 26.2485 73.9471 26.5522 74.0686 26.8558C74.4836 27.3518 74.767 27.9085 75.0504 28.4652C75.354 28.8498 75.6476 29.0826 75.5362 29.6798C75.5059 29.8215 75.5868 29.8114 75.597 29.862C75.7589 30.1151 75.9107 30.3276 76.1132 30.4795C76.4168 30.854 76.7306 31.2791 77.0039 31.7042C77.1658 31.9066 77.2266 32.1293 77.3885 32.3419L78.6031 33.6172C78.8562 33.8601 79.1194 33.7893 79.5242 33.3844L80.253 32.4937C80.6073 32.0989 80.6478 31.9572 80.4757 31.6637C80.2631 30.8742 80.091 30.0746 79.919 29.2851C79.8684 29.2446 79.9089 29.2345 79.9089 29.194C79.9089 28.7891 80 28.3235 79.6558 28.0907C79.6558 28.0401 79.6862 27.9085 79.7165 27.8073C79.6761 26.9571 79.6862 26.0967 79.6862 25.2363C79.6659 25.0137 79.6356 24.7505 79.5647 24.5278C79.5242 24.1229 79.3623 23.8699 79.2408 23.5258C79.1497 23.131 78.9777 22.7869 78.8967 22.4326C78.7347 22.0885 78.6031 21.7342 78.4716 21.39C78.3501 20.9953 78.2185 20.6005 78.1274 20.2058C77.7225 18.4851 77.2873 18.5762 78.7955 17.4729C80.3745 16.1368 81.6701 14.6489 82.9049 13.08C83.4515 12.2602 83.9576 11.4808 84.2815 10.6812C84.9799 9.0313 85.2734 7.51302 85.0406 6.13646C84.8281 4.98257 84.403 3.94002 83.7045 3.24161C82.8644 2.51284 81.7409 2.17882 80.4352 2.22943C79.8886 2.18894 79.2611 2.20919 78.674 2.22943C77.3683 2.17882 75.7589 2.39138 74.3014 2.67479C72.2264 3.16064 70.1008 3.606 68.0157 4.40562L64.8881 5.53927C64.5844 5.70122 64.1998 5.87329 64.0479 6.20731L63.1775 7.83692C63.056 7.97863 63.0661 8.06972 63.0358 8.21143C62.9042 8.62643 62.7119 9.01106 62.6208 9.42605C62.4791 10.2054 62.6309 10.914 62.7017 11.582C62.7625 11.7136 62.8232 11.8452 62.9244 11.9666C63.0358 12.1387 63.1471 12.3513 63.2888 12.4727C63.5621 12.8573 64.0682 12.9383 64.7059 12.6043C65.9711 11.7439 68.0866 11.663 66.8315 13.9201C65.9104 16.4 65.1614 18.8292 64.5642 21.2787L64.1593 22.6755C64.0075 22.9691 63.886 23.1108 63.5823 23.2322L62.4183 23.7586C62.2463 23.8699 62.0742 23.9306 61.9426 23.9914C62.0033 24.1229 62.145 24.1533 62.2361 24.1837C62.2868 24.2748 62.4791 24.295 62.4791 24.3861C62.5196 24.6999 62.6511 24.7303 62.8839 24.7505C63.471 24.7809 63.471 24.7809 63.2686 25.4388C63.2787 25.5198 63.2078 25.7121 63.1674 25.8032C62.8333 26.8761 62.5398 27.9895 62.2868 29.0523C62.145 29.4369 62.1248 29.7507 62.2058 30.0543C62.2665 30.1859 62.2361 30.3681 62.1653 30.5604C61.9932 31.4815 61.811 32.3115 61.5782 33.1921C61.4163 33.8399 61.3454 34.3966 61.4466 34.9229C61.4163 35.1051 61.4365 35.2873 61.3657 35.4695C61.2341 35.9857 61.3454 36.1477 61.7402 36.1072C61.9224 36.0971 62.054 36.0363 62.1957 36.0667C62.4183 36.0465 62.5904 36.0262 62.7827 35.6922C62.8232 35.6416 63.0459 35.5707 63.0864 35.5201C63.3091 35.4999 63.6026 35.2873 63.805 35.1355C64.3718 34.8521 64.8476 34.6699 65.2524 34.2144C65.2929 34.2144 65.2929 34.2144 65.3334 34.1638L66.4974 33.6375C67.1047 33.3541 67.3072 33.101 67.4691 32.4532C67.6311 31.8965 67.7121 31.3904 67.8841 30.8337C68.2181 29.7102 68.5117 28.5968 68.8862 27.4328C69.2101 26.5825 69.4834 25.702 69.6251 24.9124C69.8275 24.2242 69.9389 23.5764 70.1413 22.9286C70.1615 22.6958 70.283 22.5439 70.536 22.382C71.2142 21.9063 71.4875 21.9771 71.7203 22.4427C72.0746 23.2221 72.3782 24.0015 72.6819 24.7809C72.7527 25.0542 72.9147 25.2971 73.107 25.4185C73.1576 25.4185 73.1475 25.3679 73.1981 25.3679C73.1272 25.1452 73.107 24.9732 72.9956 24.8011ZM77.8642 15.4081C75.4046 17.0073 71.0725 22.2403 70.2526 17.3616C70.2526 16.9061 70.121 16.4708 69.8984 16.1267C69.7465 15.9648 69.6352 15.7016 69.5643 15.489L69.3315 14.5679C69.0481 11.7439 69.1291 11.6933 73.6434 9.92202C74.9694 9.64873 76.2549 9.38556 77.4695 9.34508C77.8744 9.3552 78.2691 9.2641 78.674 9.22361C79.6558 9.08191 80.3947 9.31471 81.1134 9.65885C81.7207 9.90178 81.7004 10.5901 81.1134 11.4099C80.3643 12.5233 79.585 13.7379 78.6436 14.6894L77.8642 15.4081Z" fill="white"/>
<path d="M35.6665 40.4805C35.211 40.4805 34.8466 40.6323 34.5733 40.9461C34.3101 41.2498 34.1684 41.6749 34.1684 42.2012C34.1684 42.7579 34.3 43.1932 34.5531 43.4867C34.8162 43.7904 35.1907 43.9422 35.6665 43.9422C35.96 43.9422 36.294 43.8916 36.6786 43.7802V44.2053C36.375 44.3167 36.0207 44.3774 35.5956 44.3774C34.968 44.3774 34.4923 44.1851 34.1482 43.8106C33.8142 43.4361 33.6421 42.8996 33.6421 42.2012C33.6421 41.766 33.7231 41.3915 33.8951 41.0676C34.0571 40.7336 34.2899 40.4805 34.5935 40.3084C34.9073 40.1263 35.2616 40.0352 35.6766 40.0352C36.1219 40.0352 36.5066 40.1161 36.8406 40.2781L36.628 40.7032C36.3041 40.5514 35.9904 40.4805 35.6665 40.4805Z" fill="white"/>
<path d="M44.0168 42.2012C44.0168 42.8794 43.8447 43.4158 43.5107 43.8005C43.1666 44.1851 42.6908 44.3774 42.0835 44.3774C41.4661 44.3774 40.9803 44.1851 40.6361 43.8005C40.3021 43.426 40.1401 42.8895 40.1401 42.2012C40.1401 41.5129 40.3122 40.9765 40.6462 40.602C40.9904 40.2275 41.4661 40.0352 42.0835 40.0352C42.6908 40.0352 43.1666 40.2275 43.5107 40.6121C43.8447 40.9967 44.0168 41.5231 44.0168 42.2012ZM40.6564 42.2012C40.6564 42.7782 40.7778 43.2033 41.0207 43.4968C41.2637 43.7904 41.6179 43.9422 42.0835 43.9422C42.5491 43.9422 42.9034 43.8005 43.1463 43.5069C43.3791 43.2134 43.5006 42.7782 43.5006 42.2012C43.5006 41.6445 43.3791 41.2093 43.1463 40.9158C42.9034 40.6222 42.5491 40.4704 42.0835 40.4704C41.6179 40.4704 41.2637 40.6222 41.0207 40.9158C40.7778 41.2093 40.6564 41.6445 40.6564 42.2012Z" fill="white"/>
<path d="M50.1099 43.1932C50.1099 43.5677 49.9682 43.8612 49.7051 44.0738C49.4318 44.2762 49.0674 44.3774 48.6018 44.3774C48.1058 44.3774 47.7212 44.3167 47.458 44.175V43.6993C47.62 43.7802 47.8123 43.841 48.0147 43.8815C48.2171 43.9219 48.4297 43.9422 48.6321 43.9422C48.956 43.9422 49.199 43.8815 49.3609 43.76C49.5229 43.6385 49.6038 43.4665 49.6038 43.2438C49.6038 43.0919 49.5735 42.9806 49.5229 42.8895C49.4621 42.7883 49.3609 42.7073 49.2293 42.6263C49.0876 42.5454 48.8852 42.4543 48.6018 42.3632C48.207 42.2215 47.9337 42.0494 47.7617 41.8571C47.5896 41.6648 47.5086 41.4117 47.5086 41.1081C47.5086 40.7842 47.6301 40.521 47.873 40.3287C48.1159 40.1364 48.4398 40.0352 48.8447 40.0352C49.2597 40.0352 49.6443 40.1161 49.9986 40.2781L49.8468 40.7032C49.5026 40.5514 49.1585 40.4805 48.8346 40.4805C48.5714 40.4805 48.369 40.5311 48.2171 40.6526C48.0754 40.7538 48.0046 40.9056 48.0046 41.1081C48.0046 41.2599 48.035 41.3814 48.0856 41.4725C48.1362 41.5636 48.2273 41.6546 48.3589 41.7255C48.4904 41.8065 48.6828 41.8875 48.9459 41.9887C49.3812 42.1405 49.6848 42.3126 49.8569 42.4948C50.029 42.6668 50.1099 42.8996 50.1099 43.1932Z" fill="white"/>
<path d="M55.6064 44.3161L54.1691 40.5812H54.159C54.1792 40.8747 54.1894 41.229 54.1894 41.6339V44.3161H53.7339V40.1055H54.4829L55.819 43.5773H55.8291L57.1854 40.1055H57.9142V44.3161H57.4182V41.6035C57.4182 41.2897 57.4385 40.9557 57.4688 40.5913H57.4385L56.0012 44.3161H55.6064Z" fill="white"/>
<path d="M64.1793 44.3161H61.8311V40.1055H64.1793V40.5407H62.327V41.8869H64.068V42.3221H62.327V43.8708H64.1793V44.3161Z" fill="white"/>
<path d="M69.19 44.3161H68.694V40.5407H67.3579V40.1055H70.5159V40.5407H69.19V44.3161Z" fill="white"/>
<path d="M76.1941 44.3164C76.0321 44.3569 75.85 44.3771 75.6475 44.3771C75.4552 44.3771 75.2629 44.3569 75.0908 44.3164H76.1941Z" fill="white"/>
<path d="M81.2954 44.3161V40.1055H81.7813V43.8708H83.6437V44.3161H81.2954Z" fill="white"/>
<path d="M96.347 42.1H97.7741V44.1547C97.5616 44.2256 97.3288 44.2863 97.096 44.3167C96.8733 44.3572 96.6 44.3774 96.2963 44.3774C95.6587 44.3774 95.1627 44.1851 94.8084 43.8005C94.4542 43.426 94.272 42.8895 94.272 42.2012C94.272 41.766 94.3631 41.3915 94.5351 41.0575C94.7072 40.7336 94.9603 40.4805 95.2943 40.2983C95.6283 40.1263 96.0129 40.0352 96.4583 40.0352C96.9138 40.0352 97.3288 40.1161 97.7134 40.2882L97.5312 40.7133C97.1466 40.5615 96.7822 40.4805 96.4279 40.4805C95.9117 40.4805 95.517 40.6323 95.2234 40.936C94.94 41.2397 94.7882 41.6648 94.7882 42.2012C94.7882 42.7782 94.9299 43.2134 95.2032 43.5069C95.4866 43.8005 95.8915 43.9422 96.4279 43.9422C96.7316 43.9422 97.015 43.9017 97.2883 43.841V42.5454H96.347V42.1Z" fill="white"/>
<path d="M102.632 42.2007L103.756 40.1055H104.292L102.875 42.6865V44.3161H102.389V42.7068L100.982 40.1055H101.519L102.632 42.2007Z" fill="white"/>
<path d="M77.5808 42.2012C77.5808 42.8794 77.4188 43.4158 77.0747 43.8005C76.7305 44.1851 76.2548 44.3774 75.6475 44.3774C75.0301 44.3774 74.5442 44.1851 74.2102 43.8005C73.8661 43.426 73.7041 42.8895 73.7041 42.2012C73.7041 41.5129 73.8762 40.9765 74.2102 40.602C74.5543 40.2275 75.0301 40.0352 75.6475 40.0352C76.2548 40.0352 76.7305 40.2275 77.0747 40.6121C77.4188 40.9967 77.5808 41.5231 77.5808 42.2012ZM74.2203 42.2012C74.2203 42.7782 74.3418 43.2033 74.5847 43.4968C74.8276 43.7904 75.192 43.9422 75.6475 43.9422C76.1131 43.9422 76.4674 43.8005 76.7103 43.5069C76.9431 43.2134 77.0645 42.7782 77.0645 42.2012C77.0645 41.6445 76.9431 41.2093 76.7103 40.9158C76.4674 40.6222 76.1131 40.4704 75.6475 40.4704C75.192 40.4704 74.8276 40.6222 74.5847 40.9158C74.3418 41.2093 74.2203 41.6445 74.2203 42.2012Z" fill="white"/>
<path d="M90.7896 42.2012C90.7896 42.8794 90.6175 43.4158 90.2734 43.8005C89.9394 44.1851 89.4637 44.3774 88.8563 44.3774C88.2288 44.3774 87.7429 44.1851 87.4089 43.8005C87.0749 43.426 86.9028 42.8895 86.9028 42.2012C86.9028 41.5129 87.0749 40.9765 87.419 40.602C87.7531 40.2275 88.2389 40.0352 88.8563 40.0352C89.4637 40.0352 89.9394 40.2275 90.2734 40.6121C90.6175 40.9967 90.7896 41.5231 90.7896 42.2012ZM87.4292 42.2012C87.4292 42.7782 87.5405 43.2033 87.7936 43.4968C88.0365 43.7904 88.3907 43.9422 88.8563 43.9422C89.3219 43.9422 89.6661 43.8005 89.909 43.5069C90.1519 43.2134 90.2633 42.7782 90.2633 42.2012C90.2633 41.6445 90.1519 41.2093 89.909 40.9158C89.6661 40.6222 89.3219 40.4704 88.8563 40.4704C88.3907 40.4704 88.0365 40.6222 87.7936 40.9158C87.5405 41.2093 87.4292 41.6445 87.4292 42.2012Z" fill="white"/>
</svg>
