<svg width="31" height="39" viewBox="0 0 31 39" fill="none" xmlns="http://www.w3.org/2000/svg">
<path d="M3 21.9L2.15 18.52C0.800002 13.15 0.690002 12.7 0.690002 11.2C0.690002 8.11001 1.94 5.32001 3.97 3.29001C5.99 1.27001 8.79 0.0100098 11.87 0.0100098H22.49C23.75 0.0100098 24.91 0.440009 25.84 1.15001C26.79 1.88001 27.5 2.92001 27.81 4.11001L27.83 4.17001L27.87 4.22001C28.66 5.20001 29.27 6.32001 29.68 7.50001C30.1 8.68001 30.31 9.93001 30.31 11.2C30.31 12.7 30.2 13.15 28.84 18.55C28.7 19.14 27.99 21.56 27.99 21.97C27.95 25.65 26.31 30.37 23.69 33.91C21.5 36.86 18.64 38.99 15.46 38.99C12.25 38.99 9.42 36.88 7.27 33.96C4.65 30.4 3.04 25.63 3 21.97V21.9ZM20.16 20.78C19.23 20.78 18.3 21.13 17.6 21.84C17.3 22.14 17.3 22.63 17.6 22.93C17.9 23.23 18.39 23.23 18.69 22.93C19.5 22.12 20.82 22.12 21.62 22.93C21.92 23.23 22.41 23.23 22.72 22.93C23.02 22.63 23.02 22.14 22.72 21.84C22.01 21.13 21.08 20.78 20.16 20.78ZM10.8 20.78C9.87 20.78 8.94 21.13 8.24 21.84C7.94 22.14 7.94 22.63 8.24 22.93C8.54 23.23 9.03 23.23 9.33 22.93C10.14 22.12 11.46 22.12 12.26 22.93C12.56 23.23 13.05 23.23 13.36 22.93C13.66 22.63 13.66 22.14 13.36 21.84C12.65 21.13 11.72 20.78 10.8 20.78ZM13.06 30L13.69 29.53C14.22 29.13 14.89 29.02 15.51 29.21C16.12 29.02 16.79 29.13 17.32 29.53L17.95 30C18.14 30.14 18.27 30.37 18.29 30.61C18.31 30.85 18.23 31.09 18.07 31.27L17.83 31.53C17.23 32.18 16.38 32.55 15.51 32.55C14.63 32.55 13.78 32.18 13.18 31.53L12.95 31.27C12.78 31.09 12.7 30.85 12.72 30.61C12.74 30.37 12.87 30.14 13.06 30ZM22.49 1.75001H11.87C9.27 1.75001 6.91 2.81001 5.2 4.52001C3.49 6.23001 2.42 8.60001 2.42 11.2C2.42 11.78 2.44 12.17 2.59 12.93C2.73 13.67 3 14.76 3.5 16.76L3.71 17.58L4.05 16.8C5.02 14.56 6.64 12.65 8.66 11.32C10.61 10.03 12.95 9.28001 15.46 9.28001H22.49C23.53 9.28001 24.47 8.86001 25.15 8.18001C25.83 7.50001 26.26 6.55001 26.26 5.52001C26.26 4.48001 25.83 3.54001 25.15 2.85001C24.47 2.17001 23.53 1.75001 22.49 1.75001ZM27.46 7.90001C27.02 8.79001 26.35 9.56001 25.53 10.11C24.72 10.64 23.77 10.97 22.75 11.01L21.91 11.06L22.6 11.54C22.81 11.69 23.02 11.84 23.22 12C23.41 12.15 23.61 12.32 23.81 12.5C24.49 13.1 25.09 13.78 25.62 14.5C26.14 15.23 26.59 16.01 26.95 16.82L27.29 17.6L27.5 16.78C28 14.77 28.27 13.67 28.41 12.93C28.56 12.17 28.58 11.78 28.58 11.2C28.58 10.64 28.52 10.08 28.43 9.54001C28.33 8.98001 28.18 8.44001 27.99 7.92001L27.75 7.28001L27.46 7.90001ZM15.46 37.25C18.16 37.25 20.67 35.23 22.58 32.48C24.81 29.25 26.26 24.99 26.26 21.82L26.24 21.19L26.18 20.56C25.87 17.88 24.54 15.5 22.61 13.78C20.68 12.07 18.15 11.02 15.46 11.02C12.51 11.02 9.83 12.23 7.89 14.19C5.94 16.14 4.74 18.84 4.74 21.82C4.74 24.83 6.16 29.25 8.45 32.57C10.3 35.26 12.73 37.25 15.46 37.25Z" fill="white"/>
</svg>
