<svg width="24" height="24" viewBox="0 0 24 24" fill="none" xmlns="http://www.w3.org/2000/svg">
<path fill-rule="evenodd" clip-rule="evenodd" d="M1.5 8.36L8.36 1.5C10.36 -0.5 13.64 -0.5 15.64 1.5L22.5 8.36C24.5 10.36 24.5 13.64 22.5 15.64L15.64 22.5C13.64 24.5 10.36 24.5 8.36 22.5L1.5 15.64C-0.5 13.64 -0.5 10.36 1.5 8.36Z" fill="#CB6CE6"/>
<path d="M6.7 13.0002C6.15 13.0002 5.7 12.5502 5.7 12.0002C5.7 11.4502 6.15 11.0002 6.7 11.0002H11V6.7002C11 6.1502 11.45 5.7002 12 5.7002C12.55 5.7002 13 6.1502 13 6.7002V11.0002H17.3C17.85 11.0002 18.3 11.4502 18.3 12.0002C18.3 12.5502 17.85 13.0002 17.3 13.0002H13V17.3002C13 17.8502 12.55 18.3002 12 18.3002C11.45 18.3002 11 17.8502 11 17.3002V13.0002H6.7Z" fill="white"/>
</svg>
