<svg width="80" height="80" viewBox="0 0 80 80" fill="none" xmlns="http://www.w3.org/2000/svg">
<path fill-rule="evenodd" clip-rule="evenodd" d="M40 0C62.09 0 80 17.91 80 40C80 62.09 62.09 80 40 80C17.91 80 0 62.09 0 40C0 17.91 17.91 0 40 0Z" fill="#8C52FF" fill-opacity="0.2"/>
<path d="M40 74.5594C59.087 74.5594 74.56 59.0864 74.56 39.9995C74.56 20.9125 59.087 5.43945 40 5.43945C20.913 5.43945 5.44 20.9125 5.44 39.9995C5.44 59.0864 20.913 74.5594 40 74.5594Z" fill="#8C52FF"/>
<path fill-rule="evenodd" clip-rule="evenodd" d="M40 0C62.09 0 80 17.91 80 40C80 62.09 62.09 80 40 80C17.91 80 0 62.09 0 40C0 17.91 17.91 0 40 0Z" fill="#8C52FF" fill-opacity="0.2"/>
<path d="M40 74.5594C59.087 74.5594 74.56 59.0864 74.56 39.9995C74.56 20.9125 59.087 5.43945 40 5.43945C20.913 5.43945 5.44 20.9125 5.44 39.9995C5.44 59.0864 20.913 74.5594 40 74.5594Z" fill="#8C52FF"/>
<path d="M32.09 50.0804H33.56C33.97 50.0804 34.3 49.7504 34.3 49.3404C34.3 48.9404 33.97 48.6104 33.56 48.6104H32.09C31.68 48.6104 31.35 48.9404 31.35 49.3404C31.35 49.7504 31.68 50.0804 32.09 50.0804Z" fill="white"/>
<path d="M54.19 48.6104H36.51C36.1 48.6104 35.77 48.9404 35.77 49.3404C35.77 49.7504 36.1 50.0804 36.51 50.0804H54.19C54.59 50.0804 54.92 49.7504 54.92 49.3404C54.92 48.9404 54.59 48.6104 54.19 48.6104Z" fill="white"/>
<path d="M32.09 45.6595H33.56C33.97 45.6595 34.3 45.3295 34.3 44.9195C34.3 44.5195 33.97 44.1895 33.56 44.1895H32.09C31.68 44.1895 31.35 44.5195 31.35 44.9195C31.35 45.3295 31.68 45.6595 32.09 45.6595Z" fill="white"/>
<path d="M54.19 44.1895H36.51C36.1 44.1895 35.77 44.5195 35.77 44.9195C35.77 45.3295 36.1 45.6595 36.51 45.6595H54.19C54.59 45.6595 54.92 45.3295 54.92 44.9195C54.92 44.5195 54.59 44.1895 54.19 44.1895Z" fill="white"/>
<path d="M32.09 41.2395H33.56C33.97 41.2395 34.3 40.9095 34.3 40.5095C34.3 40.0995 33.97 39.7695 33.56 39.7695H32.09C31.68 39.7695 31.35 40.0995 31.35 40.5095C31.35 40.9095 31.68 41.2395 32.09 41.2395Z" fill="white"/>
<path d="M54.19 39.7695H36.51C36.1 39.7695 35.77 40.0995 35.77 40.5095C35.77 40.9095 36.1 41.2395 36.51 41.2395H54.19C54.59 41.2395 54.92 40.9095 54.92 40.5095C54.92 40.0995 54.59 39.7695 54.19 39.7695Z" fill="white"/>
<path d="M32.09 36.8196H33.56C33.97 36.8196 34.3 36.4896 34.3 36.0896C34.3 35.6796 33.97 35.3496 33.56 35.3496H32.09C31.68 35.3496 31.35 35.6796 31.35 36.0896C31.35 36.4896 31.68 36.8196 32.09 36.8196Z" fill="white"/>
<path d="M54.19 35.3496H36.51C36.1 35.3496 35.77 35.6796 35.77 36.0896C35.77 36.4896 36.1 36.8196 36.51 36.8196H54.19C54.59 36.8196 54.92 36.4896 54.92 36.0896C54.92 35.6796 54.59 35.3496 54.19 35.3496Z" fill="white"/>
<path d="M23.99 21.3497H26.93V55.9697C26.93 56.3797 27.26 56.7097 27.67 56.7097H53.45V59.6597H23.99V21.3497ZM28.41 18.4097H47.56V27.9797C47.56 28.3897 47.89 28.7197 48.29 28.7197H57.87V55.2397H28.41V18.4097ZM56.83 27.2497H49.03V19.4497L56.83 27.2497ZM23.25 61.1297H54.19C54.59 61.1297 54.92 60.7997 54.92 60.3897V56.7097H58.61C59.01 56.7097 59.34 56.3797 59.34 55.9697V27.9797C59.34 27.9697 59.33 27.9497 59.33 27.9397C59.33 27.8697 59.32 27.8097 59.3 27.7497C59.29 27.7197 59.28 27.6997 59.27 27.6797C59.24 27.5997 59.19 27.5297 59.12 27.4597L48.81 17.1497C48.75 17.0897 48.68 17.0397 48.6 16.9997C48.57 16.9897 48.55 16.9897 48.53 16.9797C48.47 16.9597 48.4 16.9497 48.34 16.9397C48.32 16.9397 48.31 16.9297 48.29 16.9297H27.67C27.26 16.9297 26.93 17.2697 26.93 17.6697V19.8797H23.25C22.84 19.8797 22.51 20.2097 22.51 20.6197V60.3897C22.51 60.7997 22.84 61.1297 23.25 61.1297Z" fill="white"/>
<path d="M32.82 25.0405H35.77V27.9805H32.82V25.0405ZM32.09 29.4605H36.51C36.91 29.4605 37.24 29.1305 37.24 28.7205V24.3005C37.24 23.8905 36.91 23.5605 36.51 23.5605H32.09C31.68 23.5605 31.35 23.8905 31.35 24.3005V28.7205C31.35 29.1305 31.68 29.4605 32.09 29.4605Z" fill="white"/>
</svg>
