<svg width="80" height="80" viewBox="0 0 80 80" fill="none" xmlns="http://www.w3.org/2000/svg">
<path fill-rule="evenodd" clip-rule="evenodd" d="M40 0C62.09 0 80 17.91 80 40C80 62.09 62.09 80 40 80C17.91 80 0 62.09 0 40C0 17.91 17.91 0 40 0Z" fill="#8C52FF" fill-opacity="0.2"/>
<path d="M40 74.5594C59.087 74.5594 74.56 59.0864 74.56 39.9995C74.56 20.9125 59.087 5.43945 40 5.43945C20.913 5.43945 5.44 20.9125 5.44 39.9995C5.44 59.0864 20.913 74.5594 40 74.5594Z" fill="#8C52FF"/>
<path d="M44.52 48.13C43.28 47.37 41.66 47.6 40.67 48.68C39.56 49.89 38.52 50.49 37.49 50.51C36.52 50.53 35.5 50.01 34.47 48.98L31.54 46.05C30.51 45.02 29.99 44 30.01 43.03C30.04 42 30.63 40.96 31.84 39.85C32.92 38.86 33.15 37.24 32.39 36C30.23 32.48 27.43 30.32 25.47 29.13C24.26 28.4 22.72 28.59 21.72 29.59L18.79 32.52C17.16 34.15 16.34 36.09 16.38 38.26C16.46 43.42 21.33 48.11 21.67 48.43L24.02 50.78C24.39 51.15 24.98 51.15 25.34 50.78C25.71 50.42 25.71 49.83 25.34 49.47L22.98 47.11C22.97 47.1 22.97 47.09 22.96 47.09C22.91 47.04 18.31 42.66 18.24 38.22C18.21 36.55 18.83 35.12 20.11 33.83L23.03 30.91C23.43 30.51 24.03 30.44 24.51 30.73C25.97 31.61 28.73 33.6 30.81 36.97C31.1 37.46 31.01 38.09 30.58 38.48C29 39.93 28.19 41.45 28.15 42.99C28.12 44.49 28.82 45.96 30.23 47.37L33.15 50.29C34.56 51.7 36.03 52.4 37.53 52.37C39.07 52.34 40.59 51.52 42.04 49.94C42.43 49.51 43.06 49.42 43.55 49.72C46.92 51.79 48.91 54.55 49.8 56.01C50.08 56.49 50.01 57.09 49.61 57.49L46.69 60.41C45.41 61.69 43.97 62.3 42.3 62.28C37.86 62.21 33.48 57.61 33.44 57.56C33.43 57.55 33.42 57.55 33.42 57.54L31.13 55.25C30.76 54.89 30.17 54.89 29.81 55.25C29.45 55.61 29.45 56.2 29.81 56.57L32.09 58.85C32.41 59.19 37.11 64.06 42.26 64.14C42.31 64.14 42.35 64.14 42.4 64.14C44.52 64.14 46.4 63.33 48 61.73L50.93 58.8C51.93 57.8 52.12 56.26 51.39 55.05C50.2 53.09 48.05 50.29 44.52 48.13Z" fill="white"/>
<path d="M49.51 16.4805C42.7 16.4805 37.15 22.0205 37.15 28.8405C37.15 31.5605 38.01 34.1205 39.64 36.2805V41.8305C39.64 42.4705 40.3 42.9305 40.9 42.7005L46.12 40.7305C47.22 41.0405 48.36 41.2005 49.51 41.2005C56.33 41.2005 61.87 35.6605 61.87 28.8405C61.87 22.0205 56.33 16.4805 49.51 16.4805ZM49.51 39.3405C48.44 39.3405 47.38 39.1805 46.36 38.8605C46.16 38.7905 45.95 38.8005 45.75 38.8705L41.5 40.4905V35.9905C41.51 35.7705 41.44 35.5505 41.3 35.3805C39.8 33.5005 39.01 31.2405 39.01 28.8405C39.01 23.0505 43.72 18.3405 49.51 18.3405C55.3 18.3405 60.01 23.0505 60.01 28.8405C60.01 34.6305 55.3 39.3405 49.51 39.3405Z" fill="white"/>
<path d="M49.63 22.1797C49.12 22.1797 48.7 22.5997 48.7 23.1097V30.1597C48.7 30.6697 49.12 31.0897 49.63 31.0897C50.15 31.0897 50.56 30.6697 50.56 30.1597V23.1097C50.56 22.5997 50.15 22.1797 49.63 22.1797Z" fill="white"/>
<path d="M50.49 34.0806C50.3 33.6106 49.75 33.3806 49.28 33.5706C48.81 33.7706 48.58 34.3206 48.77 34.7906C48.97 35.2606 49.52 35.4906 49.99 35.2906C50.46 35.1006 50.69 34.5506 50.49 34.0806Z" fill="white"/>
<path d="M28.41 52.6294C28.21 52.1694 27.66 51.9394 27.19 52.1294C26.72 52.3194 26.49 52.8793 26.69 53.3493C26.88 53.8093 27.43 54.0393 27.9 53.8493C28.37 53.6493 28.6 53.0994 28.41 52.6294Z" fill="white"/>
</svg>
