<svg width="80" height="80" viewBox="0 0 80 80" fill="none" xmlns="http://www.w3.org/2000/svg">
<path fill-rule="evenodd" clip-rule="evenodd" d="M40 0C62.09 0 80 17.91 80 40C80 62.09 62.09 80 40 80C17.91 80 0 62.09 0 40C0 17.91 17.91 0 40 0Z" fill="#8C52FF" fill-opacity="0.2"/>
<path d="M40 74.5594C59.087 74.5594 74.56 59.0864 74.56 39.9995C74.56 20.9125 59.087 5.43945 40 5.43945C20.913 5.43945 5.44 20.9125 5.44 39.9995C5.44 59.0864 20.913 74.5594 40 74.5594Z" fill="#8C52FF"/>
<path d="M47.07 27.1707C47.05 27.1507 47.03 27.1407 47.02 27.1207L46.97 27.0807C46.37 26.5807 45.48 26.6207 44.93 27.1707L34.63 37.4607C34.27 37.8307 34.27 38.4207 34.63 38.7807L39.07 43.2207C39.43 43.5807 40.02 43.5807 40.39 43.2207L50.68 32.9207C51.24 32.3607 51.27 31.4607 50.75 30.8607L47.07 27.1707ZM39.73 41.2407L36.61 38.1307L46 28.7407L49.12 31.8507L39.73 41.2407Z" fill="white"/>
<path d="M54.29 24.8802L60.01 19.1602C60.39 18.8002 60.39 18.2002 60.02 17.8302C59.65 17.4602 59.05 17.4702 58.69 17.8402L52.97 23.5602L52.79 23.3802C51.79 22.3802 50.16 22.3802 49.15 23.3802L48.26 24.2702C46.47 23.2602 44.23 23.5602 42.77 25.0102L26.64 41.1302L26.18 40.6702C25.34 39.8302 23.99 39.8302 23.15 40.6702L22.05 41.7702C21.22 42.6102 21.22 43.9602 22.05 44.8002L24.94 47.6802L21.5 51.1202L19.76 49.3802C18.72 48.3402 17.03 48.3402 15.99 49.3802L15.63 49.7402C14.59 50.7802 14.59 52.4702 15.63 53.5102L24.34 62.2302C24.84 62.7202 25.52 63.0102 26.23 63.0102C26.93 63.0102 27.61 62.7202 28.11 62.2302L28.47 61.8602C29.51 60.8202 29.51 59.1402 28.47 58.0902L26.73 56.3502L30.17 52.9202L33.06 55.8002C33.89 56.6402 35.25 56.6402 36.08 55.8002L37.19 54.7002C38.02 53.8602 38.02 52.5102 37.19 51.6702L36.72 51.2102L52.84 35.0902C54.29 33.6302 54.59 31.3802 53.58 29.5902L54.47 28.7002C55.48 27.7002 55.48 26.0602 54.47 25.0602L54.29 24.8802ZM27.15 60.5402L26.79 60.9102C26.47 61.2102 25.98 61.2102 25.66 60.9102L16.94 52.1902C16.63 51.8802 16.63 51.3702 16.94 51.0602L17.31 50.7002C17.62 50.3902 18.13 50.3902 18.44 50.7002L27.15 59.4102C27.46 59.7302 27.46 60.2302 27.15 60.5402ZM25.41 55.0402L22.82 52.4402L26.25 49.0002L28.85 51.6002L25.41 55.0402ZM35.87 53.3802L34.76 54.4802C34.66 54.5902 34.48 54.5902 34.37 54.4802L23.37 43.4802C23.26 43.3702 23.26 43.1902 23.37 43.0902L24.47 41.9802C24.58 41.8802 24.75 41.8802 24.86 41.9802L25.99 43.1102L34.74 51.8702L35.87 52.9902C35.97 53.1002 35.97 53.2702 35.87 53.3802ZM51.48 24.7002L53.15 26.3802C53.43 26.6502 53.43 27.1102 53.15 27.3802L52.38 28.1602L49.7 25.4702L50.47 24.7002C50.75 24.4302 51.19 24.4302 51.48 24.7002ZM51.52 33.7702L35.4 49.8902L27.96 42.4502L44.09 26.3302C45.09 25.3302 46.68 25.2702 47.76 26.1902C47.81 26.2302 47.86 26.2802 47.91 26.3302L51.53 29.9402C51.57 29.9902 51.62 30.0402 51.66 30.0902C52.58 31.1702 52.52 32.7702 51.52 33.7702Z" fill="white"/>
<path d="M31.37 41.7699C30.49 40.9299 29.2 42.2099 30.05 43.0899L31.15 44.1899C32.03 45.0399 33.32 43.7499 32.47 42.8699L31.37 41.7699Z" fill="white"/>
<path d="M33.54 39.6008C32.66 38.7208 31.34 40.0408 32.22 40.9208L33.32 42.0208C33.68 42.3808 34.28 42.3808 34.64 42.0208C35 41.6508 35 41.0608 34.64 40.7008L33.54 39.6008Z" fill="white"/>
<path d="M61.82 23.1798C61.63 22.9698 61.37 22.8398 61.08 22.8398C60.8 22.8398 60.53 22.9698 60.35 23.1798C59.7 24.0098 57.58 26.8498 57.58 28.4598C57.6 30.3798 59.16 31.9298 61.08 31.9298C63 31.9298 64.57 30.3798 64.59 28.4598C64.59 26.8498 62.47 24.0098 61.82 23.1798ZM61.08 30.1098C60.18 30.1098 59.44 29.3698 59.44 28.4698C59.44 27.9498 60.2 26.5998 61.08 25.3298C61.97 26.5998 62.73 27.9498 62.73 28.4698C62.72 29.3698 61.99 30.1098 61.08 30.1098Z" fill="white"/>
</svg>
