<svg width="17" height="19" viewBox="0 0 17 19" fill="none" xmlns="http://www.w3.org/2000/svg">
<path d="M6.54636 1.68886C6.15636 1.29886 6.16636 0.65886 6.56636 0.27886C6.95636 -0.10114 7.58636 -0.0911404 7.97636 0.29886L16.1264 8.65886C16.5064 9.03886 16.5064 9.65886 16.1264 10.0489L7.97636 18.3989C7.58636 18.7989 6.95636 18.8089 6.56636 18.4189C6.16636 18.0389 6.15636 17.4089 6.54636 17.0089L14.0164 9.34886L6.54636 1.68886ZM0.286357 1.68886C-0.103643 1.29886 -0.0936432 0.65886 0.306357 0.27886C0.696357 -0.10114 1.32636 -0.0911404 1.71636 0.29886L9.86636 8.65886C10.2464 9.03886 10.2464 9.65886 9.86636 10.0489L1.71636 18.3989C1.32636 18.7989 0.696357 18.8089 0.306357 18.4189C-0.0936432 18.0389 -0.103643 17.4089 0.286357 17.0089L7.75636 9.34886L0.286357 1.68886Z" fill="#8C52FF"/>
</svg>
