<svg width="80" height="80" viewBox="0 0 80 80" fill="none" xmlns="http://www.w3.org/2000/svg">
<path fill-rule="evenodd" clip-rule="evenodd" d="M40 0C62.09 0 80 17.91 80 40C80 62.09 62.09 80 40 80C17.91 80 0 62.09 0 40C0 17.91 17.91 0 40 0Z" fill="#8C52FF" fill-opacity="0.2"/>
<path d="M40 74.5594C59.087 74.5594 74.56 59.0864 74.56 39.9995C74.56 20.9125 59.087 5.43945 40 5.43945C20.913 5.43945 5.44 20.9125 5.44 39.9995C5.44 59.0864 20.913 74.5594 40 74.5594Z" fill="#8C52FF"/>
<path d="M46.15 26.3297H39.26C38.82 26.3297 38.46 26.6997 38.46 27.1397C38.46 27.5897 38.82 27.9497 39.26 27.9497H46.15C49.71 27.9497 52.6 30.8397 52.6 34.3997V57.7897C52.6 59.1197 51.52 60.1997 50.18 60.1997H29.82C28.49 60.1997 27.4 59.1197 27.4 57.7897V34.3997C27.4 30.8397 30.29 27.9497 33.85 27.9497H34.76C35.2 27.9497 35.57 27.5897 35.57 27.1397C35.57 26.6997 35.2 26.3297 34.76 26.3297V22.9097C34.76 22.4597 35.12 22.0997 35.57 22.0997H44.44C44.88 22.0997 45.24 22.4597 45.24 22.9097V24.0197C45.24 24.4597 45.6 24.8197 46.05 24.8197C46.49 24.8197 46.86 24.4597 46.86 24.0197V22.9097C46.86 21.5697 45.77 20.4897 44.44 20.4897H43.93V15.8497C43.93 14.5197 42.85 13.4297 41.51 13.4297H38.49C37.16 13.4297 36.07 14.5197 36.07 15.8497V20.4897H35.57C34.23 20.4897 33.15 21.5697 33.15 22.9097V26.3697C29.03 26.7297 25.79 30.1897 25.79 34.3997V57.7897C25.79 60.0097 27.6 61.8197 29.82 61.8197H50.18C52.4 61.8197 54.21 60.0097 54.21 57.7897V34.3997C54.21 29.9497 50.6 26.3297 46.15 26.3297ZM37.68 15.8497C37.68 15.4097 38.04 15.0397 38.49 15.0397H41.51C41.96 15.0397 42.32 15.4097 42.32 15.8497V20.4897H37.68V15.8497ZM56.23 15.2497C56.23 15.6897 55.87 16.0497 55.42 16.0497H55.19C54.74 16.0497 54.38 15.6897 54.38 15.2497C54.38 14.7997 54.74 14.4397 55.19 14.4397H55.42C55.87 14.4397 56.23 14.7997 56.23 15.2497ZM48.47 15.2497C48.47 14.7997 48.83 14.4397 49.27 14.4397H52.5C52.95 14.4397 53.31 14.7997 53.31 15.2497C53.31 15.6897 52.95 16.0497 52.5 16.0497H49.27C48.83 16.0497 48.47 15.6897 48.47 15.2497ZM55.48 20.8397C55.37 21.1797 55.06 21.3997 54.72 21.3997C54.53 21.3997 54.92 21.5097 49.02 19.5397C48.6 19.3997 48.37 18.9397 48.51 18.5197C48.65 18.0997 49.11 17.8697 49.53 18.0097L54.97 19.8197C55.4 19.9697 55.62 20.4197 55.48 20.8397ZM40 37.1197C36.17 37.1197 33.05 40.2397 33.05 44.0797C33.05 47.9097 36.17 51.0297 40 51.0297C42.39 51.0297 44.59 49.8297 45.87 47.8097C46.11 47.4297 46.61 47.3197 46.98 47.5597C47.36 47.7997 47.47 48.2997 47.23 48.6797C45.65 51.1597 42.94 52.6397 40 52.6397C35.28 52.6397 31.43 48.7997 31.43 44.0797C31.43 39.3497 35.28 35.5097 40 35.5097C44.72 35.5097 48.57 39.3497 48.57 44.0797C48.57 44.5197 48.21 44.8797 47.76 44.8797C47.32 44.8797 46.96 44.5197 46.96 44.0797C46.96 40.2397 43.84 37.1197 40 37.1197ZM39.19 46.5997V44.8797H37.48C37.04 44.8797 36.67 44.5197 36.67 44.0797C36.67 43.6297 37.04 43.2697 37.48 43.2697H39.19V41.5597C39.19 41.1097 39.56 40.7497 40 40.7497C40.45 40.7497 40.81 41.1097 40.81 41.5597V43.2697H42.52C42.97 43.2697 43.33 43.6297 43.33 44.0797C43.33 44.5197 42.97 44.8797 42.52 44.8797H40.81V46.5997C40.81 47.0397 40.45 47.3997 40 47.3997C39.56 47.3997 39.19 47.0397 39.19 46.5997Z" fill="white"/>
</svg>
